{"glyphs":{"0":{"ha":939,"x_min":0,"x_max":0,"o":"m 484 -8 b 771 149 588 -8 690 38 b 871 473 833 233 871 346 b 851 633 871 525 865 578 b 441 995 789 885 616 995 b 0 538 221 995 0 821 b 19 391 0 492 6 443 b 484 -8 73 170 281 -8 z m 395 72 b 366 74 386 72 376 73 b 531 309 469 100 531 208 b 332 504 531 410 471 504 b 296 502 320 504 309 503 b 328 353 318 462 328 408 b 259 136 328 245 293 136 b 201 323 236 136 213 187 b 198 405 199 349 198 376 b 423 941 198 622 266 879 b 481 952 442 948 462 952 b 682 593 587 952 682 836 b 681 547 682 578 682 563 b 395 72 673 387 600 72 z "},"1":{"ha":427,"x_min":0,"x_max":0,"o":"m 359 -1 b 286 494 311 63 286 278 b 359 988 286 709 311 924 b 0 893 245 942 110 893 b 99 419 66 854 99 634 b 30 -1 99 237 76 59 z "},"2":{"ha":776,"x_min":0,"x_max":0,"o":"m 188 -12 b 209 -11 195 -12 201 -12 b 571 60 334 -5 478 60 b 664 -10 619 60 654 43 b 707 155 694 54 707 109 b 581 296 707 245 656 296 b 323 135 507 296 412 246 b 154 30 262 61 199 30 b 96 79 119 30 96 48 b 237 253 96 120 135 182 b 707 652 409 372 692 397 b 708 669 707 658 708 663 b 331 1002 708 840 555 1002 b 261 996 309 1002 285 1000 b 29 856 164 982 73 935 b 0 749 9 819 0 783 b 184 565 0 645 85 565 b 276 589 214 565 245 572 b 245 720 254 633 245 677 b 326 911 245 800 279 871 b 402 940 349 931 376 940 b 550 783 477 940 550 867 b 546 747 550 770 549 759 b 60 291 517 632 206 530 b 5 130 24 233 5 178 b 188 -12 5 47 62 -12 z "},"3":{"ha":829,"x_min":0,"x_max":0,"o":"m 395 -1 b 690 181 507 -1 621 52 b 726 319 713 226 726 273 b 538 534 726 418 668 509 b 762 823 681 592 762 718 b 546 1001 762 920 694 1001 b 530 1000 541 1001 535 1001 b 119 935 380 995 222 935 b 12 1000 66 935 27 951 b 0 901 4 963 0 930 b 147 730 0 787 59 730 b 428 865 225 730 326 774 b 612 970 514 941 574 970 b 664 909 648 970 664 945 b 352 628 664 811 543 628 b 167 682 296 628 234 644 b 162 631 163 663 162 646 b 592 389 162 434 434 475 b 668 275 646 359 668 317 b 479 94 668 186 576 94 b 345 171 432 94 384 115 b 304 298 320 205 304 249 b 332 414 304 334 313 374 b 239 435 301 429 270 435 b 63 275 144 435 64 366 l 63 272 b 395 -1 63 119 227 -1 z "},"4":{"ha":790,"x_min":0,"x_max":0,"o":"m 699 -1 b 633 291 665 43 643 156 b 671 262 647 283 660 273 l 671 268 b 722 477 671 339 693 410 b 626 437 694 460 662 447 b 625 495 625 456 625 475 b 699 988 625 709 650 924 b 339 893 584 942 449 893 b 439 419 406 854 439 634 b 438 406 439 415 439 410 b 140 399 333 397 224 399 l 139 399 b 52 431 76 399 52 411 b 296 736 52 489 254 618 b 313 829 307 770 313 802 b 168 985 313 926 249 985 b 75 960 138 985 106 977 b 100 846 93 932 100 893 b 18 484 100 746 64 611 b 0 399 6 450 0 421 b 109 313 0 335 44 313 b 170 317 128 313 149 314 b 400 337 259 331 335 337 b 436 336 412 337 425 337 b 369 -1 431 185 408 50 z "},"5":{"ha":831,"x_min":0,"x_max":0,"o":"m 340 -1 b 396 3 359 -1 378 1 b 763 375 585 26 763 213 b 579 587 763 463 711 543 b 315 621 513 608 425 621 l 273 621 b 62 775 120 621 62 699 b 187 920 62 848 115 920 b 316 846 226 920 271 899 b 589 692 409 740 510 692 b 736 844 675 692 736 748 b 696 998 736 888 724 940 b 587 926 681 943 642 926 b 197 989 487 926 336 987 l 194 989 b 3 750 64 989 3 872 b 11 677 3 726 6 701 b 510 327 80 330 425 602 b 521 251 517 302 521 276 b 405 61 521 154 471 61 b 311 125 376 61 343 79 b 234 353 277 170 234 268 b 247 422 234 378 238 401 b 158 444 216 437 186 444 b 0 292 70 444 0 379 l 0 286 b 340 -1 7 98 168 -1 z "},"6":{"ha":833,"x_min":0,"x_max":0,"o":"m 383 -1 b 765 447 566 -1 748 139 l 765 455 b 481 647 765 586 597 647 b 437 644 465 647 451 646 b 227 412 341 628 244 506 b 223 374 224 399 223 387 b 228 326 223 358 224 342 b 144 600 176 386 144 485 b 155 713 144 636 148 674 b 236 819 168 791 197 819 b 341 781 266 819 302 803 b 504 735 400 749 455 735 b 729 943 640 735 729 841 b 707 1027 729 972 722 1001 b 460 958 658 977 560 958 b 226 994 374 958 286 972 b 11 555 178 847 34 680 b 0 434 3 512 0 472 b 383 -1 0 154 192 -1 z m 488 203 b 319 250 433 203 374 218 b 281 369 296 293 281 334 b 380 468 281 415 309 450 b 420 472 392 471 406 472 l 420 472 b 687 315 528 472 687 394 b 566 215 687 279 654 243 b 488 203 543 208 515 203 z "},"7":{"ha":886,"x_min":0,"x_max":0,"o":"m 0 -12 b 166 26 33 16 92 26 b 471 -4 254 26 362 12 b 376 264 406 66 376 163 b 686 743 376 473 500 701 b 819 868 773 763 819 816 b 593 1000 819 935 746 1000 l 592 1000 b 176 946 448 1000 286 946 b 47 1021 111 946 64 964 b 5 872 18 965 5 915 b 176 713 5 772 77 713 b 465 861 262 713 368 758 b 654 964 537 937 603 964 b 749 890 711 964 749 928 b 581 801 749 847 701 801 l 572 801 b 0 -12 254 801 203 328 z "},"8":{"ha":836,"x_min":0,"x_max":0,"o":"m 422 39 b 333 73 391 39 359 49 b 256 261 287 115 256 191 b 336 410 256 323 279 382 b 454 350 377 391 417 371 b 576 184 543 298 576 238 b 422 39 576 104 500 39 z m 374 -16 b 748 288 595 -16 748 128 l 748 290 b 609 501 747 380 690 448 b 765 683 670 539 755 614 b 768 715 767 694 768 705 b 398 1001 768 879 585 1001 b 258 976 351 1001 304 993 b 19 697 120 924 19 811 b 208 469 19 613 74 529 b 0 241 94 436 0 346 b 24 149 0 211 7 180 b 260 -4 66 70 159 18 b 374 -16 300 -12 338 -16 z m 568 526 b 360 611 512 554 417 587 b 130 777 193 686 130 741 b 264 828 130 811 188 828 b 633 646 413 828 633 764 b 568 526 633 610 614 571 z "},"9":{"ha":814,"x_min":0,"x_max":0,"o":"m 471 504 b 286 549 408 504 343 522 b 142 765 184 599 142 687 b 261 918 142 847 189 918 b 357 882 290 918 322 907 b 582 535 465 804 582 629 b 581 523 582 531 582 527 b 471 504 545 510 509 504 z m 77 -18 b 187 22 101 13 140 22 b 419 1 256 22 342 2 l 422 1 b 646 233 560 1 591 94 b 747 632 696 358 747 502 b 325 1000 747 812 650 964 b 317 1000 322 1000 319 1000 b 0 597 122 1000 0 771 b 37 460 0 543 12 494 b 326 319 100 369 211 319 b 600 431 424 319 524 355 b 604 351 602 405 604 378 b 601 285 604 329 602 307 b 518 166 593 196 563 166 b 420 193 490 166 457 178 b 250 233 357 221 300 233 b 47 73 124 233 47 157 b 77 -18 47 43 57 12 z "},"\u0000":{"ha":0,"x_min":0,"x_max":0,"o":""},"\u001d":{"ha":0,"x_min":0,"x_max":0,"o":""}," ":{"ha":471,"x_min":0,"x_max":0,"o":""}," ":{"ha":471,"x_min":0,"x_max":0,"o":""},"!":{"ha":466,"x_min":0,"x_max":0,"o":"m 288 287 b 398 770 288 347 398 626 b 396 800 398 781 397 791 b 184 1000 377 934 283 1000 b 0 913 119 1000 51 971 b 214 287 163 836 184 424 z m 250 -2 b 351 99 305 -2 351 43 b 250 201 351 155 305 201 b 149 99 194 201 149 155 b 250 -2 149 43 194 -2 z "},"\"":{"ha":371,"x_min":0,"x_max":0,"o":"m 182 823 b 303 1025 235 823 303 923 b 235 1080 303 1061 273 1080 b 170 1027 203 1080 171 1063 l 165 827 b 182 823 171 824 176 823 z m 16 823 b 138 1025 69 823 138 923 b 70 1080 138 1061 108 1080 b 4 1027 37 1080 5 1063 l 0 827 b 16 823 5 824 11 823 z "},"#":{"ha":1166,"x_min":0,"x_max":0,"o":"m 876 -2 b 845 201 854 32 845 106 b 848 300 845 233 846 265 b 1069 372 968 308 1057 328 b 1071 387 1070 378 1071 382 b 1050 404 1071 397 1065 404 b 1026 400 1044 404 1036 402 b 959 395 1013 396 989 395 b 854 398 930 395 895 396 b 880 591 861 461 869 527 b 1096 662 998 598 1084 618 b 1098 676 1097 667 1098 672 b 1078 694 1098 688 1092 694 b 1053 690 1072 694 1063 692 b 979 685 1038 686 1013 685 b 897 687 956 685 928 686 b 1003 989 926 827 963 944 l 673 989 b 705 780 695 954 705 877 b 703 697 705 753 704 726 b 448 709 621 701 532 707 b 549 989 476 838 511 947 l 220 989 b 251 780 241 954 251 877 b 250 707 251 757 251 732 b 32 640 131 701 44 682 b 27 616 28 629 27 621 b 41 604 27 606 32 604 b 92 610 52 604 69 608 b 118 611 99 611 108 611 b 242 606 147 611 191 609 b 220 416 237 545 229 479 b 5 349 102 410 17 391 b 0 326 1 339 0 332 b 15 313 0 317 5 313 b 66 319 26 313 43 317 b 96 321 73 320 83 321 b 202 317 122 321 159 319 b 92 -2 173 170 134 45 l 422 -2 b 391 202 401 32 391 106 b 395 307 391 235 393 270 b 652 296 477 302 566 297 b 545 -2 623 159 586 43 z m 672 407 b 404 419 585 412 492 416 b 427 596 409 477 418 537 b 694 587 513 591 606 587 b 672 407 688 527 681 467 z "},"$":{"ha":793,"x_min":0,"x_max":0,"o":"m 392 -144 b 410 -125 404 -144 410 -138 b 404 -96 410 -117 408 -108 b 397 -41 399 -79 397 -60 b 398 -11 397 -31 397 -21 b 545 34 452 -5 501 9 b 677 158 602 66 646 107 b 725 319 709 209 725 262 b 340 642 725 469 597 577 b 109 736 222 672 145 704 b 83 775 92 750 83 764 b 116 810 83 789 94 802 b 201 824 138 819 166 824 b 304 811 233 824 267 820 b 320 753 306 789 311 769 b 391 715 332 732 355 719 l 392 715 b 410 734 404 715 410 721 b 404 763 410 741 408 751 b 400 780 402 768 401 774 b 621 592 493 739 566 676 b 721 760 688 644 721 701 b 677 876 721 802 706 841 b 564 962 647 911 609 940 b 419 1000 518 984 470 997 b 420 1034 420 1012 420 1023 b 406 1101 420 1060 416 1082 b 351 1137 396 1119 378 1131 b 330 1139 342 1139 336 1139 b 315 1126 320 1139 315 1135 b 319 1100 315 1120 317 1112 b 328 1036 325 1076 328 1055 b 326 997 328 1023 327 1010 b 191 958 277 991 233 977 b 52 849 133 930 87 893 b 0 709 18 804 0 758 b 40 595 0 670 14 632 b 168 498 66 558 109 526 b 273 452 201 483 236 468 b 442 376 332 429 389 404 b 538 294 487 351 519 323 b 567 205 557 264 567 235 b 522 96 567 163 552 127 b 418 48 491 64 456 48 b 406 49 414 48 410 48 b 409 70 406 56 408 63 b 420 175 416 115 420 150 b 406 241 420 201 416 223 b 351 278 396 260 378 272 b 330 281 343 280 336 281 b 315 268 320 281 315 277 b 319 241 315 262 317 253 b 328 177 325 217 328 195 b 321 98 328 153 326 126 b 261 269 281 142 261 199 b 292 400 261 311 271 355 b 201 423 261 416 231 423 b 109 399 168 423 137 415 b 41 334 81 383 58 361 b 16 239 24 306 16 274 b 45 132 16 206 26 170 b 231 1 83 67 145 23 b 305 -12 256 -5 281 -9 l 304 -38 b 320 -106 304 -64 310 -87 b 391 -144 332 -127 355 -140 z "},"%":{"ha":802,"x_min":0,"x_max":0,"o":"m 153 714 b 305 867 237 714 305 782 b 153 1020 305 951 237 1020 b 0 867 68 1020 0 951 b 153 714 0 782 68 714 z m 372 -1 b 357 98 362 20 357 54 b 619 1020 357 347 506 908 l 362 1020 b 378 919 373 1000 378 964 b 115 -1 378 669 231 113 z m 153 758 b 91 867 118 758 91 806 b 153 975 91 926 118 975 b 214 867 187 975 214 926 b 153 758 214 806 187 758 z m 582 -1 b 734 153 667 -1 734 68 b 582 306 734 237 667 306 b 429 153 498 306 429 237 b 582 -1 429 68 498 -1 z m 582 44 b 520 153 548 44 520 93 b 582 261 520 212 548 261 b 644 153 616 261 644 212 b 582 44 644 93 616 44 z "},"&":{"ha":817,"x_min":0,"x_max":0,"o":"m 340 -51 b 745 231 526 -51 723 47 b 747 262 747 242 747 253 b 631 378 747 335 711 378 l 618 377 b 467 339 567 374 509 359 b 446 333 460 334 452 333 b 405 376 422 333 405 356 b 437 405 405 391 414 405 b 523 404 463 405 492 404 b 749 547 629 404 749 418 b 705 716 749 589 736 645 b 395 516 668 605 496 557 b 327 413 348 496 327 455 b 451 279 327 348 376 279 b 509 292 469 279 488 283 b 622 326 546 309 589 326 b 677 267 652 326 675 311 l 677 262 b 493 126 677 180 588 126 b 286 276 409 126 321 169 b 273 349 277 304 273 329 b 334 486 273 430 334 452 b 320 515 334 494 330 504 b 204 814 250 600 204 722 b 277 947 204 880 227 931 b 296 949 283 949 289 949 b 460 717 366 949 460 850 b 450 638 460 692 457 665 b 515 627 472 630 494 627 b 684 792 610 627 684 701 b 633 922 684 833 669 879 b 390 1023 578 990 483 1023 l 387 1023 b 21 751 212 1023 21 893 b 169 555 21 684 63 615 b 245 481 216 528 245 505 b 178 421 245 463 225 443 b 0 223 69 371 0 307 b 340 -51 0 37 165 -51 z "},"'":{"ha":205,"x_min":0,"x_max":0,"o":"m 16 823 b 138 1025 69 823 138 923 b 70 1080 138 1061 108 1080 b 4 1027 37 1080 5 1063 l 0 827 b 16 823 5 824 11 823 z "},"(":{"ha":401,"x_min":0,"x_max":0,"o":"m 371 -104 b 385 -94 381 -104 385 -100 b 366 -71 385 -87 377 -76 b 169 493 235 -1 169 246 b 366 1057 169 741 235 988 b 385 1080 377 1063 385 1073 b 371 1090 385 1086 381 1090 b 356 1088 367 1090 362 1089 b 0 493 119 1034 0 763 b 356 -102 0 223 119 -47 b 371 -104 362 -103 367 -104 z "},")":{"ha":393,"x_min":0,"x_max":0,"o":"m -33 -104 b -18 -102 -28 -104 -24 -103 b 339 493 220 -47 339 223 b -18 1088 339 763 220 1034 b -32 1090 -24 1089 -28 1090 b -46 1080 -42 1090 -46 1086 b -26 1057 -46 1073 -38 1063 b 170 493 104 988 170 741 b -26 -71 170 246 104 -1 b -46 -94 -38 -76 -46 -87 b -33 -104 -46 -100 -42 -104 z "},"*":{"ha":292,"x_min":0,"x_max":0,"o":"m 112 768 b 140 790 126 768 140 776 l 136 823 l 154 798 b 169 791 158 793 163 791 b 201 823 184 791 201 808 b 193 838 201 829 199 834 l 170 857 b 202 852 191 854 180 854 b 224 880 216 852 224 866 b 201 908 224 894 216 908 l 170 905 l 193 923 b 201 938 199 927 201 932 b 169 970 201 953 184 970 b 154 962 163 970 158 967 l 136 938 l 140 970 b 112 992 140 985 126 992 b 84 970 98 992 84 985 l 88 938 l 70 962 b 54 970 66 967 60 970 b 23 938 39 970 23 953 b 31 923 23 932 25 927 l 54 905 l 22 908 b 0 880 7 908 0 895 b 21 852 0 866 7 852 b 54 857 43 854 31 853 l 31 838 b 22 823 25 834 22 829 b 55 791 22 807 39 791 b 70 798 60 791 66 793 l 88 823 l 84 790 b 112 768 84 776 98 768 z "},"+":{"ha":354,"x_min":0,"x_max":0,"o":"m 143 161 b 176 189 159 161 176 170 l 175 194 b 165 283 170 241 167 265 b 253 272 182 281 207 277 l 257 272 b 286 305 276 272 286 288 b 257 338 286 321 276 338 l 253 338 l 165 327 b 175 415 167 344 170 368 l 176 420 b 144 448 176 439 160 448 l 143 448 b 111 420 127 448 111 439 l 111 415 b 121 327 115 368 119 344 l 33 338 l 28 338 b 0 305 9 338 0 321 b 28 272 0 288 9 272 l 33 272 b 121 283 79 277 104 281 b 111 194 119 265 115 241 l 111 189 b 143 161 111 170 127 161 z "},",":{"ha":268,"x_min":0,"x_max":0,"o":"m 100 -63 b 127 -52 106 -63 116 -60 b 200 83 169 -26 196 30 l 200 92 b 104 198 200 164 153 198 l 102 198 b 0 97 52 198 0 163 b 98 -5 0 42 43 -3 b 87 -35 94 -19 90 -28 b 85 -47 86 -39 85 -43 b 100 -63 85 -56 90 -63 z "},"-":{"ha":354,"x_min":0,"x_max":0,"o":"m 258 273 b 286 305 277 273 286 289 b 258 338 286 321 277 338 l 254 338 b 143 326 184 330 163 326 b 33 338 123 326 102 330 l 28 338 b 0 306 9 338 0 322 b 28 273 0 289 9 273 l 33 273 b 143 284 102 281 123 284 b 254 273 163 284 184 281 z "},"­":{"ha":354,"x_min":0,"x_max":0,"o":"m 258 273 b 286 305 277 273 286 289 b 258 338 286 321 277 338 l 254 338 b 143 326 184 330 163 326 b 33 338 123 326 102 330 l 28 338 b 0 306 9 338 0 322 b 28 273 0 289 9 273 l 33 273 b 143 284 102 281 123 284 b 254 273 163 284 184 281 z "},".":{"ha":270,"x_min":0,"x_max":0,"o":"m 101 -5 b 202 97 157 -5 202 41 b 101 198 202 153 157 198 b 0 97 45 198 0 153 b 101 -5 0 41 45 -5 z "},"/":{"ha":759,"x_min":0,"x_max":0,"o":"m 655 1217 l 0 -243 l 36 -243 l 691 1217 z "},":":{"ha":270,"x_min":0,"x_max":0,"o":"m 100 256 b 202 357 156 256 202 301 b 100 458 202 413 156 458 b 0 357 45 458 0 413 b 100 256 0 301 45 256 z m 100 -3 b 202 98 156 -3 202 42 b 100 199 202 154 156 199 b 0 98 45 199 0 154 b 100 -3 0 42 45 -3 z "},";":{"ha":270,"x_min":0,"x_max":0,"o":"m 100 256 b 202 357 156 256 202 301 b 100 458 202 413 156 458 b 0 357 45 458 0 413 b 100 256 0 301 45 256 z m 100 -63 b 127 -52 106 -63 115 -60 b 199 93 174 -24 198 33 b 103 198 199 165 152 198 b 0 97 52 198 0 165 b 97 -5 0 42 43 -3 b 85 -47 92 -26 85 -37 b 100 -63 85 -56 90 -63 z "},";":{"ha":270,"x_min":0,"x_max":0,"o":"m 100 256 b 202 357 156 256 202 301 b 100 458 202 413 156 458 b 0 357 45 458 0 413 b 100 256 0 301 45 256 z m 100 -63 b 127 -52 106 -63 115 -60 b 199 93 174 -24 198 33 b 103 198 199 165 152 198 b 0 97 52 198 0 165 b 97 -5 0 42 43 -3 b 85 -47 92 -26 85 -37 b 100 -63 85 -56 90 -63 z "},"<":{"ha":328,"x_min":0,"x_max":0,"o":"m 227 298 b 259 335 245 298 259 317 b 242 361 259 345 254 355 b 101 446 148 402 101 424 b 242 530 101 468 148 490 b 260 556 254 536 260 546 b 226 593 260 574 244 593 b 210 588 220 593 215 592 b 18 477 98 504 146 532 b 0 446 6 472 0 459 b 18 414 0 433 6 420 b 210 304 146 359 98 387 b 227 298 216 300 221 298 z "},"=":{"ha":355,"x_min":0,"x_max":0,"o":"m 258 323 b 287 355 277 323 287 339 b 258 388 287 372 277 388 l 254 388 b 144 376 185 380 164 376 b 33 388 123 376 103 380 l 29 389 b 1 356 10 389 1 372 b 29 323 1 339 10 323 l 33 323 b 144 334 103 331 123 334 b 254 323 164 334 185 331 z m 258 193 b 287 226 277 193 287 210 b 254 258 287 246 276 258 b 144 247 185 251 164 247 b 33 258 123 247 103 251 b 0 226 11 258 0 247 b 29 193 0 210 10 193 l 33 193 b 144 205 103 201 123 205 b 254 193 164 205 185 201 z "},">":{"ha":327,"x_min":0,"x_max":0,"o":"m 33 298 b 50 304 38 298 44 300 b 241 414 162 387 113 359 b 259 446 253 420 259 433 b 241 477 259 459 253 472 b 50 588 113 532 162 504 b 33 593 44 592 38 593 b 0 556 15 593 0 574 b 17 530 0 546 5 536 b 159 446 111 490 159 468 b 17 361 159 424 111 402 b 0 335 5 355 0 345 b 33 298 0 317 15 298 z "},"?":{"ha":778,"x_min":0,"x_max":0,"o":"m 221 229 b 243 242 232 229 241 233 b 709 675 309 450 691 378 l 710 691 b 333 1002 710 850 557 1002 b 262 998 310 1002 286 1001 b 30 866 165 984 74 940 b 0 765 9 831 0 797 b 185 593 0 668 85 593 b 277 615 215 593 246 600 b 245 737 255 656 245 698 b 327 917 245 813 280 880 b 404 945 351 936 377 945 b 553 797 479 945 553 876 b 548 764 553 786 551 775 b 159 306 523 671 159 507 b 161 280 159 297 160 289 b 221 229 167 247 199 229 z m 202 -2 b 303 99 258 -2 303 43 b 202 201 303 155 258 201 b 101 99 146 201 101 155 b 202 -2 101 43 146 -2 z "},"@":{"ha":1114,"x_min":0,"x_max":0,"o":"m 476 -3 b 772 104 576 -3 679 31 b 604 88 711 93 656 88 b 112 543 252 88 112 321 b 412 945 112 748 231 945 l 432 944 b 862 410 659 927 829 637 b 869 321 867 375 869 346 b 822 210 869 244 848 210 b 743 323 793 210 760 252 b 732 444 734 363 732 404 b 734 559 732 482 734 521 b 722 684 734 602 732 643 b 510 833 696 784 597 833 b 182 651 277 833 182 733 b 307 545 182 594 228 545 b 359 552 323 545 340 547 b 437 612 395 560 427 577 b 377 688 394 627 377 657 b 466 794 377 740 422 794 b 483 791 472 794 477 793 b 524 725 515 779 524 753 b 522 699 524 716 523 707 b 248 479 496 520 329 539 b 195 366 213 453 195 410 b 322 233 195 300 238 233 b 463 271 374 233 416 271 b 519 252 481 271 499 265 l 519 258 b 368 402 519 383 368 359 b 414 462 368 415 380 433 b 543 608 475 515 541 602 b 545 526 544 581 545 553 l 544 467 b 720 122 544 321 570 122 b 835 152 752 122 790 131 b 1046 527 965 214 1040 379 l 1046 553 b 545 1009 1046 857 799 1009 b 1 527 283 1009 15 848 l 0 501 b 476 -3 0 203 228 -3 z "},"A":{"ha":815,"x_min":0,"x_max":0,"o":"m 25 -153 b 281 167 141 -153 281 -43 b 273 260 281 196 278 227 b 256 350 268 288 262 317 b 498 94 334 264 428 254 b 661 -1 525 33 576 -1 l 774 -1 b 587 876 667 277 659 725 b 269 988 542 972 447 988 b 330 879 292 975 311 935 b -106 -77 130 680 109 -77 b 25 -153 -79 -128 -30 -153 z m 454 260 b 243 510 367 338 243 361 b 346 828 243 615 267 728 b 454 260 395 652 433 382 z "},"B":{"ha":786,"x_min":0,"x_max":0,"o":"m 321 -2 b 784 286 519 -2 737 70 b 789 334 787 302 789 319 b 557 530 789 457 675 530 b 491 522 535 530 513 528 b 676 690 557 569 637 623 b 712 804 701 734 712 772 b 404 991 712 945 525 991 b 117 983 313 991 215 983 b 3 988 79 983 41 985 b 54 616 40 951 54 795 b 0 -1 54 356 26 50 b 115 12 0 -1 39 12 b 219 5 144 12 179 10 b 321 -2 252 1 286 -2 z m 262 193 b 252 481 257 280 252 381 b 291 825 252 610 260 736 b 414 964 319 910 371 964 b 479 826 450 964 479 923 l 479 817 b 262 193 474 474 309 471 z m 304 42 l 273 42 b 480 445 278 132 341 445 b 573 309 534 445 573 392 b 304 42 573 192 492 42 z "},"C":{"ha":737,"x_min":0,"x_max":0,"o":"m 425 -3 b 673 215 553 -3 673 73 b 665 281 673 236 670 258 b 478 227 595 243 534 227 b 138 670 254 227 138 494 b 141 714 138 686 139 700 b 218 819 151 791 179 819 b 325 781 248 819 285 803 b 398 751 350 768 374 758 b 309 572 340 701 309 635 b 434 393 309 500 349 432 b 391 492 404 426 391 459 b 623 777 391 606 542 713 b 638 789 628 780 633 785 l 639 789 b 707 936 682 827 707 882 b 681 1027 707 967 699 999 b 524 962 627 969 524 962 b 465 959 505 960 486 959 b 138 1025 332 959 169 999 b 155 932 150 991 155 960 b 5 556 155 795 28 727 b 0 485 2 532 0 509 b 345 7 0 273 126 62 b 425 -3 372 0 399 -3 z "},"D":{"ha":757,"x_min":0,"x_max":0,"o":"m 0 0 b 155 8 51 5 102 8 b 297 1 202 8 249 5 b 276 62 281 14 276 36 b 399 5 311 22 354 5 b 700 218 515 5 646 113 b 767 508 744 304 767 406 b 366 992 767 751 637 992 l 345 991 b 45 975 244 989 146 975 l 3 976 b 54 611 40 941 54 787 b 0 0 54 355 26 52 z m 349 58 b 269 239 305 58 271 111 l 260 743 b 334 964 260 903 291 964 b 351 961 339 964 345 963 b 553 497 478 918 553 707 b 418 94 553 339 511 182 b 349 58 395 71 370 58 z "},"E":{"ha":759,"x_min":0,"x_max":0,"o":"m 439 -1 b 694 216 571 -1 694 75 b 686 283 694 237 691 259 b 496 227 620 248 555 227 b 279 381 406 227 328 273 b 253 490 262 419 253 458 b 300 560 253 531 269 560 b 375 527 319 560 344 551 b 582 440 448 471 524 440 b 688 556 645 440 688 476 b 675 645 688 581 684 610 b 562 590 640 603 602 590 b 399 621 509 590 453 613 b 362 623 386 622 374 623 b 215 475 258 623 215 557 b 231 385 215 446 220 416 b 142 672 172 474 142 585 b 225 820 142 773 176 820 b 335 783 256 820 294 804 b 505 737 397 751 454 737 b 728 936 642 737 728 837 b 701 1027 728 968 720 999 b 539 962 646 970 539 962 b 479 960 520 960 500 960 b 142 1026 342 960 174 999 b 160 933 155 991 160 961 b 5 557 160 795 29 728 b 0 486 2 534 0 510 b 356 9 0 274 130 64 b 439 -1 383 2 412 -1 z "},"F":{"ha":777,"x_min":0,"x_max":0,"o":"m 318 -1 b 244 457 268 64 251 266 b 292 522 251 504 268 522 b 373 484 314 522 342 507 b 578 396 451 428 523 396 b 689 551 646 396 689 444 b 686 602 689 566 688 583 b 569 547 650 559 610 547 b 367 579 503 547 433 579 b 242 529 325 579 267 569 b 240 733 240 604 240 676 l 240 809 b 263 903 240 878 248 903 b 500 737 302 903 386 743 l 515 737 b 747 941 656 737 747 840 b 722 1027 747 970 739 1000 b 463 942 655 962 564 942 b 11 987 313 942 142 987 b 64 513 42 861 64 610 b 64 456 64 467 64 456 l 64 456 b 13 46 63 292 45 134 l 0 -1 z "},"G":{"ha":833,"x_min":0,"x_max":0,"o":"m 362 -55 b 415 -50 380 -55 397 -54 b 716 88 566 -18 601 88 b 809 70 742 88 772 83 b 761 355 766 150 761 258 l 761 425 b 510 614 761 554 635 614 b 332 566 444 614 378 597 b 264 446 284 534 264 490 b 413 278 264 362 335 278 l 418 278 b 590 475 457 424 528 475 b 711 356 655 475 711 419 b 570 210 711 303 673 245 b 490 197 545 201 518 197 b 141 596 334 197 141 327 b 150 700 141 629 144 663 b 231 810 163 781 193 810 b 337 770 261 810 297 793 b 500 722 396 736 451 722 b 725 939 635 722 725 833 b 703 1027 725 970 718 1000 b 455 956 654 975 556 956 b 160 1025 330 956 202 986 b 174 939 170 994 174 964 b 6 534 174 787 38 718 b 0 453 2 509 0 481 b 362 -55 0 222 147 -55 z "},"H":{"ha":831,"x_min":0,"x_max":0,"o":"m 790 -1 l 780 36 b 725 458 741 133 725 292 b 779 988 725 659 748 868 l 477 988 b 551 584 526 924 551 776 b 549 467 551 547 551 507 b 218 640 385 559 218 479 b 313 988 218 706 246 812 l 10 988 b 65 492 45 860 65 682 b 9 33 65 307 47 122 l 0 -1 l 313 -1 b 239 503 266 61 241 295 b 541 195 313 384 541 370 b 477 -1 541 145 523 81 z "},"I":{"ha":350,"x_min":0,"x_max":0,"o":"m 309 -1 b 242 509 264 150 242 330 b 299 988 242 678 262 846 l 11 988 b 67 510 48 846 67 679 b 0 -1 67 330 45 149 z "},"J":{"ha":391,"x_min":0,"x_max":0,"o":"m 42 -163 b 311 101 161 -163 290 -90 b 317 220 315 140 317 180 b 280 739 317 401 280 587 b 350 988 280 841 296 928 l 52 988 b 114 605 92 939 114 783 b 44 92 114 427 92 227 b -132 -84 17 14 -37 -84 l -146 -83 b 42 -163 -108 -132 -35 -163 z "},"K":{"ha":835,"x_min":0,"x_max":0,"o":"m 613 -54 b 791 62 687 -54 765 -19 b 808 179 802 99 808 139 b 587 471 808 324 733 471 b 448 433 546 471 500 460 b 753 832 585 583 753 688 b 749 865 753 843 751 854 b 549 1009 734 949 640 991 b 557 956 555 992 557 975 b 258 232 557 770 309 501 b 250 485 254 315 250 401 b 372 987 250 680 273 867 b 200 961 309 968 252 961 b 12 984 130 961 67 973 b 55 558 41 924 55 747 b 0 -1 55 330 35 84 l 284 -1 b 278 64 280 20 278 42 b 453 399 278 198 352 344 b 526 420 479 414 505 420 b 629 294 589 420 629 366 b 457 39 629 215 580 113 b 613 -54 471 -20 541 -54 z "},"L":{"ha":764,"x_min":0,"x_max":0,"o":"m 543 -37 b 676 -5 595 -37 640 -28 b 730 80 715 20 730 49 b 534 509 730 191 534 334 b 598 678 534 563 551 619 b 487 694 557 689 520 694 b 284 536 359 694 284 623 b 378 371 284 482 314 422 b 520 273 428 333 475 309 b 612 124 587 222 612 169 b 475 3 612 54 550 3 b 329 77 427 3 374 25 b 216 525 258 160 216 340 b 345 988 216 703 255 885 l 10 988 b 51 589 39 937 51 771 b 0 1 51 339 28 58 b 103 8 34 6 68 8 b 543 -37 264 8 422 -37 z "},"M":{"ha":1086,"x_min":0,"x_max":0,"o":"m 44 -203 b 253 63 147 -203 253 -112 b 214 266 253 121 241 189 b 104 732 152 442 104 601 b 217 960 104 887 165 960 b 283 885 248 960 275 934 b 288 828 287 867 288 848 b 254 488 288 732 254 624 b 286 268 254 422 262 349 b 548 45 330 114 448 45 b 714 201 637 45 714 100 b 633 458 714 281 659 392 b 571 753 603 534 571 667 b 663 910 571 850 614 910 b 775 760 705 910 751 865 b 812 410 798 661 812 534 b 726 0 812 241 787 79 l 1045 0 b 981 511 1002 107 981 311 b 1031 980 981 692 998 872 b 941 965 1004 969 974 965 b 721 983 871 965 791 983 b 528 740 620 983 528 943 b 593 447 528 650 553 532 b 662 214 643 339 662 262 b 630 153 662 174 648 153 b 545 269 604 153 568 193 b 426 858 484 475 507 701 b 227 1009 379 949 301 1009 b 37 713 139 1008 56 924 b 28 454 29 633 28 543 l 28 363 b -88 -142 28 133 22 -81 b 44 -203 -52 -184 -4 -203 z "},"N":{"ha":892,"x_min":0,"x_max":0,"o":"m 88 -88 b 292 125 190 -88 292 -15 b 249 300 292 175 279 233 b 111 711 193 425 130 576 b 105 786 107 738 105 764 b 197 959 105 903 152 959 b 279 819 239 959 279 910 b 267 656 279 776 267 722 b 397 122 267 479 316 252 b 612 -29 454 30 538 -29 b 772 258 699 -29 772 52 b 752 643 772 346 752 500 b 859 962 752 790 774 925 b 724 1008 821 993 773 1008 b 522 814 623 1008 522 941 b 567 651 522 768 536 713 b 709 193 648 493 709 330 b 618 20 709 75 663 20 b 535 159 576 20 535 68 b 547 325 535 203 547 258 b 417 857 547 501 498 726 b 203 1008 360 949 277 1008 b 42 720 115 1008 42 927 b 64 304 42 629 64 460 b -46 -38 64 147 42 3 b 88 -88 -9 -72 39 -88 z "},"O":{"ha":927,"x_min":0,"x_max":0,"o":"m 467 -3 b 934 479 701 -3 934 158 b 488 1008 934 791 717 1008 b 229 901 399 1008 309 975 b 311 910 257 907 285 910 b 733 515 532 910 668 718 b 770 307 759 435 770 366 b 583 61 770 146 687 61 b 174 596 377 61 216 351 b 161 718 165 648 161 688 b 191 794 161 772 174 794 b 327 509 239 794 327 635 b 319 450 327 488 325 469 b 522 646 465 475 522 559 b 290 884 522 762 422 884 b 174 853 253 884 214 875 b 0 479 60 792 0 627 b 467 -3 0 158 233 -3 z "},"P":{"ha":707,"x_min":0,"x_max":0,"o":"m 282 -1 b 270 85 274 29 270 58 b 669 690 270 312 525 467 b 707 804 696 734 707 772 b 399 991 707 940 517 991 b 85 973 294 991 194 973 b 4 977 58 973 32 975 b 59 471 33 905 59 692 b 0 -1 59 296 43 117 l 189 0 z m 254 193 b 243 485 249 281 243 384 b 282 825 243 612 252 737 b 405 964 311 910 363 964 l 406 964 b 471 825 442 964 471 922 b 254 193 471 490 254 387 z "},"Q":{"ha":927,"x_min":0,"x_max":0,"o":"m 236 -345 b 723 -174 361 -139 492 -199 b 865 -43 815 -164 865 -103 b 682 88 865 23 806 88 b 201 491 537 90 324 104 b 165 698 176 570 165 639 b 352 944 165 859 248 944 b 760 409 557 944 719 652 b 773 288 769 357 773 317 b 743 212 773 233 761 212 b 608 496 695 212 608 370 b 615 555 608 517 610 536 b 412 359 470 531 412 446 b 644 121 412 243 512 121 b 760 152 681 121 720 130 b 934 526 874 214 934 378 b 467 1008 934 848 701 1008 b 0 526 234 1008 0 848 b 442 1 0 226 193 1 b 639 46 505 1 572 15 b 709 64 667 59 691 64 b 765 14 747 64 765 42 b 609 -103 765 -35 710 -103 b 537 -93 587 -103 563 -100 b 304 -12 454 -71 391 -12 b 222 -28 279 -12 252 -16 b 117 -185 162 -51 117 -117 b 236 -345 117 -244 150 -306 z "},"R":{"ha":791,"x_min":0,"x_max":0,"o":"m 559 -39 b 764 186 701 -39 764 71 b 540 461 764 321 675 461 b 467 447 516 461 491 456 b 707 805 576 568 707 700 b 398 991 707 937 524 991 b 104 979 300 991 205 979 b 6 984 72 979 39 981 b 54 435 33 905 54 663 b 0 -1 54 244 39 63 l 188 0 l 282 -1 b 275 81 277 28 275 55 b 476 372 275 260 392 372 b 562 245 539 372 562 318 b 469 -25 562 146 517 19 b 559 -39 503 -34 532 -39 z m 254 193 b 243 481 248 280 243 381 b 282 825 243 610 252 736 b 405 964 311 910 363 964 b 471 826 441 964 471 923 b 254 193 467 477 299 466 z "},"S":{"ha":725,"x_min":0,"x_max":0,"o":"m 347 -14 b 725 319 572 -14 725 149 b 340 642 725 502 540 590 b 83 775 153 690 83 740 b 201 824 83 804 132 824 b 621 592 324 824 513 764 b 721 760 692 648 721 706 b 416 1000 721 886 568 991 b 389 1001 407 1001 397 1001 b 0 709 172 1001 0 854 b 168 498 0 631 50 553 b 442 376 250 459 356 422 b 567 205 533 327 567 263 b 418 48 567 121 494 48 b 261 269 340 48 261 141 b 292 400 261 311 271 356 b 201 423 262 416 231 423 b 16 239 101 423 16 344 b 45 132 16 205 24 170 b 347 -14 102 29 233 -14 z "},"T":{"ha":844,"x_min":0,"x_max":0,"o":"m 560 -14 b 471 521 519 131 471 352 b 595 760 471 657 503 760 b 817 904 733 760 817 833 b 577 1034 817 970 745 1034 b 155 968 429 1034 260 968 b 37 1042 98 968 56 986 b 0 896 12 987 0 938 b 165 730 0 791 70 730 b 448 888 250 730 355 779 b 640 996 517 968 586 996 b 744 918 701 996 744 958 b 562 827 744 873 693 827 b 206 -14 141 827 333 184 z "},"U":{"ha":759,"x_min":0,"x_max":0,"o":"m 362 -4 b 418 1 381 -4 400 -3 b 627 57 498 13 555 57 b 718 34 655 57 684 51 b 692 397 698 63 692 220 b 705 983 692 665 705 981 b 555 972 671 977 614 972 b 410 983 505 972 453 975 b 530 470 472 915 530 673 b 467 208 530 358 512 258 b 293 131 422 156 357 131 b 96 317 193 131 96 195 b 261 653 96 402 142 514 b 327 810 306 705 327 760 b 102 991 327 910 244 991 b 0 979 70 991 35 987 b 92 717 70 896 92 806 b 31 363 92 595 52 473 b 24 300 26 341 24 320 b 362 -4 24 112 193 -4 z "},"V":{"ha":837,"x_min":0,"x_max":0,"o":"m 395 -3 b 631 202 483 -3 579 83 b 803 875 722 416 803 746 b 598 1082 803 1014 695 1082 b 439 995 535 1082 473 1053 b 476 1004 452 1001 465 1004 b 604 745 568 1004 591 822 b 616 577 612 700 616 641 b 581 230 616 456 602 319 b 529 135 565 161 547 135 b 455 259 500 135 472 203 b 339 760 397 453 385 574 b 0 984 281 995 194 981 b 206 284 79 827 184 475 b 395 -3 230 77 309 -3 z "},"W":{"ha":1222,"x_min":0,"x_max":0,"o":"m 775 -3 b 1027 214 865 -3 970 85 b 1188 867 1118 418 1188 739 b 977 1082 1188 1018 1070 1082 b 820 995 913 1082 852 1053 b 852 1002 831 1000 842 1002 b 1016 511 958 1002 1016 747 b 981 233 1016 407 1004 306 b 892 119 960 165 922 119 b 847 229 867 119 848 151 b 819 624 845 370 842 506 b 535 1025 789 789 707 1025 b 412 990 498 1025 457 1015 b 591 462 545 854 591 641 b 494 142 591 285 546 142 b 412 286 467 142 437 184 b 332 759 365 471 348 682 b 0 984 283 995 194 981 b 201 184 159 642 114 442 b 408 -1 242 60 325 -1 b 621 189 492 -1 578 62 b 775 -3 641 54 703 -3 z "},"X":{"ha":898,"x_min":0,"x_max":0,"o":"m 170 -57 b 347 -9 216 -57 273 -43 b 239 220 274 30 239 125 b 314 435 239 303 264 387 b 683 1 408 210 506 1 b 706 3 690 1 699 2 l 857 1 b 528 494 755 85 615 309 l 526 502 b 811 897 685 569 811 762 b 659 1035 811 976 767 1035 b 485 1000 613 1035 553 1023 b 592 774 557 961 592 868 b 506 549 592 686 562 597 b 241 963 432 730 358 901 b 81 991 199 985 135 991 b 0 986 46 991 16 988 b 290 494 102 903 203 681 l 293 487 b 20 96 139 416 20 229 b 170 -57 20 16 66 -57 z "},"Y":{"ha":757,"x_min":0,"x_max":0,"o":"m 321 -15 b 633 207 465 -15 616 47 b 680 713 652 370 627 557 b 726 891 703 777 726 831 b 544 1068 726 1019 635 1068 b 373 986 470 1067 397 1035 b 595 724 539 986 595 857 b 469 441 595 585 532 441 b 393 525 442 441 415 465 b 311 854 348 644 326 805 b 73 984 277 975 210 984 l 0 984 b 267 379 151 722 60 444 b 338 369 290 372 313 369 b 563 468 419 369 504 408 b 123 79 465 238 282 79 b 66 87 104 79 85 82 b 321 -15 96 26 206 -15 z "},"Z":{"ha":1023,"x_min":0,"x_max":0,"o":"m -10 -14 b 195 33 31 22 104 33 b 789 -12 368 33 606 -12 b 989 65 873 -12 989 -4 b 958 140 989 85 981 109 b 848 374 916 199 848 275 b 941 573 848 432 872 498 b 841 585 905 582 872 585 b 606 407 697 585 606 501 b 682 266 606 359 630 309 b 812 174 726 229 772 206 b 859 109 845 148 859 127 b 658 42 859 60 750 42 b 547 53 612 42 570 46 b 389 303 439 85 389 186 b 728 777 389 490 515 720 b 884 924 825 802 884 866 b 677 1034 884 983 823 1034 b 216 962 528 1034 323 962 b 105 1034 159 962 117 980 b 53 868 68 969 53 913 b 204 726 53 778 115 726 b 514 888 292 726 406 776 b 721 1000 594 970 667 1000 b 812 931 777 1000 812 968 b 621 831 812 886 758 835 b -10 -14 199 819 138 185 z "},"[":{"ha":466,"x_min":0,"x_max":0,"o":"m 398 -95 l 398 -52 l 249 -52 b 195 497 214 58 195 277 b 249 1045 195 717 214 937 l 398 1045 l 398 1088 l 0 1088 b 71 496 47 1008 71 753 b 0 -95 71 241 47 -15 z "},"\\":{"ha":760,"x_min":0,"x_max":0,"o":"m 0 1217 l 656 -243 l 692 -243 l 37 1217 z "},"]":{"ha":466,"x_min":0,"x_max":0,"o":"m 398 -95 b 328 496 351 -15 328 241 b 398 1088 328 753 351 1008 l 0 1088 l 0 1045 l 149 1045 b 203 497 184 937 203 717 b 149 -52 203 277 184 58 l 0 -52 l 0 -95 z "},"^":{"ha":380,"x_min":0,"x_max":0,"o":"m 283 368 b 312 412 302 374 312 391 b 261 513 312 442 294 481 b 155 570 224 551 189 569 b 0 412 87 570 0 479 b 28 368 0 391 9 374 b 156 446 104 420 130 446 b 283 368 182 446 208 420 z "},"_":{"ha":354,"x_min":0,"x_max":0,"o":"m 257 -1 b 286 32 276 -1 286 15 b 257 64 286 48 276 64 l 253 64 b 142 52 184 56 163 52 b 33 64 122 52 102 56 b 0 31 11 64 0 52 b 28 -1 0 15 9 -1 l 33 -1 b 142 11 102 7 122 11 b 253 -1 163 11 184 7 z "},"`":{"ha":258,"x_min":0,"x_max":0,"o":"m 163 755 b 191 765 174 755 183 759 l 121 1004 l 3 1004 b 0 972 1 994 0 983 b 163 755 0 861 101 755 z "},"a":{"ha":815,"x_min":0,"x_max":0,"o":"m 25 -153 b 281 167 141 -153 281 -43 b 273 260 281 196 278 227 b 256 350 268 288 262 317 b 498 94 334 264 428 254 b 661 -1 525 33 576 -1 l 774 -1 b 587 876 667 277 659 725 b 269 988 542 972 447 988 b 330 879 292 975 311 935 b -106 -77 130 680 109 -77 b 25 -153 -79 -128 -30 -153 z m 454 260 b 243 510 367 338 243 361 b 346 828 243 615 267 728 b 454 260 395 652 433 382 z "},"b":{"ha":786,"x_min":0,"x_max":0,"o":"m 321 -2 b 784 286 519 -2 737 70 b 789 334 787 302 789 319 b 557 530 789 457 675 530 b 491 522 535 530 513 528 b 676 690 557 569 637 623 b 712 804 701 734 712 772 b 404 991 712 945 525 991 b 117 983 313 991 215 983 b 3 988 79 983 41 985 b 54 616 40 951 54 795 b 0 -1 54 356 26 50 b 115 12 0 -1 39 12 b 219 5 144 12 179 10 b 321 -2 252 1 286 -2 z m 262 193 b 252 481 257 280 252 381 b 291 825 252 610 260 736 b 414 964 319 910 371 964 b 479 826 450 964 479 923 l 479 817 b 262 193 474 474 309 471 z m 304 42 l 273 42 b 480 445 278 132 341 445 b 573 309 534 445 573 392 b 304 42 573 192 492 42 z "},"c":{"ha":737,"x_min":0,"x_max":0,"o":"m 425 -3 b 673 215 553 -3 673 73 b 665 281 673 236 670 258 b 478 227 595 243 534 227 b 138 670 254 227 138 494 b 141 714 138 686 139 700 b 218 819 151 791 179 819 b 325 781 248 819 285 803 b 398 751 350 768 374 758 b 309 572 340 701 309 635 b 434 393 309 500 349 432 b 391 492 404 426 391 459 b 623 777 391 606 542 713 b 638 789 628 780 633 785 l 639 789 b 707 936 682 827 707 882 b 681 1027 707 967 699 999 b 524 962 627 969 524 962 b 465 959 505 960 486 959 b 138 1025 332 959 169 999 b 155 932 150 991 155 960 b 5 556 155 795 28 727 b 0 485 2 532 0 509 b 345 7 0 273 126 62 b 425 -3 372 0 399 -3 z "},"d":{"ha":757,"x_min":0,"x_max":0,"o":"m 0 0 b 155 8 51 5 102 8 b 297 1 202 8 249 5 b 276 62 281 14 276 36 b 399 5 311 22 354 5 b 700 218 515 5 646 113 b 767 508 744 304 767 406 b 366 992 767 751 637 992 l 345 991 b 45 975 244 989 146 975 l 3 976 b 54 611 40 941 54 787 b 0 0 54 355 26 52 z m 349 58 b 269 239 305 58 271 111 l 260 743 b 334 964 260 903 291 964 b 351 961 339 964 345 963 b 553 497 478 918 553 707 b 418 94 553 339 511 182 b 349 58 395 71 370 58 z "},"e":{"ha":759,"x_min":0,"x_max":0,"o":"m 439 -1 b 694 216 571 -1 694 75 b 686 283 694 237 691 259 b 496 227 620 248 555 227 b 279 381 406 227 328 273 b 253 490 262 419 253 458 b 300 560 253 531 269 560 b 375 527 319 560 344 551 b 582 440 448 471 524 440 b 688 556 645 440 688 476 b 675 645 688 581 684 610 b 562 590 640 603 602 590 b 399 621 509 590 453 613 b 362 623 386 622 374 623 b 215 475 258 623 215 557 b 231 385 215 446 220 416 b 142 672 172 474 142 585 b 225 820 142 773 176 820 b 335 783 256 820 294 804 b 505 737 397 751 454 737 b 728 936 642 737 728 837 b 701 1027 728 968 720 999 b 539 962 646 970 539 962 b 479 960 520 960 500 960 b 142 1026 342 960 174 999 b 160 933 155 991 160 961 b 5 557 160 795 29 728 b 0 486 2 534 0 510 b 356 9 0 274 130 64 b 439 -1 383 2 412 -1 z "},"f":{"ha":777,"x_min":0,"x_max":0,"o":"m 318 -1 b 244 457 268 64 251 266 b 292 522 251 504 268 522 b 373 484 314 522 342 507 b 578 396 451 428 523 396 b 689 551 646 396 689 444 b 686 602 689 566 688 583 b 569 547 650 559 610 547 b 367 579 503 547 433 579 b 242 529 325 579 267 569 b 240 733 240 604 240 676 l 240 809 b 263 903 240 878 248 903 b 500 737 302 903 386 743 l 515 737 b 747 941 656 737 747 840 b 722 1027 747 970 739 1000 b 463 942 655 962 564 942 b 11 987 313 942 142 987 b 64 513 42 861 64 610 b 64 456 64 467 64 456 l 64 456 b 13 46 63 292 45 134 l 0 -1 z "},"g":{"ha":833,"x_min":0,"x_max":0,"o":"m 362 -55 b 415 -50 380 -55 397 -54 b 716 88 566 -18 601 88 b 809 70 742 88 772 83 b 761 355 766 150 761 258 l 761 425 b 510 614 761 554 635 614 b 332 566 444 614 378 597 b 264 446 284 534 264 490 b 413 278 264 362 335 278 l 418 278 b 590 475 457 424 528 475 b 711 356 655 475 711 419 b 570 210 711 303 673 245 b 490 197 545 201 518 197 b 141 596 334 197 141 327 b 150 700 141 629 144 663 b 231 810 163 781 193 810 b 337 770 261 810 297 793 b 500 722 396 736 451 722 b 725 939 635 722 725 833 b 703 1027 725 970 718 1000 b 455 956 654 975 556 956 b 160 1025 330 956 202 986 b 174 939 170 994 174 964 b 6 534 174 787 38 718 b 0 453 2 509 0 481 b 362 -55 0 222 147 -55 z "},"h":{"ha":831,"x_min":0,"x_max":0,"o":"m 790 -1 l 780 36 b 725 458 741 133 725 292 b 779 988 725 659 748 868 l 477 988 b 551 584 526 924 551 776 b 549 467 551 547 551 507 b 218 640 385 559 218 479 b 313 988 218 706 246 812 l 10 988 b 65 492 45 860 65 682 b 9 33 65 307 47 122 l 0 -1 l 313 -1 b 239 503 266 61 241 295 b 541 195 313 384 541 370 b 477 -1 541 145 523 81 z "},"i":{"ha":350,"x_min":0,"x_max":0,"o":"m 309 -1 b 242 509 264 150 242 330 b 299 988 242 678 262 846 l 11 988 b 67 510 48 846 67 679 b 0 -1 67 330 45 149 z "},"j":{"ha":391,"x_min":0,"x_max":0,"o":"m 42 -163 b 311 101 161 -163 290 -90 b 317 220 315 140 317 180 b 280 739 317 401 280 587 b 350 988 280 841 296 928 l 52 988 b 114 605 92 939 114 783 b 44 92 114 427 92 227 b -132 -84 17 14 -37 -84 l -146 -83 b 42 -163 -108 -132 -35 -163 z "},"k":{"ha":835,"x_min":0,"x_max":0,"o":"m 613 -54 b 791 62 687 -54 765 -19 b 808 179 802 99 808 139 b 587 471 808 324 733 471 b 448 433 546 471 500 460 b 753 832 585 583 753 688 b 749 865 753 843 751 854 b 549 1009 734 949 640 991 b 557 956 555 992 557 975 b 258 232 557 770 309 501 b 250 485 254 315 250 401 b 372 987 250 680 273 867 b 200 961 309 968 252 961 b 12 984 130 961 67 973 b 55 558 41 924 55 747 b 0 -1 55 330 35 84 l 284 -1 b 278 64 280 20 278 42 b 453 399 278 198 352 344 b 526 420 479 414 505 420 b 629 294 589 420 629 366 b 457 39 629 215 580 113 b 613 -54 471 -20 541 -54 z "},"l":{"ha":764,"x_min":0,"x_max":0,"o":"m 543 -37 b 676 -5 595 -37 640 -28 b 730 80 715 20 730 49 b 534 509 730 191 534 334 b 598 678 534 563 551 619 b 487 694 557 689 520 694 b 284 536 359 694 284 623 b 378 371 284 482 314 422 b 520 273 428 333 475 309 b 612 124 587 222 612 169 b 475 3 612 54 550 3 b 329 77 427 3 374 25 b 216 525 258 160 216 340 b 345 988 216 703 255 885 l 10 988 b 51 589 39 937 51 771 b 0 1 51 339 28 58 b 103 8 34 6 68 8 b 543 -37 264 8 422 -37 z "},"m":{"ha":1086,"x_min":0,"x_max":0,"o":"m 44 -203 b 253 63 147 -203 253 -112 b 214 266 253 121 241 189 b 104 732 152 442 104 601 b 217 960 104 887 165 960 b 283 885 248 960 275 934 b 288 828 287 867 288 848 b 254 488 288 732 254 624 b 286 268 254 422 262 349 b 548 45 330 114 448 45 b 714 201 637 45 714 100 b 633 458 714 281 659 392 b 571 753 603 534 571 667 b 663 910 571 850 614 910 b 775 760 705 910 751 865 b 812 410 798 661 812 534 b 726 0 812 241 787 79 l 1045 0 b 981 511 1002 107 981 311 b 1031 980 981 692 998 872 b 941 965 1004 969 974 965 b 721 983 871 965 791 983 b 528 740 620 983 528 943 b 593 447 528 650 553 532 b 662 214 643 339 662 262 b 630 153 662 174 648 153 b 545 269 604 153 568 193 b 426 858 484 475 507 701 b 227 1009 379 949 301 1009 b 37 713 139 1008 56 924 b 28 454 29 633 28 543 l 28 363 b -88 -142 28 133 22 -81 b 44 -203 -52 -184 -4 -203 z "},"n":{"ha":892,"x_min":0,"x_max":0,"o":"m 88 -88 b 292 125 190 -88 292 -15 b 249 300 292 175 279 233 b 111 711 193 425 130 576 b 105 786 107 738 105 764 b 197 959 105 903 152 959 b 279 819 239 959 279 910 b 267 656 279 776 267 722 b 397 122 267 479 316 252 b 612 -29 454 30 538 -29 b 772 258 699 -29 772 52 b 752 643 772 346 752 500 b 859 962 752 790 774 925 b 724 1008 821 993 773 1008 b 522 814 623 1008 522 941 b 567 651 522 768 536 713 b 709 193 648 493 709 330 b 618 20 709 75 663 20 b 535 159 576 20 535 68 b 547 325 535 203 547 258 b 417 857 547 501 498 726 b 203 1008 360 949 277 1008 b 42 720 115 1008 42 927 b 64 304 42 629 64 460 b -46 -38 64 147 42 3 b 88 -88 -9 -72 39 -88 z "},"o":{"ha":927,"x_min":0,"x_max":0,"o":"m 467 -3 b 934 479 701 -3 934 158 b 488 1008 934 791 717 1008 b 229 901 399 1008 309 975 b 311 910 257 907 285 910 b 733 515 532 910 668 718 b 770 307 759 435 770 366 b 583 61 770 146 687 61 b 174 596 377 61 216 351 b 161 718 165 648 161 688 b 191 794 161 772 174 794 b 327 509 239 794 327 635 b 319 450 327 488 325 469 b 522 646 465 475 522 559 b 290 884 522 762 422 884 b 174 853 253 884 214 875 b 0 479 60 792 0 627 b 467 -3 0 158 233 -3 z "},"p":{"ha":707,"x_min":0,"x_max":0,"o":"m 282 -1 b 270 85 274 29 270 58 b 669 690 270 312 525 467 b 707 804 696 734 707 772 b 399 991 707 940 517 991 b 85 973 294 991 194 973 b 4 977 58 973 32 975 b 59 471 33 905 59 692 b 0 -1 59 296 43 117 l 189 0 z m 254 193 b 243 485 249 281 243 384 b 282 825 243 612 252 737 b 405 964 311 910 363 964 l 406 964 b 471 825 442 964 471 922 b 254 193 471 490 254 387 z "},"q":{"ha":927,"x_min":0,"x_max":0,"o":"m 236 -345 b 723 -174 361 -139 492 -199 b 865 -43 815 -164 865 -103 b 682 88 865 23 806 88 b 201 491 537 90 324 104 b 165 698 176 570 165 639 b 352 944 165 859 248 944 b 760 409 557 944 719 652 b 773 288 769 357 773 317 b 743 212 773 233 761 212 b 608 496 695 212 608 370 b 615 555 608 517 610 536 b 412 359 470 531 412 446 b 644 121 412 243 512 121 b 760 152 681 121 720 130 b 934 526 874 214 934 378 b 467 1008 934 848 701 1008 b 0 526 234 1008 0 848 b 442 1 0 226 193 1 b 639 46 505 1 572 15 b 709 64 667 59 691 64 b 765 14 747 64 765 42 b 609 -103 765 -35 710 -103 b 537 -93 587 -103 563 -100 b 304 -12 454 -71 391 -12 b 222 -28 279 -12 252 -16 b 117 -185 162 -51 117 -117 b 236 -345 117 -244 150 -306 z "},"r":{"ha":791,"x_min":0,"x_max":0,"o":"m 559 -39 b 764 186 701 -39 764 71 b 540 461 764 321 675 461 b 467 447 516 461 491 456 b 707 805 576 568 707 700 b 398 991 707 937 524 991 b 104 979 300 991 205 979 b 6 984 72 979 39 981 b 54 435 33 905 54 663 b 0 -1 54 244 39 63 l 188 0 l 282 -1 b 275 81 277 28 275 55 b 476 372 275 260 392 372 b 562 245 539 372 562 318 b 469 -25 562 146 517 19 b 559 -39 503 -34 532 -39 z m 254 193 b 243 481 248 280 243 381 b 282 825 243 610 252 736 b 405 964 311 910 363 964 b 471 826 441 964 471 923 b 254 193 467 477 299 466 z "},"s":{"ha":725,"x_min":0,"x_max":0,"o":"m 347 -14 b 725 319 572 -14 725 149 b 340 642 725 502 540 590 b 83 775 153 690 83 740 b 201 824 83 804 132 824 b 621 592 324 824 513 764 b 721 760 692 648 721 706 b 416 1000 721 886 568 991 b 389 1001 407 1001 397 1001 b 0 709 172 1001 0 854 b 168 498 0 631 50 553 b 442 376 250 459 356 422 b 567 205 533 327 567 263 b 418 48 567 121 494 48 b 261 269 340 48 261 141 b 292 400 261 311 271 356 b 201 423 262 416 231 423 b 16 239 101 423 16 344 b 45 132 16 205 24 170 b 347 -14 102 29 233 -14 z "},"t":{"ha":844,"x_min":0,"x_max":0,"o":"m 560 -14 b 471 521 519 131 471 352 b 595 760 471 657 503 760 b 817 904 733 760 817 833 b 577 1034 817 970 745 1034 b 155 968 429 1034 260 968 b 37 1042 98 968 56 986 b 0 896 12 987 0 938 b 165 730 0 791 70 730 b 448 888 250 730 355 779 b 640 996 517 968 586 996 b 744 918 701 996 744 958 b 562 827 744 873 693 827 b 206 -14 141 827 333 184 z "},"u":{"ha":759,"x_min":0,"x_max":0,"o":"m 362 -4 b 418 1 381 -4 400 -3 b 627 57 498 13 555 57 b 718 34 655 57 684 51 b 692 397 698 63 692 220 b 705 983 692 665 705 981 b 555 972 671 977 614 972 b 410 983 505 972 453 975 b 530 470 472 915 530 673 b 467 208 530 358 512 258 b 293 131 422 156 357 131 b 96 317 193 131 96 195 b 261 653 96 402 142 514 b 327 810 306 705 327 760 b 102 991 327 910 244 991 b 0 979 70 991 35 987 b 92 717 70 896 92 806 b 31 363 92 595 52 473 b 24 300 26 341 24 320 b 362 -4 24 112 193 -4 z "},"v":{"ha":837,"x_min":0,"x_max":0,"o":"m 395 -3 b 631 202 483 -3 579 83 b 803 875 722 416 803 746 b 598 1082 803 1014 695 1082 b 439 995 535 1082 473 1053 b 476 1004 452 1001 465 1004 b 604 745 568 1004 591 822 b 616 577 612 700 616 641 b 581 230 616 456 602 319 b 529 135 565 161 547 135 b 455 259 500 135 472 203 b 339 760 397 453 385 574 b 0 984 281 995 194 981 b 206 284 79 827 184 475 b 395 -3 230 77 309 -3 z "},"w":{"ha":1222,"x_min":0,"x_max":0,"o":"m 775 -3 b 1027 214 865 -3 970 85 b 1188 867 1118 418 1188 739 b 977 1082 1188 1018 1070 1082 b 820 995 913 1082 852 1053 b 852 1002 831 1000 842 1002 b 1016 511 958 1002 1016 747 b 981 233 1016 407 1004 306 b 892 119 960 165 922 119 b 847 229 867 119 848 151 b 819 624 845 370 842 506 b 535 1025 789 789 707 1025 b 412 990 498 1025 457 1015 b 591 462 545 854 591 641 b 494 142 591 285 546 142 b 412 286 467 142 437 184 b 332 759 365 471 348 682 b 0 984 283 995 194 981 b 201 184 159 642 114 442 b 408 -1 242 60 325 -1 b 621 189 492 -1 578 62 b 775 -3 641 54 703 -3 z "},"x":{"ha":898,"x_min":0,"x_max":0,"o":"m 170 -57 b 347 -9 216 -57 273 -43 b 239 220 274 30 239 125 b 314 435 239 303 264 387 b 683 1 408 210 506 1 b 706 3 690 1 699 2 l 857 1 b 528 494 755 85 615 309 l 526 502 b 811 897 685 569 811 762 b 659 1035 811 976 767 1035 b 485 1000 613 1035 553 1023 b 592 774 557 961 592 868 b 506 549 592 686 562 597 b 241 963 432 730 358 901 b 81 991 199 985 135 991 b 0 986 46 991 16 988 b 290 494 102 903 203 681 l 293 487 b 20 96 139 416 20 229 b 170 -57 20 16 66 -57 z "},"y":{"ha":757,"x_min":0,"x_max":0,"o":"m 321 -15 b 633 207 465 -15 616 47 b 680 713 652 370 627 557 b 726 891 703 777 726 831 b 544 1068 726 1019 635 1068 b 373 986 470 1067 397 1035 b 595 724 539 986 595 857 b 469 441 595 585 532 441 b 393 525 442 441 415 465 b 311 854 348 644 326 805 b 73 984 277 975 210 984 l 0 984 b 267 379 151 722 60 444 b 338 369 290 372 313 369 b 563 468 419 369 504 408 b 123 79 465 238 282 79 b 66 87 104 79 85 82 b 321 -15 96 26 206 -15 z "},"z":{"ha":1023,"x_min":0,"x_max":0,"o":"m -10 -14 b 195 33 31 22 104 33 b 789 -12 368 33 606 -12 b 989 65 873 -12 989 -4 b 958 140 989 85 981 109 b 848 374 916 199 848 275 b 941 573 848 432 872 498 b 841 585 905 582 872 585 b 606 407 697 585 606 501 b 682 266 606 359 630 309 b 812 174 726 229 772 206 b 859 109 845 148 859 127 b 658 42 859 60 750 42 b 547 53 612 42 570 46 b 389 303 439 85 389 186 b 728 777 389 490 515 720 b 884 924 825 802 884 866 b 677 1034 884 983 823 1034 b 216 962 528 1034 323 962 b 105 1034 159 962 117 980 b 53 868 68 969 53 913 b 204 726 53 778 115 726 b 514 888 292 726 406 776 b 721 1000 594 970 667 1000 b 812 931 777 1000 812 968 b 621 831 812 886 758 835 b -10 -14 199 819 138 185 z "},"{":{"ha":505,"x_min":0,"x_max":0,"o":"m 401 -95 b 437 -73 423 -95 437 -85 b 370 -20 437 -57 418 -37 b 301 88 312 1 301 39 b 304 184 301 117 304 149 b 163 429 304 261 286 349 b 94 497 117 459 94 478 b 163 564 94 515 117 534 b 304 810 286 644 304 732 b 301 905 304 844 301 877 b 370 1013 301 954 312 993 b 437 1066 418 1030 437 1051 b 401 1088 437 1079 423 1088 b 367 1082 391 1088 380 1086 b 11 519 35 969 181 752 b 0 497 4 509 0 503 b 11 475 0 491 4 485 b 367 -89 181 241 35 24 b 401 -95 380 -93 391 -95 z "},"|":{"ha":94,"x_min":0,"x_max":0,"o":"m 0 1217 l 0 -243 l 26 -243 l 26 1217 z "},"}":{"ha":505,"x_min":0,"x_max":0,"o":"m 37 -95 b 71 -89 46 -95 58 -93 b 427 475 402 24 256 241 b 437 497 434 485 437 491 b 427 519 437 503 434 509 b 71 1082 256 752 402 969 b 36 1088 58 1086 46 1088 b 1 1066 14 1088 1 1079 b 68 1013 1 1051 20 1030 b 136 905 125 993 136 954 b 133 810 136 877 133 844 b 275 564 133 732 152 644 b 343 497 321 534 343 515 b 275 429 343 478 321 459 b 133 184 152 349 133 261 b 136 88 133 149 136 117 b 68 -20 136 39 125 1 b 0 -73 20 -37 0 -57 b 37 -95 0 -85 14 -95 z "},"~":{"ha":494,"x_min":0,"x_max":0,"o":"m 333 361 b 424 427 376 361 410 376 b 426 441 425 432 426 437 b 404 458 426 452 419 458 b 347 452 390 458 370 452 b 94 498 269 452 167 498 b 5 437 52 498 19 484 b 0 414 1 427 0 419 b 16 401 0 404 5 401 b 80 406 33 401 48 405 b 333 361 158 406 260 361 z "},"¡":{"ha":466,"x_min":0,"x_max":0,"o":"m 111 711 b 0 227 111 650 0 372 b 2 197 0 216 1 206 b 214 -2 21 64 115 -2 b 398 84 279 -2 347 26 b 184 711 235 161 214 574 z m 149 1000 b 47 899 93 1000 47 954 b 149 797 47 842 93 797 b 250 899 204 797 250 842 b 149 1000 250 954 204 1000 z "},"¢":{"ha":774,"x_min":0,"x_max":0,"o":"m 290 304 l 355 450 b 434 393 375 428 401 409 b 401 443 419 410 408 426 b 391 492 395 459 391 475 b 412 569 391 518 398 544 b 466 642 427 594 444 618 b 535 707 488 665 511 687 b 602 762 559 727 581 745 b 622 777 610 767 616 772 b 638 789 627 780 633 785 l 639 789 b 689 857 661 809 677 831 b 707 936 701 882 707 909 b 680 1027 707 967 698 998 b 633 993 667 1013 651 1002 b 591 975 618 985 604 979 l 699 1217 l 663 1217 l 550 966 l 541 964 b 525 962 532 964 527 963 l 524 962 b 465 959 505 960 486 959 b 266 981 398 959 332 966 b 138 1025 199 996 157 1011 b 155 932 149 991 155 960 b 135 839 155 898 148 867 b 87 755 121 811 106 783 b 38 667 70 728 54 699 b 5 556 22 635 11 598 b 0 485 1 532 0 509 b 41 279 0 414 14 345 b 159 109 68 214 107 157 b 163 104 160 106 161 105 l 7 -243 l 44 -243 l 190 81 b 345 7 235 47 286 22 b 425 -3 372 0 399 -3 b 546 22 468 -3 508 5 b 637 96 583 39 614 63 b 673 215 661 127 673 168 b 665 281 673 236 670 258 b 566 240 630 262 597 249 b 478 227 535 231 506 227 b 357 256 433 227 393 237 b 290 304 332 269 310 285 z m 333 482 l 264 329 b 262 332 263 330 262 331 b 193 438 234 364 212 399 b 153 557 175 477 161 517 b 138 670 143 597 138 635 b 141 714 138 686 139 700 b 169 795 146 753 155 780 b 218 819 182 811 198 819 b 268 809 233 819 250 816 b 325 781 286 802 304 793 b 398 751 350 768 374 758 b 332 666 369 726 347 697 b 309 572 317 635 309 604 b 333 482 309 541 317 510 z "},"£":{"ha":866,"x_min":0,"x_max":0,"o":"m 755 -53 b 787 48 777 -22 787 13 b 566 250 787 149 704 250 b 416 214 522 250 471 239 b 313 183 376 197 341 183 b 237 293 271 183 242 212 l 236 315 b 247 409 236 344 240 376 b 327 399 267 406 292 404 l 333 399 b 369 441 357 399 369 420 b 332 484 369 463 357 484 l 327 484 l 266 476 b 586 759 316 618 427 759 b 785 692 646 759 713 739 b 798 773 794 721 798 748 b 545 991 798 912 675 991 b 484 986 524 991 503 989 b 109 496 250 942 109 720 l 109 475 l 42 484 l 37 484 b 0 441 12 484 0 463 b 37 399 0 420 12 399 l 42 399 b 117 408 75 403 99 406 b 237 89 146 276 237 203 b 214 -18 237 57 231 22 b 496 30 243 4 374 30 b 602 22 534 30 570 28 b 755 -53 602 22 705 8 z "},"¤":{"ha":587,"x_min":0,"x_max":0,"o":"m 437 132 l 372 278 b 498 385 427 298 474 334 b 519 487 512 416 519 452 b 498 589 519 522 512 558 b 372 696 474 641 427 676 l 437 843 l 401 843 l 340 707 b 260 716 314 713 286 716 b 179 707 233 716 206 713 l 118 843 l 81 843 l 148 696 b 31 605 98 678 54 648 b 0 487 10 570 0 528 b 31 368 0 446 10 404 b 148 278 54 326 98 295 l 81 132 l 118 132 l 179 268 b 260 258 206 261 233 258 b 340 268 286 258 314 261 l 401 132 z m 260 527 l 189 685 b 260 702 208 696 231 702 b 330 685 288 702 312 696 z m 163 312 b 129 396 148 332 136 359 b 120 488 123 425 120 456 b 129 578 120 519 123 550 b 163 662 136 615 148 642 l 241 487 z m 356 313 l 277 487 l 356 662 b 390 577 372 642 382 614 b 399 488 396 549 399 518 b 390 397 399 456 396 426 b 356 313 382 360 372 332 z m 260 272 b 189 289 231 272 208 278 l 260 447 l 330 290 b 260 272 312 278 288 272 z "},"¥":{"ha":803,"x_min":0,"x_max":0,"o":"m 642 355 l 642 390 b 649 556 642 446 644 501 b 680 713 653 611 663 663 b 690 743 683 723 687 733 b 715 818 701 768 709 793 b 726 891 722 842 726 866 b 700 994 726 934 718 968 b 631 1050 682 1020 659 1039 b 544 1068 604 1062 574 1068 b 440 1046 506 1067 471 1060 b 373 986 408 1031 386 1011 b 478 964 414 986 450 979 b 547 905 507 949 530 930 b 584 821 564 880 576 852 b 595 724 591 790 595 758 b 577 589 595 677 589 633 b 530 483 565 546 549 511 b 469 441 510 455 490 441 b 429 461 455 441 442 448 b 393 525 416 474 404 496 b 355 654 378 566 365 609 b 328 777 345 699 336 740 b 311 854 322 811 316 837 b 265 941 300 893 285 922 b 189 977 245 960 220 972 b 73 984 157 981 118 984 l 0 984 b 68 819 31 928 54 873 b 102 662 83 764 94 711 b 130 536 110 616 119 574 b 177 439 140 498 156 466 b 267 379 198 412 228 392 b 338 369 290 372 314 369 b 563 468 419 369 494 402 b 501 350 545 426 524 386 l 399 362 b 372 349 387 362 378 358 b 362 319 366 340 362 330 b 372 290 362 309 366 298 b 399 276 378 281 387 276 l 454 282 b 429 251 446 271 437 261 l 399 254 b 372 241 387 254 378 250 b 362 212 366 233 362 222 b 368 189 362 203 364 196 b 364 186 366 188 366 186 b 123 79 283 115 203 79 b 66 87 104 79 85 82 b 163 13 83 56 115 31 b 321 -15 211 -5 264 -15 b 461 7 369 -15 416 -7 b 576 78 507 22 545 45 b 628 175 602 104 618 136 l 638 175 l 699 168 b 726 182 711 168 720 173 b 735 211 732 191 735 200 b 692 254 735 239 721 254 l 637 248 l 640 283 l 699 276 b 726 290 711 276 720 281 b 735 319 732 298 735 308 b 692 361 735 347 721 361 z "},"¦":{"ha":94,"x_min":0,"x_max":0,"o":"m 26 561 l 26 1217 l 0 1217 l 0 561 z m 26 -243 l 26 412 l 0 412 l 0 -243 z "},"§":{"ha":944,"x_min":0,"x_max":0,"o":"m 296 -1 b 573 140 422 -1 520 58 b 876 422 754 149 876 282 l 876 437 b 549 696 867 586 699 657 b 331 809 391 736 331 779 b 431 850 331 834 372 850 b 788 654 536 850 696 800 b 873 797 848 701 873 750 b 614 1001 873 903 743 994 l 589 1002 b 295 859 459 1002 349 939 b 0 612 128 844 0 728 b 142 432 0 545 42 479 b 376 329 212 400 303 369 b 482 185 453 288 482 234 b 356 52 482 113 420 52 b 290 76 334 52 311 59 b 222 239 251 111 222 171 b 249 350 222 275 230 313 b 171 370 222 363 196 370 b 14 214 87 370 14 302 b 39 122 14 184 22 154 b 235 3 76 56 154 16 b 296 -1 256 0 276 -1 z m 616 192 b 600 193 611 192 606 193 b 616 280 610 221 616 250 l 615 296 b 289 555 608 446 439 516 b 71 668 130 595 71 638 b 170 710 71 693 111 710 l 171 710 b 271 696 201 710 235 706 b 404 574 290 650 332 607 b 636 471 472 541 564 509 b 742 326 713 429 742 375 b 616 192 742 254 680 192 z "},"¨":{"ha":474,"x_min":0,"x_max":0,"o":"m 86 844 b 173 930 134 844 173 883 b 86 1017 173 979 134 1017 b 0 930 39 1017 0 979 b 86 844 0 883 39 844 z m 319 844 b 406 930 367 844 406 883 b 319 1017 406 979 367 1017 b 233 930 272 1017 233 979 b 319 844 233 883 272 844 z "},"©":{"ha":1189,"x_min":0,"x_max":0,"o":"m 559 -1 b 1075 273 766 -1 991 90 b 1121 493 1105 340 1121 416 b 1075 713 1121 569 1105 646 b 559 987 991 895 766 987 b 65 748 370 987 155 907 b 0 493 22 671 0 582 b 65 238 0 404 22 314 b 559 -1 155 79 370 -1 z m 560 30 b 279 295 399 30 318 109 b 260 493 266 357 260 425 b 279 690 260 561 266 629 b 560 957 318 878 399 957 b 843 687 722 957 803 876 b 862 493 856 626 862 559 b 843 298 862 426 856 359 b 560 30 803 111 722 30 z m 617 149 b 780 300 701 149 780 203 b 772 357 780 318 777 337 b 583 300 698 317 635 300 b 397 491 459 300 397 395 b 585 685 397 588 460 685 b 772 629 637 685 699 669 b 780 685 777 649 780 668 b 618 837 780 782 702 837 b 579 833 606 837 592 836 b 341 493 420 800 341 646 b 579 153 341 339 420 186 b 617 149 591 151 604 149 z "},"ª":{"ha":625,"x_min":0,"x_max":0,"o":"m 94 328 b 254 519 168 328 254 395 b 250 572 254 536 253 553 l 273 555 b 319 524 289 546 306 536 b 339 494 328 515 334 505 b 342 484 340 491 340 488 b 457 397 360 428 396 397 l 543 397 b 555 406 549 397 553 401 b 557 411 556 408 557 409 b 553 420 557 414 555 418 b 448 801 492 494 453 704 b 235 987 443 965 387 987 b 221 977 229 987 222 983 l 220 973 b 227 962 220 969 223 964 b 252 916 237 956 247 931 b 151 675 199 860 170 747 b 102 493 136 615 122 551 b 47 407 94 470 75 413 b 41 406 45 406 43 406 b 21 412 34 406 27 409 b 14 414 19 414 16 414 b 6 412 12 414 8 414 b 0 401 2 409 0 406 l 1 397 b 94 328 15 350 52 328 z m 320 593 b 234 684 283 616 250 629 l 233 707 b 272 852 233 759 244 807 b 320 593 293 768 306 678 z "},"º":{"ha":591,"x_min":0,"x_max":0,"o":"m 290 393 b 463 488 352 393 414 421 b 523 680 504 543 523 611 b 511 775 523 711 519 744 b 266 991 474 926 370 991 l 264 991 b 0 718 133 991 0 887 b 11 631 0 690 3 661 b 290 393 43 499 168 393 z m 293 484 b 330 588 316 513 330 551 b 311 656 330 612 323 636 b 201 713 287 697 245 713 l 180 711 b 170 703 176 711 172 708 b 168 697 168 701 168 699 b 170 690 168 695 168 692 b 186 611 182 668 186 637 b 176 537 186 587 182 560 b 161 505 174 531 167 511 b 142 597 150 518 142 584 b 140 637 140 609 140 623 b 258 934 140 741 168 898 b 288 939 268 937 279 939 b 296 939 291 939 294 939 b 361 884 327 935 349 910 b 387 748 382 844 387 794 l 387 724 b 293 484 383 653 357 530 z "},"¹":{"ha":300,"x_min":0,"x_max":0,"o":"m 218 397 b 231 405 224 397 229 400 l 233 410 b 229 420 233 414 231 417 b 191 692 203 454 191 573 b 229 965 191 812 203 931 b 233 974 231 968 233 971 b 230 982 233 977 231 980 b 218 987 227 985 222 987 b 213 987 216 987 215 987 b 14 934 155 963 77 934 b 1 924 7 934 2 930 l 0 920 b 7 907 0 915 3 910 b 56 662 47 884 56 705 l 56 651 b 20 420 56 591 51 459 b 17 412 18 417 17 414 b 18 405 17 409 18 407 b 31 397 21 400 26 397 z "},"²":{"ha":498,"x_min":0,"x_max":0,"o":"m 391 391 b 404 400 397 391 401 395 b 431 502 418 428 431 466 b 396 578 431 531 421 559 b 345 594 381 589 363 594 b 299 585 330 594 314 591 b 186 498 255 570 217 534 b 120 446 170 476 146 454 b 101 443 115 445 108 443 b 85 449 94 443 89 444 b 83 457 83 451 83 454 b 90 479 83 465 87 473 b 157 545 104 504 134 528 b 431 782 258 614 421 627 l 431 791 b 429 817 431 800 430 808 b 344 952 422 871 389 920 b 203 995 302 981 253 995 b 161 991 189 995 174 994 b 18 905 105 984 47 956 b 0 838 5 883 0 860 b 118 719 0 772 54 719 b 178 734 137 719 157 724 b 184 746 182 737 184 741 b 183 752 184 748 184 750 b 168 821 173 773 168 798 b 208 919 168 859 180 895 b 243 932 219 928 231 932 b 313 856 279 932 313 896 b 311 840 313 850 313 845 b 203 745 304 809 229 763 b 37 585 140 701 78 652 b 4 486 15 550 4 515 b 121 391 4 431 41 391 l 134 391 b 210 404 159 393 184 398 b 339 432 234 410 298 432 b 366 426 351 432 360 430 b 378 403 373 420 376 412 b 390 391 379 397 385 393 z "},"³":{"ha":528,"x_min":0,"x_max":0,"o":"m 241 397 b 418 508 316 397 381 438 b 441 594 433 536 441 566 b 357 719 441 648 412 696 b 460 882 423 758 460 824 b 326 995 460 943 419 994 l 315 995 b 260 989 296 994 277 991 b 126 962 214 982 171 970 b 82 957 115 960 98 957 b 46 966 68 957 55 959 b 35 985 40 971 37 977 b 20 995 33 991 26 995 b 7 983 14 995 9 989 b 0 924 3 965 0 945 b 40 830 0 888 9 852 b 97 813 58 817 76 813 l 105 813 b 103 812 104 812 104 812 b 95 802 99 810 96 807 b 92 770 93 791 92 780 b 172 671 92 714 126 688 b 152 673 165 672 159 673 b 36 568 92 673 37 634 b 43 522 36 553 39 536 b 212 399 67 452 141 408 b 241 397 221 398 231 397 z m 215 783 b 116 812 182 783 149 793 b 110 813 113 812 112 813 b 266 893 168 819 230 861 b 361 950 277 903 334 950 b 372 947 366 950 370 949 b 378 929 376 943 378 937 b 373 903 378 920 375 909 b 326 830 363 876 347 849 b 215 783 292 798 254 783 z m 287 479 b 221 517 264 479 240 490 b 201 581 207 536 201 559 b 215 641 201 602 206 622 b 216 647 216 643 216 645 b 216 652 216 648 216 650 b 209 660 214 655 212 659 b 208 661 208 660 208 661 b 344 621 256 648 307 641 b 379 567 369 607 379 587 b 287 479 379 525 334 479 z "},"«":{"ha":529,"x_min":0,"x_max":0,"o":"m 230 108 b 277 151 253 108 277 127 b 270 173 277 158 275 165 b 107 481 161 320 107 401 b 270 790 107 563 161 644 b 277 812 275 798 277 805 b 230 855 277 835 253 854 b 197 832 216 855 203 848 b 7 504 125 666 115 650 b 0 481 3 497 0 490 b 7 459 0 474 3 467 b 197 131 115 313 125 297 b 230 108 203 115 216 108 z m 414 108 b 461 151 437 108 461 127 b 453 173 461 157 459 165 b 291 481 345 320 291 401 b 453 790 291 563 345 644 b 461 812 458 798 461 805 b 414 855 461 836 437 854 b 380 832 400 855 387 848 b 192 504 309 666 300 650 b 184 481 187 497 184 490 b 192 459 184 474 187 467 b 380 131 300 313 309 297 b 414 108 387 115 400 108 z "},"®":{"ha":1188,"x_min":0,"x_max":0,"o":"m 559 -1 b 1074 273 765 -1 991 90 b 1120 493 1105 340 1120 416 b 1074 713 1120 569 1105 646 b 559 987 991 895 765 987 b 64 748 370 987 155 907 b 0 493 22 671 0 582 b 64 238 0 404 22 314 b 559 -1 155 79 370 -1 z m 559 30 b 279 295 398 30 318 109 b 258 493 265 357 258 425 b 279 690 258 561 265 629 b 317 810 288 737 301 777 b 387 446 368 763 387 598 b 352 166 387 317 373 198 b 522 165 408 166 465 166 b 517 219 519 184 517 202 b 639 412 517 338 588 412 b 689 338 667 412 689 389 b 635 149 689 295 674 233 b 695 125 654 133 675 125 b 812 281 755 125 812 192 b 801 351 812 303 808 327 b 677 471 776 431 729 471 b 633 460 663 471 648 467 b 753 622 674 511 720 562 b 777 696 770 650 777 675 b 595 820 777 783 666 820 l 592 820 b 403 808 529 820 469 808 b 319 815 376 808 349 810 b 559 957 365 913 441 957 b 842 687 722 957 803 876 b 861 493 855 626 861 559 b 842 298 861 426 855 359 b 559 30 803 111 722 30 z m 505 294 b 498 483 502 351 498 417 b 522 710 498 568 504 652 b 595 802 539 766 570 802 b 635 709 618 802 635 774 l 635 705 b 505 294 632 479 532 476 z "},"¯":{"ha":354,"x_min":0,"x_max":0,"o":"m 257 932 b 286 965 276 932 286 948 b 257 998 286 981 276 998 l 253 998 b 142 985 184 989 163 985 b 33 998 122 985 102 989 b 0 964 11 998 0 985 b 28 932 0 948 9 932 l 33 932 b 142 944 102 940 122 944 b 253 932 163 944 184 940 z "},"°":{"ha":410,"x_min":0,"x_max":0,"o":"m 171 694 b 342 865 266 694 342 770 b 171 1037 342 960 266 1037 b 0 865 76 1037 0 960 b 171 694 0 770 76 694 z m 171 743 b 102 865 133 743 102 798 b 171 987 102 933 133 987 b 240 865 210 987 240 933 b 171 743 240 798 210 743 z "},"±":{"ha":354,"x_min":0,"x_max":0,"o":"m 143 161 b 176 189 159 161 176 170 b 165 283 172 239 167 266 b 253 272 182 281 207 277 l 257 272 b 286 305 276 272 286 288 b 257 338 286 321 276 338 l 253 338 l 165 327 b 176 420 167 344 172 370 b 144 448 176 439 160 448 b 111 420 127 448 111 440 b 121 327 113 370 119 343 l 33 338 l 28 338 b 0 305 9 338 0 321 b 28 272 0 288 9 272 l 33 272 b 121 283 79 277 104 281 b 111 189 119 265 113 239 b 143 161 111 170 127 161 z m 257 53 b 286 86 276 53 286 69 b 257 119 286 102 276 119 l 253 119 b 142 106 184 111 163 106 b 33 119 122 106 102 111 b 0 85 11 119 0 106 b 28 53 0 69 9 53 l 33 53 b 142 65 102 61 122 65 b 253 53 163 65 184 61 z "},"´":{"ha":258,"x_min":0,"x_max":0,"o":"m 27 755 b 191 972 89 755 191 861 b 188 1004 191 983 190 994 l 69 1004 l 0 765 b 27 755 7 759 17 755 z "},"·":{"ha":270,"x_min":0,"x_max":0,"o":"m 101 375 b 202 477 157 375 202 421 b 101 578 202 532 157 578 b 0 477 45 578 0 532 b 101 375 0 421 45 375 z "},"∙":{"ha":270,"x_min":0,"x_max":0,"o":"m 101 375 b 202 477 157 375 202 421 b 101 578 202 532 157 578 b 0 477 45 578 0 532 b 101 375 0 421 45 375 z "},"¸":{"ha":303,"x_min":0,"x_max":0,"o":"m 100 -262 b 235 -125 170 -262 235 -197 b 175 -29 235 -87 215 -43 l 175 30 b 140 50 175 43 157 50 b 105 30 123 50 105 43 l 105 -47 b 121 -69 105 -63 108 -60 b 193 -169 173 -104 193 -140 b 143 -218 193 -198 172 -218 b 33 -132 111 -218 69 -195 b 0 -182 9 -144 0 -163 b 100 -262 0 -229 54 -262 z "},"»":{"ha":529,"x_min":0,"x_max":0,"o":"m 231 108 b 264 131 245 108 258 115 b 454 459 336 297 346 313 b 461 481 458 467 461 474 b 454 504 461 490 458 497 b 264 832 346 650 336 666 b 231 855 258 848 245 855 b 184 812 208 854 184 835 b 191 790 184 805 186 798 b 354 481 300 644 354 563 b 191 173 354 401 300 320 b 184 151 186 165 184 158 b 231 108 184 127 208 108 z m 47 108 b 81 131 60 108 73 115 b 269 459 153 297 161 313 b 277 481 274 467 277 474 b 269 504 277 490 274 497 b 81 832 161 650 153 666 b 47 855 74 848 61 855 b 0 812 24 854 0 836 b 8 790 0 805 2 798 b 170 481 116 644 170 563 b 8 173 170 401 116 320 b 0 151 2 165 0 157 b 47 108 0 127 24 108 z "},"¿":{"ha":778,"x_min":0,"x_max":0,"o":"m 489 771 b 467 758 478 771 469 767 b 1 326 401 551 19 622 l 0 309 b 377 -2 0 150 153 -2 b 448 3 400 -2 424 -1 b 680 134 545 16 636 60 b 710 235 701 169 710 203 b 526 407 710 332 625 407 b 433 385 495 407 464 400 b 465 263 455 344 465 302 b 383 83 465 187 430 121 b 307 56 359 64 333 56 b 157 203 231 56 157 124 b 162 237 157 214 159 225 b 551 694 187 329 551 493 b 549 720 551 703 550 711 b 489 771 543 753 511 771 z m 508 1002 b 407 901 452 1002 407 957 b 508 800 407 845 452 800 b 609 901 564 800 609 845 b 508 1002 609 957 564 1002 z "},"À":{"ha":815,"x_min":0,"x_max":0,"o":"m 25 -153 b 281 167 141 -153 281 -43 b 273 260 281 196 278 227 b 256 350 268 288 262 317 b 498 94 334 264 428 254 b 661 -1 525 33 576 -1 l 774 -1 b 587 876 667 277 659 725 b 269 988 542 972 447 988 b 330 879 292 975 311 935 b -106 -77 130 680 109 -77 b 25 -153 -79 -128 -30 -153 z m 454 260 b 243 510 367 338 243 361 b 346 828 243 615 267 728 b 454 260 395 652 433 382 z m 348 1105 b 511 1322 410 1105 511 1211 b 509 1354 511 1333 511 1343 l 390 1354 l 321 1115 b 348 1105 328 1109 338 1105 z "},"Á":{"ha":815,"x_min":0,"x_max":0,"o":"m 25 -153 b 281 167 141 -153 281 -43 b 273 260 281 196 278 227 b 256 350 268 288 262 317 b 498 94 334 264 428 254 b 661 -1 525 33 576 -1 l 774 -1 b 587 876 667 277 659 725 b 269 988 542 972 447 988 b 330 879 292 975 311 935 b -106 -77 130 680 109 -77 b 25 -153 -79 -128 -30 -153 z m 454 260 b 243 510 367 338 243 361 b 346 828 243 615 267 728 b 454 260 395 652 433 382 z m 425 1105 b 452 1115 435 1105 445 1109 l 383 1354 l 264 1354 b 262 1322 262 1343 262 1333 b 425 1105 262 1211 363 1105 z "},"Â":{"ha":815,"x_min":0,"x_max":0,"o":"m 25 -153 b 281 167 141 -153 281 -43 b 273 260 281 196 278 227 b 256 350 268 288 262 317 b 498 94 334 264 428 254 b 661 -1 525 33 576 -1 l 774 -1 b 587 876 667 277 659 725 b 269 988 542 972 447 988 b 330 879 292 975 311 935 b -106 -77 130 680 109 -77 b 25 -153 -79 -128 -30 -153 z m 454 260 b 243 510 367 338 243 361 b 346 828 243 615 267 728 b 454 260 395 652 433 382 z m 511 1152 b 540 1197 530 1159 540 1175 b 489 1298 540 1227 522 1265 b 383 1354 452 1335 417 1354 b 228 1196 315 1354 228 1263 b 256 1152 228 1175 237 1159 b 384 1230 332 1204 358 1230 b 511 1152 410 1230 435 1204 z "},"Ã":{"ha":815,"x_min":0,"x_max":0,"o":"m 25 -153 b 281 167 141 -153 281 -43 b 273 260 281 196 278 227 b 256 350 268 288 262 317 b 498 94 334 264 428 254 b 661 -1 525 33 576 -1 l 774 -1 b 587 876 667 277 659 725 b 269 988 542 972 447 988 b 330 879 292 975 311 935 b -106 -77 130 680 109 -77 b 25 -153 -79 -128 -30 -153 z m 454 260 b 243 510 367 338 243 361 b 346 828 243 615 267 728 b 454 260 395 652 433 382 z m 540 1209 b 631 1275 583 1209 617 1225 b 633 1289 632 1280 633 1285 b 610 1307 633 1301 626 1307 b 554 1301 597 1307 576 1301 b 300 1347 475 1301 374 1347 b 212 1286 258 1347 226 1333 b 207 1262 208 1276 207 1267 b 223 1250 207 1253 212 1250 b 287 1255 239 1250 255 1253 b 540 1209 365 1255 467 1209 z "},"Ä":{"ha":815,"x_min":0,"x_max":0,"o":"m 25 -153 b 281 167 141 -153 281 -43 b 273 260 281 196 278 227 b 256 350 268 288 262 317 b 498 94 334 264 428 254 b 661 -1 525 33 576 -1 l 774 -1 b 587 876 667 277 659 725 b 269 988 542 972 447 988 b 330 879 292 975 311 935 b -106 -77 130 680 109 -77 b 25 -153 -79 -128 -30 -153 z m 454 260 b 243 510 367 338 243 361 b 346 828 243 615 267 728 b 454 260 395 652 433 382 z m 285 1185 b 372 1272 332 1185 372 1225 b 285 1359 372 1320 332 1359 b 199 1272 237 1359 199 1320 b 285 1185 199 1225 237 1185 z m 518 1185 b 605 1272 566 1185 605 1225 b 518 1359 605 1320 566 1359 b 432 1272 471 1359 432 1320 b 518 1185 432 1225 471 1185 z "},"Å":{"ha":815,"x_min":0,"x_max":0,"o":"m 25 -153 b 281 167 141 -153 281 -43 b 273 260 281 196 278 227 b 256 350 268 288 262 317 b 498 94 334 264 428 254 b 661 -1 525 33 576 -1 l 774 -1 b 587 876 667 277 659 725 b 269 988 542 972 447 988 b 330 879 292 975 311 935 b -106 -77 130 680 109 -77 b 25 -153 -79 -128 -30 -153 z m 454 260 b 243 510 367 338 243 361 b 346 828 243 615 267 728 b 454 260 395 652 433 382 z m 397 1154 b 515 1273 463 1154 515 1207 b 397 1392 515 1339 463 1392 b 279 1273 331 1392 279 1339 b 397 1154 279 1207 331 1154 z m 397 1189 b 349 1273 370 1189 349 1227 b 397 1357 349 1320 370 1357 b 444 1273 423 1357 444 1320 b 397 1189 444 1227 423 1189 z "},"Ā":{"ha":815,"x_min":0,"x_max":0,"o":"m 25 -153 b 281 167 141 -153 281 -43 b 273 260 281 196 278 227 b 256 350 268 288 262 317 b 498 94 334 264 428 254 b 661 -1 525 33 576 -1 l 774 -1 b 587 876 667 277 659 725 b 269 988 542 972 447 988 b 330 879 292 975 311 935 b -106 -77 130 680 109 -77 b 25 -153 -79 -128 -30 -153 z m 454 260 b 243 510 367 338 243 361 b 346 828 243 615 267 728 b 454 260 395 652 433 382 z m 510 1274 b 539 1307 529 1274 539 1290 b 510 1339 539 1323 529 1339 l 506 1339 b 395 1327 437 1331 416 1327 b 286 1339 375 1327 355 1331 b 253 1306 264 1339 253 1327 b 281 1274 253 1290 262 1274 l 286 1274 b 395 1286 355 1282 375 1286 b 506 1274 416 1286 437 1282 z "},"Ă":{"ha":815,"x_min":0,"x_max":0,"o":"m 25 -153 b 281 167 141 -153 281 -43 b 273 260 281 196 278 227 b 256 350 268 288 262 317 b 498 94 334 264 428 254 b 661 -1 525 33 576 -1 l 774 -1 b 587 876 667 277 659 725 b 269 988 542 972 447 988 b 330 879 292 975 311 935 b -106 -77 130 680 109 -77 b 25 -153 -79 -128 -30 -153 z m 454 260 b 243 510 367 338 243 361 b 346 828 243 615 267 728 b 454 260 395 652 433 382 z m 383 1187 b 500 1291 440 1187 500 1226 b 449 1351 500 1322 482 1351 b 430 1348 443 1351 437 1350 b 438 1289 436 1326 438 1306 b 385 1207 438 1234 412 1207 b 329 1291 357 1207 329 1236 b 337 1348 329 1308 332 1326 b 317 1351 330 1350 323 1351 b 266 1291 285 1351 266 1321 b 383 1187 266 1226 328 1187 z "},"Ą":{"ha":815,"x_min":0,"x_max":0,"o":"m 454 260 b 243 510 367 338 243 361 b 346 828 243 615 267 728 b 454 260 395 652 433 382 z m 656 -1 b 670 -52 659 -18 664 -35 b 738 -146 683 -89 705 -121 b 871 -191 770 -173 814 -187 b 905 -178 886 -191 897 -186 b 915 -149 911 -169 915 -159 b 905 -121 915 -139 911 -130 b 878 -108 899 -112 890 -108 b 864 -110 873 -108 869 -109 b 821 -117 848 -115 834 -117 b 731 -67 782 -117 752 -100 b 704 -1 718 -48 709 -26 l 774 -1 b 707 252 747 76 724 160 b 662 522 690 343 675 433 b 629 730 652 599 641 668 b 587 876 618 791 604 840 b 524 948 572 908 551 932 b 420 981 496 964 462 975 b 269 988 379 985 328 988 b 330 879 292 972 312 937 b 218 673 286 831 248 763 b 134 387 187 583 159 488 b 86 214 118 327 102 269 b 34 66 70 159 52 110 b -28 -38 16 22 -5 -12 b -106 -77 -51 -64 -77 -77 b -51 -134 -92 -102 -74 -121 b 25 -153 -28 -147 -3 -153 b 114 -133 54 -153 83 -146 b 197 -72 144 -119 172 -99 b 258 28 222 -45 242 -12 b 281 167 273 68 281 115 b 273 260 281 196 278 227 l 267 294 b 256 350 263 311 260 330 b 341 279 283 321 312 298 b 423 211 369 260 396 237 b 498 94 450 184 475 144 b 558 24 511 63 532 39 b 656 -1 583 8 616 0 z "},"Æ":{"ha":1427,"x_min":0,"x_max":0,"o":"m 143 -124 b 399 187 259 -124 399 -17 b 390 277 399 216 396 245 b 378 347 387 299 382 322 b 594 152 452 260 558 250 b 600 135 595 146 597 140 b 780 -2 626 56 671 -2 l 931 -2 b 906 33 922 9 914 20 b 1293 -54 1043 22 1204 33 b 1345 79 1330 -11 1345 36 b 1201 238 1345 166 1282 238 b 1088 191 1165 238 1126 224 b 899 78 1034 145 951 78 b 879 82 891 78 884 79 b 765 472 828 186 789 336 b 821 522 775 507 795 522 b 924 483 849 522 884 506 b 1183 395 1022 427 1113 395 b 1323 550 1268 395 1323 442 b 1320 601 1323 566 1322 583 b 1171 546 1274 559 1223 546 b 916 578 1088 546 1000 578 l 911 578 b 757 526 861 578 786 568 b 741 683 747 584 742 638 b 713 857 738 757 730 813 b 986 736 781 808 873 739 l 1007 736 b 1359 941 1221 736 1359 839 b 1321 1027 1359 970 1347 1000 b 790 944 1225 964 1015 944 b 644 946 742 944 693 945 b 387 988 590 981 507 988 b 448 879 409 975 429 935 b 49 -36 238 685 230 -36 b 0 -20 34 -36 18 -31 b 143 -124 20 -90 78 -124 z m 572 262 b 363 472 499 324 401 341 l 362 472 b 361 518 361 487 361 503 b 463 829 361 621 384 731 b 572 262 513 654 551 387 z "},"Œ":{"ha":1531,"x_min":0,"x_max":0,"o":"m 1398 -54 b 1449 79 1434 -11 1449 36 b 1307 238 1449 166 1386 238 b 1196 191 1272 238 1234 224 b 1009 77 1143 145 1061 77 b 961 156 980 77 961 98 l 958 450 b 1010 521 965 501 983 521 b 1094 483 1033 521 1062 506 b 1310 395 1176 427 1251 395 b 1426 549 1381 395 1426 442 b 1423 601 1426 566 1426 583 b 1300 546 1385 559 1343 546 b 1088 578 1231 546 1158 578 l 1084 578 b 958 529 1043 578 984 568 l 955 806 b 979 902 955 876 963 902 b 1215 736 1017 902 1101 741 l 1229 736 b 1463 940 1371 736 1463 839 b 1437 1027 1463 970 1455 1000 b 1088 943 1373 964 1236 943 b 662 988 932 943 766 966 b 704 941 677 979 691 962 b 488 1008 638 984 564 1008 b 229 901 399 1008 309 975 b 312 909 258 907 286 909 b 732 515 532 909 668 718 b 769 307 758 435 769 366 b 582 62 769 146 686 62 l 564 62 b 174 597 361 80 212 370 b 161 719 165 648 161 689 b 191 794 161 772 173 794 b 326 510 239 794 326 636 b 319 451 326 489 324 469 b 522 647 464 475 522 559 b 290 884 522 763 422 884 b 174 853 254 884 214 875 b 0 479 60 792 0 627 b 467 -2 0 159 234 -2 b 795 125 587 -2 707 41 b 1398 -54 892 -41 1247 95 z "},"Ç":{"ha":737,"x_min":0,"x_max":0,"o":"m 409 -3 l 409 -47 b 410 -56 409 -51 409 -54 b 412 -60 410 -58 411 -60 b 417 -64 413 -62 415 -63 b 425 -69 419 -65 422 -67 b 481 -121 451 -86 469 -104 b 497 -169 492 -138 497 -155 b 483 -204 497 -183 492 -195 b 447 -218 473 -214 461 -218 b 394 -198 431 -218 413 -212 b 337 -132 374 -185 355 -163 b 312 -155 326 -138 317 -146 b 304 -182 307 -163 304 -172 b 319 -224 304 -197 309 -212 b 357 -252 330 -236 342 -245 b 404 -262 373 -259 388 -262 b 498 -220 439 -262 470 -248 b 539 -125 526 -193 539 -161 b 524 -68 539 -106 534 -87 b 479 -29 514 -50 498 -37 l 479 1 b 546 22 502 5 524 12 b 637 96 583 39 614 63 b 673 215 661 127 673 168 b 665 281 673 236 670 258 b 566 240 630 262 597 249 b 478 227 535 231 506 227 b 357 256 433 227 393 237 b 262 332 321 275 289 300 b 194 438 235 364 212 399 b 153 557 176 477 161 517 b 138 670 143 597 138 635 b 141 714 138 686 139 700 b 169 795 146 753 155 780 b 218 819 182 811 199 819 b 268 809 233 819 250 816 b 325 781 286 802 304 793 b 398 751 350 768 374 758 b 332 666 369 726 347 697 b 309 572 317 635 309 604 b 340 471 309 536 319 503 b 434 393 360 439 391 413 b 401 443 419 410 408 426 b 391 492 395 459 391 475 b 412 569 391 518 398 544 b 466 642 427 594 444 618 b 535 707 488 665 511 687 b 603 762 559 727 582 745 b 623 777 610 767 616 772 b 638 789 627 780 633 785 l 639 789 b 689 857 661 809 677 831 b 707 936 701 882 707 909 b 681 1027 707 967 698 998 b 633 993 667 1013 651 1002 b 582 973 616 984 599 977 b 541 964 565 968 551 966 b 525 962 532 964 527 963 l 524 962 b 465 959 505 960 486 959 b 266 981 398 959 332 966 b 138 1025 199 996 157 1011 b 155 932 149 991 155 960 b 136 839 155 898 149 867 b 88 755 122 811 106 783 b 38 667 70 728 54 699 b 5 556 22 635 11 598 b 0 485 1 532 0 509 b 41 279 0 414 14 345 b 159 109 68 214 107 157 b 345 7 210 60 272 26 b 409 -3 366 1 388 -2 z "},"Ć":{"ha":737,"x_min":0,"x_max":0,"o":"m 425 -3 b 673 215 553 -3 673 73 b 665 281 673 236 670 258 b 478 227 595 243 534 227 b 138 670 254 227 138 494 b 141 714 138 686 139 700 b 218 819 151 791 179 819 b 325 781 248 819 285 803 b 398 751 350 768 374 758 b 309 572 340 701 309 635 b 434 393 309 500 349 432 b 391 492 404 426 391 459 b 623 777 391 606 542 713 b 638 789 628 780 633 785 l 639 789 b 707 936 682 827 707 882 b 681 1027 707 967 699 999 b 524 962 627 969 524 962 b 465 959 505 960 486 959 b 138 1025 332 959 169 999 b 155 932 150 991 155 960 b 5 556 155 795 28 727 b 0 485 2 532 0 509 b 345 7 0 273 126 62 b 425 -3 372 0 399 -3 z m 368 1105 b 532 1322 430 1105 532 1211 b 529 1354 532 1333 531 1343 l 410 1354 l 341 1115 b 368 1105 349 1109 358 1105 z "},"Ĉ":{"ha":737,"x_min":0,"x_max":0,"o":"m 425 -3 b 673 215 553 -3 673 73 b 665 281 673 236 670 258 b 478 227 595 243 534 227 b 138 670 254 227 138 494 b 141 714 138 686 139 700 b 218 819 151 791 179 819 b 325 781 248 819 285 803 b 398 751 350 768 374 758 b 309 572 340 701 309 635 b 434 393 309 500 349 432 b 391 492 404 426 391 459 b 623 777 391 606 542 713 b 638 789 628 780 633 785 l 639 789 b 707 936 682 827 707 882 b 681 1027 707 967 699 999 b 524 962 627 969 524 962 b 465 959 505 960 486 959 b 138 1025 332 959 169 999 b 155 932 150 991 155 960 b 5 556 155 795 28 727 b 0 485 2 532 0 509 b 345 7 0 273 126 62 b 425 -3 372 0 399 -3 z m 511 1152 b 540 1197 530 1159 540 1175 b 489 1298 540 1227 522 1265 b 383 1354 452 1335 417 1354 b 228 1196 315 1354 228 1263 b 256 1152 228 1175 237 1159 b 384 1230 332 1204 358 1230 b 511 1152 410 1230 435 1204 z "},"Č":{"ha":737,"x_min":0,"x_max":0,"o":"m 425 -3 b 673 215 553 -3 673 73 b 665 281 673 236 670 258 b 478 227 595 243 534 227 b 138 670 254 227 138 494 b 141 714 138 686 139 700 b 218 819 151 791 179 819 b 325 781 248 819 285 803 b 398 751 350 768 374 758 b 309 572 340 701 309 635 b 434 393 309 500 349 432 b 391 492 404 426 391 459 b 623 777 391 606 542 713 b 638 789 628 780 633 785 l 639 789 b 707 936 682 827 707 882 b 681 1027 707 967 699 999 b 524 962 627 969 524 962 b 465 959 505 960 486 959 b 138 1025 332 959 169 999 b 155 932 150 991 155 960 b 5 556 155 795 28 727 b 0 485 2 532 0 509 b 345 7 0 273 126 62 b 425 -3 372 0 399 -3 z m 511 1354 b 384 1276 435 1303 410 1276 b 256 1354 358 1276 332 1303 b 228 1310 237 1348 228 1331 b 383 1152 228 1243 315 1152 b 489 1208 417 1153 452 1171 b 540 1310 522 1241 540 1280 b 511 1354 540 1331 530 1348 z "},"È":{"ha":759,"x_min":0,"x_max":0,"o":"m 439 -1 b 694 216 571 -1 694 75 b 686 283 694 237 691 259 b 496 227 620 248 555 227 b 279 381 406 227 328 273 b 253 490 262 419 253 458 b 300 560 253 531 269 560 b 375 527 319 560 344 551 b 582 440 448 471 524 440 b 688 556 645 440 688 476 b 675 645 688 581 684 610 b 562 590 640 603 602 590 b 399 621 509 590 453 613 b 362 623 386 622 374 623 b 215 475 258 623 215 557 b 231 385 215 446 220 416 b 142 672 172 474 142 585 b 225 820 142 773 176 820 b 335 783 256 820 294 804 b 505 737 397 751 454 737 b 728 936 642 737 728 837 b 701 1027 728 968 720 999 b 539 962 646 970 539 962 b 479 960 520 960 500 960 b 142 1026 342 960 174 999 b 160 933 155 991 160 961 b 5 557 160 795 29 728 b 0 486 2 534 0 510 b 356 9 0 274 130 64 b 439 -1 383 2 412 -1 z m 421 1105 b 448 1115 431 1105 441 1109 l 379 1354 l 260 1354 b 258 1322 258 1343 258 1333 b 421 1105 258 1211 359 1105 z "},"É":{"ha":759,"x_min":0,"x_max":0,"o":"m 439 -1 b 694 216 571 -1 694 75 b 686 283 694 237 691 259 b 496 227 620 248 555 227 b 279 381 406 227 328 273 b 253 490 262 419 253 458 b 300 560 253 531 269 560 b 375 527 319 560 344 551 b 582 440 448 471 524 440 b 688 556 645 440 688 476 b 675 645 688 581 684 610 b 562 590 640 603 602 590 b 399 621 509 590 453 613 b 362 623 386 622 374 623 b 215 475 258 623 215 557 b 231 385 215 446 220 416 b 142 672 172 474 142 585 b 225 820 142 773 176 820 b 335 783 256 820 294 804 b 505 737 397 751 454 737 b 728 936 642 737 728 837 b 701 1027 728 968 720 999 b 539 962 646 970 539 962 b 479 960 520 960 500 960 b 142 1026 342 960 174 999 b 160 933 155 991 160 961 b 5 557 160 795 29 728 b 0 486 2 534 0 510 b 356 9 0 274 130 64 b 439 -1 383 2 412 -1 z m 399 1105 b 562 1322 460 1105 562 1211 b 559 1354 562 1333 562 1343 l 441 1354 l 372 1115 b 399 1105 379 1109 389 1105 z "},"Ê":{"ha":759,"x_min":0,"x_max":0,"o":"m 439 -1 b 694 216 571 -1 694 75 b 686 283 694 237 691 259 b 496 227 620 248 555 227 b 279 381 406 227 328 273 b 253 490 262 419 253 458 b 300 560 253 531 269 560 b 375 527 319 560 344 551 b 582 440 448 471 524 440 b 688 556 645 440 688 476 b 675 645 688 581 684 610 b 562 590 640 603 602 590 b 399 621 509 590 453 613 b 362 623 386 622 374 623 b 215 475 258 623 215 557 b 231 385 215 446 220 416 b 142 672 172 474 142 585 b 225 820 142 773 176 820 b 335 783 256 820 294 804 b 505 737 397 751 454 737 b 728 936 642 737 728 837 b 701 1027 728 968 720 999 b 539 962 646 970 539 962 b 479 960 520 960 500 960 b 142 1026 342 960 174 999 b 160 933 155 991 160 961 b 5 557 160 795 29 728 b 0 486 2 534 0 510 b 356 9 0 274 130 64 b 439 -1 383 2 412 -1 z m 511 1152 b 540 1197 530 1159 540 1175 b 489 1298 540 1227 522 1265 b 383 1354 452 1335 417 1354 b 228 1196 315 1354 228 1263 b 256 1152 228 1175 237 1159 b 384 1230 332 1204 358 1230 b 511 1152 410 1230 435 1204 z "},"Ë":{"ha":759,"x_min":0,"x_max":0,"o":"m 439 -1 b 694 216 571 -1 694 75 b 686 283 694 237 691 259 b 496 227 620 248 555 227 b 279 381 406 227 328 273 b 253 490 262 419 253 458 b 300 560 253 531 269 560 b 375 527 319 560 344 551 b 582 440 448 471 524 440 b 688 556 645 440 688 476 b 675 645 688 581 684 610 b 562 590 640 603 602 590 b 399 621 509 590 453 613 b 362 623 386 622 374 623 b 215 475 258 623 215 557 b 231 385 215 446 220 416 b 142 672 172 474 142 585 b 225 820 142 773 176 820 b 335 783 256 820 294 804 b 505 737 397 751 454 737 b 728 936 642 737 728 837 b 701 1027 728 968 720 999 b 539 962 646 970 539 962 b 479 960 520 960 500 960 b 142 1026 342 960 174 999 b 160 933 155 991 160 961 b 5 557 160 795 29 728 b 0 486 2 534 0 510 b 356 9 0 274 130 64 b 439 -1 383 2 412 -1 z m 285 1185 b 372 1272 332 1185 372 1225 b 285 1359 372 1320 332 1359 b 199 1272 237 1359 199 1320 b 285 1185 199 1225 237 1185 z m 518 1185 b 605 1272 566 1185 605 1225 b 518 1359 605 1320 566 1359 b 432 1272 471 1359 432 1320 b 518 1185 432 1225 471 1185 z "},"Ē":{"ha":759,"x_min":0,"x_max":0,"o":"m 439 -1 b 694 216 571 -1 694 75 b 686 283 694 237 691 259 b 496 227 620 248 555 227 b 279 381 406 227 328 273 b 253 490 262 419 253 458 b 300 560 253 531 269 560 b 375 527 319 560 344 551 b 582 440 448 471 524 440 b 688 556 645 440 688 476 b 675 645 688 581 684 610 b 562 590 640 603 602 590 b 399 621 509 590 453 613 b 362 623 386 622 374 623 b 215 475 258 623 215 557 b 231 385 215 446 220 416 b 142 672 172 474 142 585 b 225 820 142 773 176 820 b 335 783 256 820 294 804 b 505 737 397 751 454 737 b 728 936 642 737 728 837 b 701 1027 728 968 720 999 b 539 962 646 970 539 962 b 479 960 520 960 500 960 b 142 1026 342 960 174 999 b 160 933 155 991 160 961 b 5 557 160 795 29 728 b 0 486 2 534 0 510 b 356 9 0 274 130 64 b 439 -1 383 2 412 -1 z m 510 1274 b 539 1307 529 1274 539 1290 b 510 1339 539 1323 529 1339 l 506 1339 b 395 1327 437 1331 416 1327 b 286 1339 375 1327 355 1331 b 253 1306 264 1339 253 1327 b 281 1274 253 1290 262 1274 l 286 1274 b 395 1286 355 1282 375 1286 b 506 1274 416 1286 437 1282 z "},"Ě":{"ha":759,"x_min":0,"x_max":0,"o":"m 439 -1 b 694 216 571 -1 694 75 b 686 283 694 237 691 259 b 496 227 620 248 555 227 b 279 381 406 227 328 273 b 253 490 262 419 253 458 b 300 560 253 531 269 560 b 375 527 319 560 344 551 b 582 440 448 471 524 440 b 688 556 645 440 688 476 b 675 645 688 581 684 610 b 562 590 640 603 602 590 b 399 621 509 590 453 613 b 362 623 386 622 374 623 b 215 475 258 623 215 557 b 231 385 215 446 220 416 b 142 672 172 474 142 585 b 225 820 142 773 176 820 b 335 783 256 820 294 804 b 505 737 397 751 454 737 b 728 936 642 737 728 837 b 701 1027 728 968 720 999 b 539 962 646 970 539 962 b 479 960 520 960 500 960 b 142 1026 342 960 174 999 b 160 933 155 991 160 961 b 5 557 160 795 29 728 b 0 486 2 534 0 510 b 356 9 0 274 130 64 b 439 -1 383 2 412 -1 z m 511 1354 b 384 1276 435 1303 410 1276 b 256 1354 358 1276 332 1303 b 228 1310 237 1348 228 1331 b 383 1152 228 1243 315 1152 b 489 1208 417 1153 452 1171 b 540 1310 522 1241 540 1280 b 511 1354 540 1331 530 1348 z "},"Ì":{"ha":350,"x_min":0,"x_max":0,"o":"m 309 -1 b 242 509 264 150 242 330 b 299 988 242 678 262 846 l 11 988 b 67 510 48 846 67 679 b 0 -1 67 330 45 149 z m 180 1105 b 208 1115 191 1105 200 1109 l 138 1354 l 20 1354 b 17 1322 18 1343 17 1333 b 180 1105 17 1211 118 1105 z "},"Í":{"ha":350,"x_min":0,"x_max":0,"o":"m 309 -1 b 242 509 264 150 242 330 b 299 988 242 678 262 846 l 11 988 b 67 510 48 846 67 679 b 0 -1 67 330 45 149 z m 133 1105 b 296 1322 195 1105 296 1211 b 294 1354 296 1333 296 1343 l 175 1354 l 106 1115 b 133 1105 113 1109 123 1105 z "},"Î":{"ha":350,"x_min":0,"x_max":0,"o":"m 309 -1 b 242 509 264 150 242 330 b 299 988 242 678 262 846 l 11 988 b 67 510 48 846 67 679 b 0 -1 67 330 45 149 z m 273 1152 b 302 1197 292 1159 302 1175 b 251 1298 302 1227 283 1265 b 145 1354 214 1335 179 1354 b -10 1196 77 1354 -10 1263 b 18 1152 -10 1175 -1 1159 b 146 1230 94 1204 120 1230 b 273 1152 172 1230 197 1204 z "},"Ï":{"ha":350,"x_min":0,"x_max":0,"o":"m 309 -1 b 242 509 264 150 242 330 b 299 988 242 678 262 846 l 11 988 b 67 510 48 846 67 679 b 0 -1 67 330 45 149 z m 40 1185 b 127 1272 87 1185 127 1225 b 40 1359 127 1320 87 1359 b -46 1272 -7 1359 -46 1320 b 40 1185 -46 1225 -7 1185 z m 273 1185 b 360 1272 321 1185 360 1225 b 273 1359 360 1320 321 1359 b 187 1272 226 1359 187 1320 b 273 1185 187 1225 226 1185 z "},"Ī":{"ha":350,"x_min":0,"x_max":0,"o":"m 309 -1 b 242 509 264 150 242 330 b 299 988 242 678 262 846 l 11 988 b 67 510 48 846 67 679 b 0 -1 67 330 45 149 z m 265 1274 b 294 1307 284 1274 294 1290 b 265 1339 294 1323 284 1339 l 261 1339 b 151 1327 192 1331 171 1327 b 41 1339 130 1327 110 1331 b 8 1306 19 1339 8 1327 b 37 1274 8 1290 18 1274 l 41 1274 b 151 1286 110 1282 130 1286 b 261 1274 171 1286 192 1282 z "},"Ð":{"ha":856,"x_min":0,"x_max":0,"o":"m 426 -2 b 635 87 495 -2 572 30 b 788 483 736 178 788 330 b 366 977 788 728 652 977 l 335 977 b 167 974 279 977 222 974 b 0 988 111 974 54 977 b 111 526 80 941 111 737 l 54 533 b 17 491 29 533 17 512 b 54 448 17 469 30 448 l 59 448 b 111 454 79 450 96 452 b 35 -2 105 248 73 50 l 317 -2 b 297 54 309 9 302 28 b 426 -2 329 16 375 -2 z m 382 51 b 300 132 347 51 315 79 b 267 457 288 197 276 324 l 344 448 l 349 448 b 387 491 374 448 387 469 b 350 533 387 512 374 533 l 344 532 b 264 523 309 529 283 526 b 257 759 260 607 257 690 b 268 915 257 836 260 895 b 310 949 277 937 291 948 l 311 949 b 564 457 397 947 564 739 b 511 184 564 372 548 279 b 382 51 475 92 426 51 z "},"Ñ":{"ha":892,"x_min":0,"x_max":0,"o":"m 88 -88 b 292 125 190 -88 292 -15 b 249 300 292 175 279 233 b 111 711 193 425 130 576 b 105 786 107 738 105 764 b 197 959 105 903 152 959 b 279 819 239 959 279 910 b 267 656 279 776 267 722 b 397 122 267 479 316 252 b 612 -29 454 30 538 -29 b 772 258 699 -29 772 52 b 752 643 772 346 752 500 b 859 962 752 790 774 925 b 724 1008 821 993 773 1008 b 522 814 623 1008 522 941 b 567 651 522 768 536 713 b 709 193 648 493 709 330 b 618 20 709 75 663 20 b 535 159 576 20 535 68 b 547 325 535 203 547 258 b 417 857 547 501 498 726 b 203 1008 360 949 277 1008 b 42 720 115 1008 42 927 b 64 304 42 629 64 460 b -46 -38 64 147 42 3 b 88 -88 -9 -72 39 -88 z m 540 1209 b 631 1275 583 1209 617 1225 b 633 1289 632 1280 633 1285 b 610 1307 633 1301 626 1307 b 554 1301 597 1307 576 1301 b 300 1347 475 1301 374 1347 b 212 1286 258 1347 226 1333 b 207 1262 208 1276 207 1267 b 223 1250 207 1253 212 1250 b 287 1255 239 1250 255 1253 b 540 1209 365 1255 467 1209 z "},"Ò":{"ha":927,"x_min":0,"x_max":0,"o":"m 467 -3 b 934 479 701 -3 934 158 b 488 1008 934 791 717 1008 b 229 901 399 1008 309 975 b 311 910 257 907 285 910 b 733 515 532 910 668 718 b 770 307 759 435 770 366 b 583 61 770 146 687 61 b 174 596 377 61 216 351 b 161 718 165 648 161 688 b 191 794 161 772 174 794 b 327 509 239 794 327 635 b 319 450 327 488 325 469 b 522 646 465 475 522 559 b 290 884 522 762 422 884 b 174 853 253 884 214 875 b 0 479 60 792 0 627 b 467 -3 0 158 233 -3 z m 484 1105 b 511 1115 494 1105 504 1109 l 442 1354 l 323 1354 b 321 1322 321 1343 321 1333 b 484 1105 321 1211 422 1105 z "},"Ó":{"ha":927,"x_min":0,"x_max":0,"o":"m 467 -3 b 934 479 701 -3 934 158 b 488 1008 934 791 717 1008 b 229 901 399 1008 309 975 b 311 910 257 907 285 910 b 733 515 532 910 668 718 b 770 307 759 435 770 366 b 583 61 770 146 687 61 b 174 596 377 61 216 351 b 161 718 165 648 161 688 b 191 794 161 772 174 794 b 327 509 239 794 327 635 b 319 450 327 488 325 469 b 522 646 465 475 522 559 b 290 884 522 762 422 884 b 174 853 253 884 214 875 b 0 479 60 792 0 627 b 467 -3 0 158 233 -3 z m 479 1105 b 642 1322 541 1105 642 1211 b 640 1354 642 1333 642 1343 l 521 1354 l 452 1115 b 479 1105 459 1109 469 1105 z "},"Ô":{"ha":927,"x_min":0,"x_max":0,"o":"m 467 -3 b 934 479 701 -3 934 158 b 488 1008 934 791 717 1008 b 229 901 399 1008 309 975 b 311 910 257 907 285 910 b 733 515 532 910 668 718 b 770 307 759 435 770 366 b 583 61 770 146 687 61 b 174 596 377 61 216 351 b 161 718 165 648 161 688 b 191 794 161 772 174 794 b 327 509 239 794 327 635 b 319 450 327 488 325 469 b 522 646 465 475 522 559 b 290 884 522 762 422 884 b 174 853 253 884 214 875 b 0 479 60 792 0 627 b 467 -3 0 158 233 -3 z m 591 1152 b 620 1197 610 1159 620 1175 b 569 1298 620 1227 602 1265 b 463 1354 532 1335 497 1354 b 308 1196 395 1354 308 1263 b 336 1152 308 1175 317 1159 b 464 1230 412 1204 438 1230 b 591 1152 490 1230 515 1204 z "},"Õ":{"ha":927,"x_min":0,"x_max":0,"o":"m 467 -3 b 934 479 701 -3 934 158 b 488 1008 934 791 717 1008 b 229 901 399 1008 309 975 b 311 910 257 907 285 910 b 733 515 532 910 668 718 b 770 307 759 435 770 366 b 583 61 770 146 687 61 b 174 596 377 61 216 351 b 161 718 165 648 161 688 b 191 794 161 772 174 794 b 327 509 239 794 327 635 b 319 450 327 488 325 469 b 522 646 465 475 522 559 b 290 884 522 762 422 884 b 174 853 253 884 214 875 b 0 479 60 792 0 627 b 467 -3 0 158 233 -3 z m 591 1209 b 682 1275 634 1209 668 1225 b 684 1289 683 1280 684 1285 b 661 1307 684 1301 677 1307 b 605 1301 648 1307 627 1301 b 351 1347 526 1301 425 1347 b 262 1286 309 1347 277 1333 b 258 1262 259 1276 258 1267 b 274 1250 258 1253 263 1250 b 338 1255 290 1250 306 1253 b 591 1209 416 1255 517 1209 z "},"Ö":{"ha":927,"x_min":0,"x_max":0,"o":"m 467 -3 b 934 479 701 -3 934 158 b 488 1008 934 791 717 1008 b 229 901 399 1008 309 975 b 311 910 257 907 285 910 b 733 515 532 910 668 718 b 770 307 759 435 770 366 b 583 61 770 146 687 61 b 174 596 377 61 216 351 b 161 718 165 648 161 688 b 191 794 161 772 174 794 b 327 509 239 794 327 635 b 319 450 327 488 325 469 b 522 646 465 475 522 559 b 290 884 522 762 422 884 b 174 853 253 884 214 875 b 0 479 60 792 0 627 b 467 -3 0 158 233 -3 z m 340 1185 b 427 1272 387 1185 427 1225 b 340 1359 427 1320 387 1359 b 254 1272 292 1359 254 1320 b 340 1185 254 1225 292 1185 z m 573 1185 b 660 1272 621 1185 660 1225 b 573 1359 660 1320 621 1359 b 487 1272 526 1359 487 1320 b 573 1185 487 1225 526 1185 z "},"×":{"ha":423,"x_min":0,"x_max":0,"o":"m 355 132 l 196 487 l 355 843 l 319 843 l 178 527 l 36 843 l 0 843 l 159 487 l 0 132 l 36 132 l 178 447 l 319 132 z "},"Ø":{"ha":1189,"x_min":0,"x_max":0,"o":"m 252 -243 l 371 24 b 560 -1 433 7 498 -1 b 1074 273 766 -1 991 90 b 1121 493 1105 340 1121 416 b 1074 713 1121 569 1105 646 b 787 951 1022 829 912 907 l 905 1216 l 869 1216 l 755 960 b 560 987 691 979 625 987 b 65 748 372 987 155 907 b 0 493 22 671 0 582 b 65 238 0 404 22 314 b 339 34 121 140 224 71 l 215 -243 z m 368 98 b 279 295 326 141 298 206 b 259 493 266 357 259 425 b 279 690 259 561 266 629 b 560 957 319 878 399 957 b 731 907 632 957 688 941 z m 560 30 b 393 75 490 30 437 44 l 757 883 b 843 687 797 839 825 775 b 862 493 855 626 862 559 b 843 298 862 426 855 359 b 560 30 803 111 722 30 z "},"Ŕ":{"ha":791,"x_min":0,"x_max":0,"o":"m 559 -39 b 764 186 701 -39 764 71 b 540 461 764 321 675 461 b 467 447 516 461 491 456 b 707 805 576 568 707 700 b 398 991 707 937 524 991 b 104 979 300 991 205 979 b 6 984 72 979 39 981 b 54 435 33 905 54 663 b 0 -1 54 244 39 63 l 188 0 l 282 -1 b 275 81 277 28 275 55 b 476 372 275 260 392 372 b 562 245 539 372 562 318 b 469 -25 562 146 517 19 b 559 -39 503 -34 532 -39 z m 254 193 b 243 481 248 280 243 381 b 282 825 243 610 252 736 b 405 964 311 910 363 964 b 471 826 441 964 471 923 b 254 193 467 477 299 466 z m 348 1105 b 511 1322 410 1105 511 1211 b 509 1354 511 1333 511 1343 l 390 1354 l 321 1115 b 348 1105 328 1109 338 1105 z "},"Ř":{"ha":791,"x_min":0,"x_max":0,"o":"m 559 -39 b 764 186 701 -39 764 71 b 540 461 764 321 675 461 b 467 447 516 461 491 456 b 707 805 576 568 707 700 b 398 991 707 937 524 991 b 104 979 300 991 205 979 b 6 984 72 979 39 981 b 54 435 33 905 54 663 b 0 -1 54 244 39 63 l 188 0 l 282 -1 b 275 81 277 28 275 55 b 476 372 275 260 392 372 b 562 245 539 372 562 318 b 469 -25 562 146 517 19 b 559 -39 503 -34 532 -39 z m 254 193 b 243 481 248 280 243 381 b 282 825 243 610 252 736 b 405 964 311 910 363 964 b 471 826 441 964 471 923 b 254 193 467 477 299 466 z m 481 1354 b 354 1276 406 1303 380 1276 b 226 1354 328 1276 302 1303 b 198 1310 207 1348 198 1331 b 353 1152 198 1243 285 1152 b 459 1208 387 1153 422 1171 b 510 1310 492 1241 510 1280 b 481 1354 510 1331 500 1348 z "},"Ś":{"ha":725,"x_min":0,"x_max":0,"o":"m 347 -14 b 725 319 572 -14 725 149 b 340 642 725 502 540 590 b 83 775 153 690 83 740 b 201 824 83 804 132 824 b 621 592 324 824 513 764 b 721 760 692 648 721 706 b 416 1000 721 886 568 991 b 389 1001 407 1001 397 1001 b 0 709 172 1001 0 854 b 168 498 0 631 50 553 b 442 376 250 459 356 422 b 567 205 533 327 567 263 b 418 48 567 121 494 48 b 261 269 340 48 261 141 b 292 400 261 311 271 356 b 201 423 262 416 231 423 b 16 239 101 423 16 344 b 45 132 16 205 24 170 b 347 -14 102 29 233 -14 z m 373 1105 b 536 1322 435 1105 536 1211 b 534 1354 536 1333 536 1343 l 415 1354 l 346 1115 b 373 1105 353 1109 363 1105 z "},"Ŝ":{"ha":725,"x_min":0,"x_max":0,"o":"m 347 -14 b 725 319 572 -14 725 149 b 340 642 725 502 540 590 b 83 775 153 690 83 740 b 201 824 83 804 132 824 b 621 592 324 824 513 764 b 721 760 692 648 721 706 b 416 1000 721 886 568 991 b 389 1001 407 1001 397 1001 b 0 709 172 1001 0 854 b 168 498 0 631 50 553 b 442 376 250 459 356 422 b 567 205 533 327 567 263 b 418 48 567 121 494 48 b 261 269 340 48 261 141 b 292 400 261 311 271 356 b 201 423 262 416 231 423 b 16 239 101 423 16 344 b 45 132 16 205 24 170 b 347 -14 102 29 233 -14 z m 511 1152 b 540 1197 530 1159 540 1175 b 489 1298 540 1227 522 1265 b 383 1354 452 1335 417 1354 b 228 1196 315 1354 228 1263 b 256 1152 228 1175 237 1159 b 384 1230 332 1204 358 1230 b 511 1152 410 1230 435 1204 z "},"Ş":{"ha":725,"x_min":0,"x_max":0,"o":"m 299 -11 l 299 -68 b 300 -77 299 -72 299 -75 b 302 -81 300 -79 301 -81 b 307 -85 303 -83 305 -84 b 315 -90 309 -86 312 -88 b 371 -142 341 -107 359 -125 b 387 -190 382 -159 387 -176 b 373 -225 387 -204 382 -216 b 337 -239 363 -235 351 -239 b 284 -219 321 -239 303 -233 b 227 -153 264 -206 245 -184 b 202 -176 216 -159 207 -167 b 194 -203 197 -184 194 -193 b 210 -245 194 -218 199 -233 b 248 -273 220 -257 232 -267 b 294 -283 263 -280 278 -283 b 388 -241 329 -283 360 -269 b 429 -146 416 -214 429 -182 b 414 -90 429 -127 425 -109 b 369 -50 404 -71 389 -58 l 369 -13 b 545 34 435 -10 494 5 b 677 158 602 66 646 107 b 725 319 709 209 725 262 b 693 439 725 365 714 405 b 608 530 672 474 644 504 b 485 595 572 555 530 577 b 340 642 439 614 391 629 b 191 690 278 658 228 674 b 109 736 153 705 125 721 b 83 775 92 750 83 764 b 116 810 83 789 94 802 b 201 824 138 819 166 824 b 340 802 242 824 288 817 b 492 728 392 787 442 762 b 621 592 541 694 584 649 b 697 677 656 620 682 648 b 721 760 713 705 721 733 b 677 876 721 802 706 841 b 563 962 647 911 609 940 b 416 1000 517 985 468 997 b 389 1001 407 1001 397 1001 b 191 958 315 1000 250 985 b 52 849 133 930 87 893 b 0 709 18 804 0 758 b 40 595 0 670 14 632 b 168 498 66 558 109 526 b 273 452 201 483 236 468 b 442 376 332 429 389 404 b 538 294 487 351 519 323 b 567 205 557 264 567 235 b 522 96 567 163 552 127 b 418 48 491 64 456 48 b 344 77 393 48 368 58 b 284 155 319 96 300 122 b 261 269 269 189 261 226 b 292 400 261 311 271 355 b 201 423 261 416 231 423 b 109 399 168 423 137 415 b 41 334 81 383 58 361 b 16 239 24 306 16 274 b 45 132 16 206 26 170 b 123 49 65 98 91 71 b 231 1 156 27 192 12 b 299 -11 254 -5 277 -9 z "},"Š":{"ha":725,"x_min":0,"x_max":0,"o":"m 347 -14 b 725 319 572 -14 725 149 b 340 642 725 502 540 590 b 83 775 153 690 83 740 b 201 824 83 804 132 824 b 621 592 324 824 513 764 b 721 760 692 648 721 706 b 416 1000 721 886 568 991 b 389 1001 407 1001 397 1001 b 0 709 172 1001 0 854 b 168 498 0 631 50 553 b 442 376 250 459 356 422 b 567 205 533 327 567 263 b 418 48 567 121 494 48 b 261 269 340 48 261 141 b 292 400 261 311 271 356 b 201 423 262 416 231 423 b 16 239 101 423 16 344 b 45 132 16 205 24 170 b 347 -14 102 29 233 -14 z m 511 1354 b 384 1276 435 1303 410 1276 b 256 1354 358 1276 332 1303 b 228 1310 237 1348 228 1331 b 383 1152 228 1243 315 1152 b 489 1208 417 1153 452 1171 b 540 1310 522 1241 540 1280 b 511 1354 540 1331 530 1348 z "},"Ù":{"ha":759,"x_min":0,"x_max":0,"o":"m 362 -4 b 418 1 381 -4 400 -3 b 627 57 498 13 555 57 b 718 34 655 57 684 51 b 692 397 698 63 692 220 b 705 983 692 665 705 981 b 555 972 671 977 614 972 b 410 983 505 972 453 975 b 530 470 472 915 530 673 b 467 208 530 358 512 258 b 293 131 422 156 357 131 b 96 317 193 131 96 195 b 261 653 96 402 142 514 b 327 810 306 705 327 760 b 102 991 327 910 244 991 b 0 979 70 991 35 987 b 92 717 70 896 92 806 b 31 363 92 595 52 473 b 24 300 26 341 24 320 b 362 -4 24 112 193 -4 z m 370 1105 b 397 1115 380 1105 390 1109 l 328 1354 l 210 1354 b 207 1322 208 1343 207 1333 b 370 1105 207 1211 308 1105 z "},"Ú":{"ha":759,"x_min":0,"x_max":0,"o":"m 362 -4 b 418 1 381 -4 400 -3 b 627 57 498 13 555 57 b 718 34 655 57 684 51 b 692 397 698 63 692 220 b 705 983 692 665 705 981 b 555 972 671 977 614 972 b 410 983 505 972 453 975 b 530 470 472 915 530 673 b 467 208 530 358 512 258 b 293 131 422 156 357 131 b 96 317 193 131 96 195 b 261 653 96 402 142 514 b 327 810 306 705 327 760 b 102 991 327 910 244 991 b 0 979 70 991 35 987 b 92 717 70 896 92 806 b 31 363 92 595 52 473 b 24 300 26 341 24 320 b 362 -4 24 112 193 -4 z m 386 1105 b 549 1322 448 1105 549 1211 b 547 1354 549 1333 549 1343 l 428 1354 l 359 1115 b 386 1105 366 1109 376 1105 z "},"Û":{"ha":759,"x_min":0,"x_max":0,"o":"m 362 -4 b 418 1 381 -4 400 -3 b 627 57 498 13 555 57 b 718 34 655 57 684 51 b 692 397 698 63 692 220 b 705 983 692 665 705 981 b 555 972 671 977 614 972 b 410 983 505 972 453 975 b 530 470 472 915 530 673 b 467 208 530 358 512 258 b 293 131 422 156 357 131 b 96 317 193 131 96 195 b 261 653 96 402 142 514 b 327 810 306 705 327 760 b 102 991 327 910 244 991 b 0 979 70 991 35 987 b 92 717 70 896 92 806 b 31 363 92 595 52 473 b 24 300 26 341 24 320 b 362 -4 24 112 193 -4 z m 511 1152 b 540 1197 530 1159 540 1175 b 489 1298 540 1227 522 1265 b 383 1354 452 1335 417 1354 b 228 1196 315 1354 228 1263 b 256 1152 228 1175 237 1159 b 384 1230 332 1204 358 1230 b 511 1152 410 1230 435 1204 z "},"Ü":{"ha":759,"x_min":0,"x_max":0,"o":"m 362 -4 b 418 1 381 -4 400 -3 b 627 57 498 13 555 57 b 718 34 655 57 684 51 b 692 397 698 63 692 220 b 705 983 692 665 705 981 b 555 972 671 977 614 972 b 410 983 505 972 453 975 b 530 470 472 915 530 673 b 467 208 530 358 512 258 b 293 131 422 156 357 131 b 96 317 193 131 96 195 b 261 653 96 402 142 514 b 327 810 306 705 327 760 b 102 991 327 910 244 991 b 0 979 70 991 35 987 b 92 717 70 896 92 806 b 31 363 92 595 52 473 b 24 300 26 341 24 320 b 362 -4 24 112 193 -4 z m 239 1185 b 326 1272 286 1185 326 1225 b 239 1359 326 1320 286 1359 b 153 1272 191 1359 153 1320 b 239 1185 153 1225 191 1185 z m 472 1185 b 559 1272 519 1185 559 1225 b 472 1359 559 1320 519 1359 b 386 1272 425 1359 386 1320 b 472 1185 386 1225 425 1185 z "},"Ų":{"ha":759,"x_min":0,"x_max":0,"o":"m 791 -191 b 824 -178 806 -191 817 -186 b 834 -149 831 -169 834 -159 b 825 -121 834 -139 831 -130 b 798 -108 819 -112 809 -108 b 783 -110 793 -108 788 -109 b 740 -117 768 -115 753 -117 b 650 -67 701 -117 671 -100 b 617 57 629 -34 618 7 l 627 57 b 718 34 655 57 685 50 b 692 397 701 64 692 184 b 705 976 692 590 696 783 l 705 983 b 555 972 665 975 615 972 b 410 983 505 972 457 976 b 494 774 442 945 470 875 b 530 470 517 673 530 571 b 467 208 530 345 509 257 b 387 150 444 182 418 163 b 293 131 357 137 325 131 b 198 152 260 131 228 138 b 125 215 168 166 143 187 b 96 317 106 243 96 277 b 261 653 96 412 151 524 b 327 810 305 705 327 758 b 300 901 327 844 318 874 b 223 966 282 928 256 950 b 102 991 190 983 149 991 b 0 979 70 991 36 987 b 92 717 62 904 92 817 b 80 590 92 674 88 632 b 53 465 72 547 63 506 b 31 363 45 430 37 396 b 24 300 26 341 24 320 b 54 174 24 253 34 211 b 130 78 73 136 98 104 b 239 17 162 52 199 31 b 362 -4 279 3 320 -4 b 515 29 412 -4 463 7 b 570 48 533 37 551 43 b 657 -146 572 -37 601 -102 b 791 -191 689 -173 734 -187 z "},"Ŵ":{"ha":1222,"x_min":0,"x_max":0,"o":"m 775 -3 b 1027 214 865 -3 970 85 b 1188 867 1118 418 1188 739 b 977 1082 1188 1018 1070 1082 b 820 995 913 1082 852 1053 b 852 1002 831 1000 842 1002 b 1016 511 958 1002 1016 747 b 981 233 1016 407 1004 306 b 892 119 960 165 922 119 b 847 229 867 119 848 151 b 819 624 845 370 842 506 b 535 1025 789 789 707 1025 b 412 990 498 1025 457 1015 b 591 462 545 854 591 641 b 494 142 591 285 546 142 b 412 286 467 142 437 184 b 332 759 365 471 348 682 b 0 984 283 995 194 981 b 201 184 159 642 114 442 b 408 -1 242 60 325 -1 b 621 189 492 -1 578 62 b 775 -3 641 54 703 -3 z m 684 1152 b 713 1197 703 1159 713 1175 b 662 1298 713 1227 694 1265 b 556 1354 625 1335 590 1354 b 401 1196 488 1354 401 1263 b 429 1152 401 1175 410 1159 b 557 1230 505 1204 531 1230 b 684 1152 583 1230 608 1204 z "},"Ý":{"ha":757,"x_min":0,"x_max":0,"o":"m 321 -15 b 633 207 465 -15 616 47 b 680 713 652 370 627 557 b 726 891 703 777 726 831 b 544 1068 726 1019 635 1068 b 373 986 470 1067 397 1035 b 595 724 539 986 595 857 b 469 441 595 585 532 441 b 393 525 442 441 415 465 b 311 854 348 644 326 805 b 73 984 277 975 210 984 l 0 984 b 267 379 151 722 60 444 b 338 369 290 372 313 369 b 563 468 419 369 504 408 b 123 79 465 238 282 79 b 66 87 104 79 85 82 b 321 -15 96 26 206 -15 z m 348 1105 b 511 1322 410 1105 511 1211 b 509 1354 511 1333 511 1343 l 390 1354 l 321 1115 b 348 1105 328 1109 338 1105 z "},"Ÿ":{"ha":757,"x_min":0,"x_max":0,"o":"m 321 -15 b 633 207 465 -15 616 47 b 680 713 652 370 627 557 b 726 891 703 777 726 831 b 544 1068 726 1019 635 1068 b 373 986 470 1067 397 1035 b 595 724 539 986 595 857 b 469 441 595 585 532 441 b 393 525 442 441 415 465 b 311 854 348 644 326 805 b 73 984 277 975 210 984 l 0 984 b 267 379 151 722 60 444 b 338 369 290 372 313 369 b 563 468 419 369 504 408 b 123 79 465 238 282 79 b 66 87 104 79 85 82 b 321 -15 96 26 206 -15 z m 243 1185 b 330 1272 290 1185 330 1225 b 243 1359 330 1320 290 1359 b 157 1272 195 1359 157 1320 b 243 1185 157 1225 195 1185 z m 476 1185 b 563 1272 524 1185 563 1225 b 476 1359 563 1320 524 1359 b 390 1272 429 1359 390 1320 b 476 1185 390 1225 429 1185 z "},"Ŷ":{"ha":757,"x_min":0,"x_max":0,"o":"m 321 -15 b 633 207 465 -15 616 47 b 680 713 652 370 627 557 b 726 891 703 777 726 831 b 544 1068 726 1019 635 1068 b 373 986 470 1067 397 1035 b 595 724 539 986 595 857 b 469 441 595 585 532 441 b 393 525 442 441 415 465 b 311 854 348 644 326 805 b 73 984 277 975 210 984 l 0 984 b 267 379 151 722 60 444 b 338 369 290 372 313 369 b 563 468 419 369 504 408 b 123 79 465 238 282 79 b 66 87 104 79 85 82 b 321 -15 96 26 206 -15 z m 511 1152 b 540 1197 530 1159 540 1175 b 489 1298 540 1227 522 1265 b 383 1354 452 1335 417 1354 b 228 1196 315 1354 228 1263 b 256 1152 228 1175 237 1159 b 384 1230 332 1204 358 1230 b 511 1152 410 1230 435 1204 z "},"Ź":{"ha":1023,"x_min":0,"x_max":0,"o":"m -10 -14 b 195 33 31 22 104 33 b 789 -12 368 33 606 -12 b 989 65 873 -12 989 -4 b 958 140 989 85 981 109 b 848 374 916 199 848 275 b 941 573 848 432 872 498 b 841 585 905 582 872 585 b 606 407 697 585 606 501 b 682 266 606 359 630 309 b 812 174 726 229 772 206 b 859 109 845 148 859 127 b 658 42 859 60 750 42 b 547 53 612 42 570 46 b 389 303 439 85 389 186 b 728 777 389 490 515 720 b 884 924 825 802 884 866 b 677 1034 884 983 823 1034 b 216 962 528 1034 323 962 b 105 1034 159 962 117 980 b 53 868 68 969 53 913 b 204 726 53 778 115 726 b 514 888 292 726 406 776 b 721 1000 594 970 667 1000 b 812 931 777 1000 812 968 b 621 831 812 886 758 835 b -10 -14 199 819 138 185 z m 479 1105 b 642 1322 541 1105 642 1211 b 640 1354 642 1333 642 1343 l 521 1354 l 452 1115 b 479 1105 459 1109 469 1105 z "},"Ž":{"ha":1023,"x_min":0,"x_max":0,"o":"m -10 -14 b 195 33 31 22 104 33 b 789 -12 368 33 606 -12 b 989 65 873 -12 989 -4 b 958 140 989 85 981 109 b 848 374 916 199 848 275 b 941 573 848 432 872 498 b 841 585 905 582 872 585 b 606 407 697 585 606 501 b 682 266 606 359 630 309 b 812 174 726 229 772 206 b 859 109 845 148 859 127 b 658 42 859 60 750 42 b 547 53 612 42 570 46 b 389 303 439 85 389 186 b 728 777 389 490 515 720 b 884 924 825 802 884 866 b 677 1034 884 983 823 1034 b 216 962 528 1034 323 962 b 105 1034 159 962 117 980 b 53 868 68 969 53 913 b 204 726 53 778 115 726 b 514 888 292 726 406 776 b 721 1000 594 970 667 1000 b 812 931 777 1000 812 968 b 621 831 812 886 758 835 b -10 -14 199 819 138 185 z m 591 1354 b 464 1276 515 1303 490 1276 b 336 1354 438 1276 412 1303 b 308 1310 317 1348 308 1331 b 463 1152 308 1243 395 1152 b 569 1208 497 1153 532 1171 b 620 1310 602 1241 620 1280 b 591 1354 620 1331 610 1348 z "},"Þ":{"ha":770,"x_min":0,"x_max":0,"o":"m 329 -2 b 284 126 311 22 296 68 b 703 493 564 138 703 315 b 284 859 703 671 564 848 b 329 988 296 918 311 964 l 0 988 b 74 493 49 923 74 708 b 0 -2 74 278 49 63 z m 280 151 b 256 493 264 246 256 370 b 280 834 256 616 264 739 b 503 493 429 819 503 656 b 280 151 503 330 429 168 z "},"ß":{"ha":816,"x_min":0,"x_max":0,"o":"m 270 -191 b 630 1 423 -191 547 -109 b 748 323 706 100 748 222 b 566 532 748 441 692 532 b 484 522 541 532 513 529 b 669 690 550 568 629 621 b 696 785 688 723 696 755 b 413 996 696 905 559 996 l 411 996 b 57 535 240 996 57 873 l 57 503 b 58 422 58 476 58 449 b 0 -2 58 227 35 47 l 263 -2 l 263 5 b 474 444 263 132 345 444 l 486 443 b 547 296 527 437 547 376 b 473 0 547 207 522 93 b 295 -148 424 -89 352 -148 b 208 -21 249 -148 214 -111 l 204 -21 b 109 -103 149 -21 109 -62 b 270 -191 109 -146 153 -191 z m 254 192 b 243 479 249 279 243 380 b 283 825 243 608 252 735 b 406 964 311 909 363 964 b 472 825 443 964 472 923 l 471 815 b 254 192 466 473 301 470 z "},"à":{"ha":815,"x_min":0,"x_max":0,"o":"m 25 -153 b 281 167 141 -153 281 -43 b 273 260 281 196 278 227 b 256 350 268 288 262 317 b 498 94 334 264 428 254 b 661 -1 525 33 576 -1 l 774 -1 b 587 876 667 277 659 725 b 269 988 542 972 447 988 b 330 879 292 975 311 935 b -106 -77 130 680 109 -77 b 25 -153 -79 -128 -30 -153 z m 454 260 b 243 510 367 338 243 361 b 346 828 243 615 267 728 b 454 260 395 652 433 382 z m 348 1105 b 511 1322 410 1105 511 1211 b 509 1354 511 1333 511 1343 l 390 1354 l 321 1115 b 348 1105 328 1109 338 1105 z "},"á":{"ha":815,"x_min":0,"x_max":0,"o":"m 25 -153 b 281 167 141 -153 281 -43 b 273 260 281 196 278 227 b 256 350 268 288 262 317 b 498 94 334 264 428 254 b 661 -1 525 33 576 -1 l 774 -1 b 587 876 667 277 659 725 b 269 988 542 972 447 988 b 330 879 292 975 311 935 b -106 -77 130 680 109 -77 b 25 -153 -79 -128 -30 -153 z m 454 260 b 243 510 367 338 243 361 b 346 828 243 615 267 728 b 454 260 395 652 433 382 z m 425 1105 b 452 1115 435 1105 445 1109 l 383 1354 l 264 1354 b 262 1322 262 1343 262 1333 b 425 1105 262 1211 363 1105 z "},"â":{"ha":815,"x_min":0,"x_max":0,"o":"m 25 -153 b 281 167 141 -153 281 -43 b 273 260 281 196 278 227 b 256 350 268 288 262 317 b 498 94 334 264 428 254 b 661 -1 525 33 576 -1 l 774 -1 b 587 876 667 277 659 725 b 269 988 542 972 447 988 b 330 879 292 975 311 935 b -106 -77 130 680 109 -77 b 25 -153 -79 -128 -30 -153 z m 454 260 b 243 510 367 338 243 361 b 346 828 243 615 267 728 b 454 260 395 652 433 382 z m 511 1152 b 540 1197 530 1159 540 1175 b 489 1298 540 1227 522 1265 b 383 1354 452 1335 417 1354 b 228 1196 315 1354 228 1263 b 256 1152 228 1175 237 1159 b 384 1230 332 1204 358 1230 b 511 1152 410 1230 435 1204 z "},"ã":{"ha":815,"x_min":0,"x_max":0,"o":"m 25 -153 b 281 167 141 -153 281 -43 b 273 260 281 196 278 227 b 256 350 268 288 262 317 b 498 94 334 264 428 254 b 661 -1 525 33 576 -1 l 774 -1 b 587 876 667 277 659 725 b 269 988 542 972 447 988 b 330 879 292 975 311 935 b -106 -77 130 680 109 -77 b 25 -153 -79 -128 -30 -153 z m 454 260 b 243 510 367 338 243 361 b 346 828 243 615 267 728 b 454 260 395 652 433 382 z m 540 1209 b 631 1275 583 1209 617 1225 b 633 1289 632 1280 633 1285 b 610 1307 633 1301 626 1307 b 554 1301 597 1307 576 1301 b 300 1347 475 1301 374 1347 b 212 1286 258 1347 226 1333 b 207 1262 208 1276 207 1267 b 223 1250 207 1253 212 1250 b 287 1255 239 1250 255 1253 b 540 1209 365 1255 467 1209 z "},"ä":{"ha":815,"x_min":0,"x_max":0,"o":"m 25 -153 b 281 167 141 -153 281 -43 b 273 260 281 196 278 227 b 256 350 268 288 262 317 b 498 94 334 264 428 254 b 661 -1 525 33 576 -1 l 774 -1 b 587 876 667 277 659 725 b 269 988 542 972 447 988 b 330 879 292 975 311 935 b -106 -77 130 680 109 -77 b 25 -153 -79 -128 -30 -153 z m 454 260 b 243 510 367 338 243 361 b 346 828 243 615 267 728 b 454 260 395 652 433 382 z m 285 1185 b 372 1272 332 1185 372 1225 b 285 1359 372 1320 332 1359 b 199 1272 237 1359 199 1320 b 285 1185 199 1225 237 1185 z m 518 1185 b 605 1272 566 1185 605 1225 b 518 1359 605 1320 566 1359 b 432 1272 471 1359 432 1320 b 518 1185 432 1225 471 1185 z "},"å":{"ha":815,"x_min":0,"x_max":0,"o":"m 25 -153 b 281 167 141 -153 281 -43 b 273 260 281 196 278 227 b 256 350 268 288 262 317 b 498 94 334 264 428 254 b 661 -1 525 33 576 -1 l 774 -1 b 587 876 667 277 659 725 b 269 988 542 972 447 988 b 330 879 292 975 311 935 b -106 -77 130 680 109 -77 b 25 -153 -79 -128 -30 -153 z m 454 260 b 243 510 367 338 243 361 b 346 828 243 615 267 728 b 454 260 395 652 433 382 z m 397 1154 b 515 1273 463 1154 515 1207 b 397 1392 515 1339 463 1392 b 279 1273 331 1392 279 1339 b 397 1154 279 1207 331 1154 z m 397 1189 b 349 1273 370 1189 349 1227 b 397 1357 349 1320 370 1357 b 444 1273 423 1357 444 1320 b 397 1189 444 1227 423 1189 z "},"ā":{"ha":815,"x_min":0,"x_max":0,"o":"m 25 -153 b 281 167 141 -153 281 -43 b 273 260 281 196 278 227 b 256 350 268 288 262 317 b 498 94 334 264 428 254 b 661 -1 525 33 576 -1 l 774 -1 b 587 876 667 277 659 725 b 269 988 542 972 447 988 b 330 879 292 975 311 935 b -106 -77 130 680 109 -77 b 25 -153 -79 -128 -30 -153 z m 454 260 b 243 510 367 338 243 361 b 346 828 243 615 267 728 b 454 260 395 652 433 382 z m 510 1274 b 539 1307 529 1274 539 1290 b 510 1339 539 1323 529 1339 l 506 1339 b 395 1327 437 1331 416 1327 b 286 1339 375 1327 355 1331 b 253 1306 264 1339 253 1327 b 281 1274 253 1290 262 1274 l 286 1274 b 395 1286 355 1282 375 1286 b 506 1274 416 1286 437 1282 z "},"ă":{"ha":815,"x_min":0,"x_max":0,"o":"m 25 -153 b 281 167 141 -153 281 -43 b 273 260 281 196 278 227 b 256 350 268 288 262 317 b 498 94 334 264 428 254 b 661 -1 525 33 576 -1 l 774 -1 b 587 876 667 277 659 725 b 269 988 542 972 447 988 b 330 879 292 975 311 935 b -106 -77 130 680 109 -77 b 25 -153 -79 -128 -30 -153 z m 454 260 b 243 510 367 338 243 361 b 346 828 243 615 267 728 b 454 260 395 652 433 382 z m 383 1187 b 500 1291 440 1187 500 1226 b 449 1351 500 1322 482 1351 b 430 1348 443 1351 437 1350 b 438 1289 436 1326 438 1306 b 385 1207 438 1234 412 1207 b 329 1291 357 1207 329 1236 b 337 1348 329 1308 332 1326 b 317 1351 330 1350 323 1351 b 266 1291 285 1351 266 1321 b 383 1187 266 1226 328 1187 z "},"ą":{"ha":815,"x_min":0,"x_max":0,"o":"m 454 260 b 243 510 367 338 243 361 b 346 828 243 615 267 728 b 454 260 395 652 433 382 z m 656 -1 b 670 -52 659 -18 664 -35 b 738 -146 683 -89 705 -121 b 871 -191 770 -173 814 -187 b 905 -178 886 -191 897 -186 b 915 -149 911 -169 915 -159 b 905 -121 915 -139 911 -130 b 878 -108 899 -112 890 -108 b 864 -110 873 -108 869 -109 b 821 -117 848 -115 834 -117 b 731 -67 782 -117 752 -100 b 704 -1 718 -48 709 -26 l 774 -1 b 707 252 747 76 724 160 b 662 522 690 343 675 433 b 629 730 652 599 641 668 b 587 876 618 791 604 840 b 524 948 572 908 551 932 b 420 981 496 964 462 975 b 269 988 379 985 328 988 b 330 879 292 972 312 937 b 218 673 286 831 248 763 b 134 387 187 583 159 488 b 86 214 118 327 102 269 b 34 66 70 159 52 110 b -28 -38 16 22 -5 -12 b -106 -77 -51 -64 -77 -77 b -51 -134 -92 -102 -74 -121 b 25 -153 -28 -147 -3 -153 b 114 -133 54 -153 83 -146 b 197 -72 144 -119 172 -99 b 258 28 222 -45 242 -12 b 281 167 273 68 281 115 b 273 260 281 196 278 227 l 267 294 b 256 350 263 311 260 330 b 341 279 283 321 312 298 b 423 211 369 260 396 237 b 498 94 450 184 475 144 b 558 24 511 63 532 39 b 656 -1 583 8 616 0 z "},"æ":{"ha":1427,"x_min":0,"x_max":0,"o":"m 143 -124 b 399 187 259 -124 399 -17 b 390 277 399 216 396 245 b 378 347 387 299 382 322 b 594 152 452 260 558 250 b 600 135 595 146 597 140 b 780 -2 626 56 671 -2 l 931 -2 b 906 33 922 9 914 20 b 1293 -54 1043 22 1204 33 b 1345 79 1330 -11 1345 36 b 1201 238 1345 166 1282 238 b 1088 191 1165 238 1126 224 b 899 78 1034 145 951 78 b 879 82 891 78 884 79 b 765 472 828 186 789 336 b 821 522 775 507 795 522 b 924 483 849 522 884 506 b 1183 395 1022 427 1113 395 b 1323 550 1268 395 1323 442 b 1320 601 1323 566 1322 583 b 1171 546 1274 559 1223 546 b 916 578 1088 546 1000 578 l 911 578 b 757 526 861 578 786 568 b 741 683 747 584 742 638 b 713 857 738 757 730 813 b 986 736 781 808 873 739 l 1007 736 b 1359 941 1221 736 1359 839 b 1321 1027 1359 970 1347 1000 b 790 944 1225 964 1015 944 b 644 946 742 944 693 945 b 387 988 590 981 507 988 b 448 879 409 975 429 935 b 49 -36 238 685 230 -36 b 0 -20 34 -36 18 -31 b 143 -124 20 -90 78 -124 z m 572 262 b 363 472 499 324 401 341 l 362 472 b 361 518 361 487 361 503 b 463 829 361 621 384 731 b 572 262 513 654 551 387 z "},"œ":{"ha":1531,"x_min":0,"x_max":0,"o":"m 1398 -54 b 1449 79 1434 -11 1449 36 b 1307 238 1449 166 1386 238 b 1196 191 1272 238 1234 224 b 1009 77 1143 145 1061 77 b 961 156 980 77 961 98 l 958 450 b 1010 521 965 501 983 521 b 1094 483 1033 521 1062 506 b 1310 395 1176 427 1251 395 b 1426 549 1381 395 1426 442 b 1423 601 1426 566 1426 583 b 1300 546 1385 559 1343 546 b 1088 578 1231 546 1158 578 l 1084 578 b 958 529 1043 578 984 568 l 955 806 b 979 902 955 876 963 902 b 1215 736 1017 902 1101 741 l 1229 736 b 1463 940 1371 736 1463 839 b 1437 1027 1463 970 1455 1000 b 1088 943 1373 964 1236 943 b 662 988 932 943 766 966 b 704 941 677 979 691 962 b 488 1008 638 984 564 1008 b 229 901 399 1008 309 975 b 312 909 258 907 286 909 b 732 515 532 909 668 718 b 769 307 758 435 769 366 b 582 62 769 146 686 62 l 564 62 b 174 597 361 80 212 370 b 161 719 165 648 161 689 b 191 794 161 772 173 794 b 326 510 239 794 326 636 b 319 451 326 489 324 469 b 522 647 464 475 522 559 b 290 884 522 763 422 884 b 174 853 254 884 214 875 b 0 479 60 792 0 627 b 467 -2 0 159 234 -2 b 795 125 587 -2 707 41 b 1398 -54 892 -41 1247 95 z "},"ç":{"ha":737,"x_min":0,"x_max":0,"o":"m 409 -3 l 409 -47 b 410 -56 409 -51 409 -54 b 412 -60 410 -58 411 -60 b 417 -64 413 -62 415 -63 b 425 -69 419 -65 422 -67 b 481 -121 451 -86 469 -104 b 497 -169 492 -138 497 -155 b 483 -204 497 -183 492 -195 b 447 -218 473 -214 461 -218 b 394 -198 431 -218 413 -212 b 337 -132 374 -185 355 -163 b 312 -155 326 -138 317 -146 b 304 -182 307 -163 304 -172 b 319 -224 304 -197 309 -212 b 357 -252 330 -236 342 -245 b 404 -262 373 -259 388 -262 b 498 -220 439 -262 470 -248 b 539 -125 526 -193 539 -161 b 524 -68 539 -106 534 -87 b 479 -29 514 -50 498 -37 l 479 1 b 546 22 502 5 524 12 b 637 96 583 39 614 63 b 673 215 661 127 673 168 b 665 281 673 236 670 258 b 566 240 630 262 597 249 b 478 227 535 231 506 227 b 357 256 433 227 393 237 b 262 332 321 275 289 300 b 194 438 235 364 212 399 b 153 557 176 477 161 517 b 138 670 143 597 138 635 b 141 714 138 686 139 700 b 169 795 146 753 155 780 b 218 819 182 811 199 819 b 268 809 233 819 250 816 b 325 781 286 802 304 793 b 398 751 350 768 374 758 b 332 666 369 726 347 697 b 309 572 317 635 309 604 b 340 471 309 536 319 503 b 434 393 360 439 391 413 b 401 443 419 410 408 426 b 391 492 395 459 391 475 b 412 569 391 518 398 544 b 466 642 427 594 444 618 b 535 707 488 665 511 687 b 603 762 559 727 582 745 b 623 777 610 767 616 772 b 638 789 627 780 633 785 l 639 789 b 689 857 661 809 677 831 b 707 936 701 882 707 909 b 681 1027 707 967 698 998 b 633 993 667 1013 651 1002 b 582 973 616 984 599 977 b 541 964 565 968 551 966 b 525 962 532 964 527 963 l 524 962 b 465 959 505 960 486 959 b 266 981 398 959 332 966 b 138 1025 199 996 157 1011 b 155 932 149 991 155 960 b 136 839 155 898 149 867 b 88 755 122 811 106 783 b 38 667 70 728 54 699 b 5 556 22 635 11 598 b 0 485 1 532 0 509 b 41 279 0 414 14 345 b 159 109 68 214 107 157 b 345 7 210 60 272 26 b 409 -3 366 1 388 -2 z "},"ć":{"ha":737,"x_min":0,"x_max":0,"o":"m 425 -3 b 673 215 553 -3 673 73 b 665 281 673 236 670 258 b 478 227 595 243 534 227 b 138 670 254 227 138 494 b 141 714 138 686 139 700 b 218 819 151 791 179 819 b 325 781 248 819 285 803 b 398 751 350 768 374 758 b 309 572 340 701 309 635 b 434 393 309 500 349 432 b 391 492 404 426 391 459 b 623 777 391 606 542 713 b 638 789 628 780 633 785 l 639 789 b 707 936 682 827 707 882 b 681 1027 707 967 699 999 b 524 962 627 969 524 962 b 465 959 505 960 486 959 b 138 1025 332 959 169 999 b 155 932 150 991 155 960 b 5 556 155 795 28 727 b 0 485 2 532 0 509 b 345 7 0 273 126 62 b 425 -3 372 0 399 -3 z m 368 1105 b 532 1322 430 1105 532 1211 b 529 1354 532 1333 531 1343 l 410 1354 l 341 1115 b 368 1105 349 1109 358 1105 z "},"ĉ":{"ha":737,"x_min":0,"x_max":0,"o":"m 425 -3 b 673 215 553 -3 673 73 b 665 281 673 236 670 258 b 478 227 595 243 534 227 b 138 670 254 227 138 494 b 141 714 138 686 139 700 b 218 819 151 791 179 819 b 325 781 248 819 285 803 b 398 751 350 768 374 758 b 309 572 340 701 309 635 b 434 393 309 500 349 432 b 391 492 404 426 391 459 b 623 777 391 606 542 713 b 638 789 628 780 633 785 l 639 789 b 707 936 682 827 707 882 b 681 1027 707 967 699 999 b 524 962 627 969 524 962 b 465 959 505 960 486 959 b 138 1025 332 959 169 999 b 155 932 150 991 155 960 b 5 556 155 795 28 727 b 0 485 2 532 0 509 b 345 7 0 273 126 62 b 425 -3 372 0 399 -3 z m 511 1152 b 540 1197 530 1159 540 1175 b 489 1298 540 1227 522 1265 b 383 1354 452 1335 417 1354 b 228 1196 315 1354 228 1263 b 256 1152 228 1175 237 1159 b 384 1230 332 1204 358 1230 b 511 1152 410 1230 435 1204 z "},"č":{"ha":737,"x_min":0,"x_max":0,"o":"m 425 -3 b 673 215 553 -3 673 73 b 665 281 673 236 670 258 b 478 227 595 243 534 227 b 138 670 254 227 138 494 b 141 714 138 686 139 700 b 218 819 151 791 179 819 b 325 781 248 819 285 803 b 398 751 350 768 374 758 b 309 572 340 701 309 635 b 434 393 309 500 349 432 b 391 492 404 426 391 459 b 623 777 391 606 542 713 b 638 789 628 780 633 785 l 639 789 b 707 936 682 827 707 882 b 681 1027 707 967 699 999 b 524 962 627 969 524 962 b 465 959 505 960 486 959 b 138 1025 332 959 169 999 b 155 932 150 991 155 960 b 5 556 155 795 28 727 b 0 485 2 532 0 509 b 345 7 0 273 126 62 b 425 -3 372 0 399 -3 z m 511 1354 b 384 1276 435 1303 410 1276 b 256 1354 358 1276 332 1303 b 228 1310 237 1348 228 1331 b 383 1152 228 1243 315 1152 b 489 1208 417 1153 452 1171 b 540 1310 522 1241 540 1280 b 511 1354 540 1331 530 1348 z "},"è":{"ha":759,"x_min":0,"x_max":0,"o":"m 439 -1 b 694 216 571 -1 694 75 b 686 283 694 237 691 259 b 496 227 620 248 555 227 b 279 381 406 227 328 273 b 253 490 262 419 253 458 b 300 560 253 531 269 560 b 375 527 319 560 344 551 b 582 440 448 471 524 440 b 688 556 645 440 688 476 b 675 645 688 581 684 610 b 562 590 640 603 602 590 b 399 621 509 590 453 613 b 362 623 386 622 374 623 b 215 475 258 623 215 557 b 231 385 215 446 220 416 b 142 672 172 474 142 585 b 225 820 142 773 176 820 b 335 783 256 820 294 804 b 505 737 397 751 454 737 b 728 936 642 737 728 837 b 701 1027 728 968 720 999 b 539 962 646 970 539 962 b 479 960 520 960 500 960 b 142 1026 342 960 174 999 b 160 933 155 991 160 961 b 5 557 160 795 29 728 b 0 486 2 534 0 510 b 356 9 0 274 130 64 b 439 -1 383 2 412 -1 z m 421 1105 b 448 1115 431 1105 441 1109 l 379 1354 l 260 1354 b 258 1322 258 1343 258 1333 b 421 1105 258 1211 359 1105 z "},"é":{"ha":759,"x_min":0,"x_max":0,"o":"m 439 -1 b 694 216 571 -1 694 75 b 686 283 694 237 691 259 b 496 227 620 248 555 227 b 279 381 406 227 328 273 b 253 490 262 419 253 458 b 300 560 253 531 269 560 b 375 527 319 560 344 551 b 582 440 448 471 524 440 b 688 556 645 440 688 476 b 675 645 688 581 684 610 b 562 590 640 603 602 590 b 399 621 509 590 453 613 b 362 623 386 622 374 623 b 215 475 258 623 215 557 b 231 385 215 446 220 416 b 142 672 172 474 142 585 b 225 820 142 773 176 820 b 335 783 256 820 294 804 b 505 737 397 751 454 737 b 728 936 642 737 728 837 b 701 1027 728 968 720 999 b 539 962 646 970 539 962 b 479 960 520 960 500 960 b 142 1026 342 960 174 999 b 160 933 155 991 160 961 b 5 557 160 795 29 728 b 0 486 2 534 0 510 b 356 9 0 274 130 64 b 439 -1 383 2 412 -1 z m 399 1105 b 562 1322 460 1105 562 1211 b 559 1354 562 1333 562 1343 l 441 1354 l 372 1115 b 399 1105 379 1109 389 1105 z "},"ê":{"ha":759,"x_min":0,"x_max":0,"o":"m 439 -1 b 694 216 571 -1 694 75 b 686 283 694 237 691 259 b 496 227 620 248 555 227 b 279 381 406 227 328 273 b 253 490 262 419 253 458 b 300 560 253 531 269 560 b 375 527 319 560 344 551 b 582 440 448 471 524 440 b 688 556 645 440 688 476 b 675 645 688 581 684 610 b 562 590 640 603 602 590 b 399 621 509 590 453 613 b 362 623 386 622 374 623 b 215 475 258 623 215 557 b 231 385 215 446 220 416 b 142 672 172 474 142 585 b 225 820 142 773 176 820 b 335 783 256 820 294 804 b 505 737 397 751 454 737 b 728 936 642 737 728 837 b 701 1027 728 968 720 999 b 539 962 646 970 539 962 b 479 960 520 960 500 960 b 142 1026 342 960 174 999 b 160 933 155 991 160 961 b 5 557 160 795 29 728 b 0 486 2 534 0 510 b 356 9 0 274 130 64 b 439 -1 383 2 412 -1 z m 511 1152 b 540 1197 530 1159 540 1175 b 489 1298 540 1227 522 1265 b 383 1354 452 1335 417 1354 b 228 1196 315 1354 228 1263 b 256 1152 228 1175 237 1159 b 384 1230 332 1204 358 1230 b 511 1152 410 1230 435 1204 z "},"ë":{"ha":759,"x_min":0,"x_max":0,"o":"m 439 -1 b 694 216 571 -1 694 75 b 686 283 694 237 691 259 b 496 227 620 248 555 227 b 279 381 406 227 328 273 b 253 490 262 419 253 458 b 300 560 253 531 269 560 b 375 527 319 560 344 551 b 582 440 448 471 524 440 b 688 556 645 440 688 476 b 675 645 688 581 684 610 b 562 590 640 603 602 590 b 399 621 509 590 453 613 b 362 623 386 622 374 623 b 215 475 258 623 215 557 b 231 385 215 446 220 416 b 142 672 172 474 142 585 b 225 820 142 773 176 820 b 335 783 256 820 294 804 b 505 737 397 751 454 737 b 728 936 642 737 728 837 b 701 1027 728 968 720 999 b 539 962 646 970 539 962 b 479 960 520 960 500 960 b 142 1026 342 960 174 999 b 160 933 155 991 160 961 b 5 557 160 795 29 728 b 0 486 2 534 0 510 b 356 9 0 274 130 64 b 439 -1 383 2 412 -1 z m 285 1185 b 372 1272 332 1185 372 1225 b 285 1359 372 1320 332 1359 b 199 1272 237 1359 199 1320 b 285 1185 199 1225 237 1185 z m 518 1185 b 605 1272 566 1185 605 1225 b 518 1359 605 1320 566 1359 b 432 1272 471 1359 432 1320 b 518 1185 432 1225 471 1185 z "},"ē":{"ha":759,"x_min":0,"x_max":0,"o":"m 439 -1 b 694 216 571 -1 694 75 b 686 283 694 237 691 259 b 496 227 620 248 555 227 b 279 381 406 227 328 273 b 253 490 262 419 253 458 b 300 560 253 531 269 560 b 375 527 319 560 344 551 b 582 440 448 471 524 440 b 688 556 645 440 688 476 b 675 645 688 581 684 610 b 562 590 640 603 602 590 b 399 621 509 590 453 613 b 362 623 386 622 374 623 b 215 475 258 623 215 557 b 231 385 215 446 220 416 b 142 672 172 474 142 585 b 225 820 142 773 176 820 b 335 783 256 820 294 804 b 505 737 397 751 454 737 b 728 936 642 737 728 837 b 701 1027 728 968 720 999 b 539 962 646 970 539 962 b 479 960 520 960 500 960 b 142 1026 342 960 174 999 b 160 933 155 991 160 961 b 5 557 160 795 29 728 b 0 486 2 534 0 510 b 356 9 0 274 130 64 b 439 -1 383 2 412 -1 z m 510 1274 b 539 1307 529 1274 539 1290 b 510 1339 539 1323 529 1339 l 506 1339 b 395 1327 437 1331 416 1327 b 286 1339 375 1327 355 1331 b 253 1306 264 1339 253 1327 b 281 1274 253 1290 262 1274 l 286 1274 b 395 1286 355 1282 375 1286 b 506 1274 416 1286 437 1282 z "},"ě":{"ha":759,"x_min":0,"x_max":0,"o":"m 439 -1 b 694 216 571 -1 694 75 b 686 283 694 237 691 259 b 496 227 620 248 555 227 b 279 381 406 227 328 273 b 253 490 262 419 253 458 b 300 560 253 531 269 560 b 375 527 319 560 344 551 b 582 440 448 471 524 440 b 688 556 645 440 688 476 b 675 645 688 581 684 610 b 562 590 640 603 602 590 b 399 621 509 590 453 613 b 362 623 386 622 374 623 b 215 475 258 623 215 557 b 231 385 215 446 220 416 b 142 672 172 474 142 585 b 225 820 142 773 176 820 b 335 783 256 820 294 804 b 505 737 397 751 454 737 b 728 936 642 737 728 837 b 701 1027 728 968 720 999 b 539 962 646 970 539 962 b 479 960 520 960 500 960 b 142 1026 342 960 174 999 b 160 933 155 991 160 961 b 5 557 160 795 29 728 b 0 486 2 534 0 510 b 356 9 0 274 130 64 b 439 -1 383 2 412 -1 z m 511 1354 b 384 1276 435 1303 410 1276 b 256 1354 358 1276 332 1303 b 228 1310 237 1348 228 1331 b 383 1152 228 1243 315 1152 b 489 1208 417 1153 452 1171 b 540 1310 522 1241 540 1280 b 511 1354 540 1331 530 1348 z "},"ì":{"ha":350,"x_min":0,"x_max":0,"o":"m 309 -1 b 242 509 264 150 242 330 b 299 988 242 678 262 846 l 11 988 b 67 510 48 846 67 679 b 0 -1 67 330 45 149 z m 180 1105 b 208 1115 191 1105 200 1109 l 138 1354 l 20 1354 b 17 1322 18 1343 17 1333 b 180 1105 17 1211 118 1105 z "},"í":{"ha":350,"x_min":0,"x_max":0,"o":"m 309 -1 b 242 509 264 150 242 330 b 299 988 242 678 262 846 l 11 988 b 67 510 48 846 67 679 b 0 -1 67 330 45 149 z m 133 1105 b 296 1322 195 1105 296 1211 b 294 1354 296 1333 296 1343 l 175 1354 l 106 1115 b 133 1105 113 1109 123 1105 z "},"î":{"ha":350,"x_min":0,"x_max":0,"o":"m 309 -1 b 242 509 264 150 242 330 b 299 988 242 678 262 846 l 11 988 b 67 510 48 846 67 679 b 0 -1 67 330 45 149 z m 273 1152 b 302 1197 292 1159 302 1175 b 251 1298 302 1227 283 1265 b 145 1354 214 1335 179 1354 b -10 1196 77 1354 -10 1263 b 18 1152 -10 1175 -1 1159 b 146 1230 94 1204 120 1230 b 273 1152 172 1230 197 1204 z "},"ï":{"ha":350,"x_min":0,"x_max":0,"o":"m 309 -1 b 242 509 264 150 242 330 b 299 988 242 678 262 846 l 11 988 b 67 510 48 846 67 679 b 0 -1 67 330 45 149 z m 40 1185 b 127 1272 87 1185 127 1225 b 40 1359 127 1320 87 1359 b -46 1272 -7 1359 -46 1320 b 40 1185 -46 1225 -7 1185 z m 273 1185 b 360 1272 321 1185 360 1225 b 273 1359 360 1320 321 1359 b 187 1272 226 1359 187 1320 b 273 1185 187 1225 226 1185 z "},"ī":{"ha":350,"x_min":0,"x_max":0,"o":"m 309 -1 b 242 509 264 150 242 330 b 299 988 242 678 262 846 l 11 988 b 67 510 48 846 67 679 b 0 -1 67 330 45 149 z m 265 1274 b 294 1307 284 1274 294 1290 b 265 1339 294 1323 284 1339 l 261 1339 b 151 1327 192 1331 171 1327 b 41 1339 130 1327 110 1331 b 8 1306 19 1339 8 1327 b 37 1274 8 1290 18 1274 l 41 1274 b 151 1286 110 1282 130 1286 b 261 1274 171 1286 192 1282 z "},"ð":{"ha":856,"x_min":0,"x_max":0,"o":"m 426 -2 b 635 87 495 -2 572 30 b 788 483 736 178 788 330 b 366 977 788 728 652 977 l 335 977 b 167 974 279 977 222 974 b 0 988 111 974 54 977 b 111 526 80 941 111 737 l 54 533 b 17 491 29 533 17 512 b 54 448 17 469 30 448 l 59 448 b 111 454 79 450 96 452 b 35 -2 105 248 73 50 l 317 -2 b 297 54 309 9 302 28 b 426 -2 329 16 375 -2 z m 382 51 b 300 132 347 51 315 79 b 267 457 288 197 276 324 l 344 448 l 349 448 b 387 491 374 448 387 469 b 350 533 387 512 374 533 l 344 532 b 264 523 309 529 283 526 b 257 759 260 607 257 690 b 268 915 257 836 260 895 b 310 949 277 937 291 948 l 311 949 b 564 457 397 947 564 739 b 511 184 564 372 548 279 b 382 51 475 92 426 51 z "},"ñ":{"ha":892,"x_min":0,"x_max":0,"o":"m 88 -88 b 292 125 190 -88 292 -15 b 249 300 292 175 279 233 b 111 711 193 425 130 576 b 105 786 107 738 105 764 b 197 959 105 903 152 959 b 279 819 239 959 279 910 b 267 656 279 776 267 722 b 397 122 267 479 316 252 b 612 -29 454 30 538 -29 b 772 258 699 -29 772 52 b 752 643 772 346 752 500 b 859 962 752 790 774 925 b 724 1008 821 993 773 1008 b 522 814 623 1008 522 941 b 567 651 522 768 536 713 b 709 193 648 493 709 330 b 618 20 709 75 663 20 b 535 159 576 20 535 68 b 547 325 535 203 547 258 b 417 857 547 501 498 726 b 203 1008 360 949 277 1008 b 42 720 115 1008 42 927 b 64 304 42 629 64 460 b -46 -38 64 147 42 3 b 88 -88 -9 -72 39 -88 z m 540 1209 b 631 1275 583 1209 617 1225 b 633 1289 632 1280 633 1285 b 610 1307 633 1301 626 1307 b 554 1301 597 1307 576 1301 b 300 1347 475 1301 374 1347 b 212 1286 258 1347 226 1333 b 207 1262 208 1276 207 1267 b 223 1250 207 1253 212 1250 b 287 1255 239 1250 255 1253 b 540 1209 365 1255 467 1209 z "},"ò":{"ha":927,"x_min":0,"x_max":0,"o":"m 467 -3 b 934 479 701 -3 934 158 b 488 1008 934 791 717 1008 b 229 901 399 1008 309 975 b 311 910 257 907 285 910 b 733 515 532 910 668 718 b 770 307 759 435 770 366 b 583 61 770 146 687 61 b 174 596 377 61 216 351 b 161 718 165 648 161 688 b 191 794 161 772 174 794 b 327 509 239 794 327 635 b 319 450 327 488 325 469 b 522 646 465 475 522 559 b 290 884 522 762 422 884 b 174 853 253 884 214 875 b 0 479 60 792 0 627 b 467 -3 0 158 233 -3 z m 484 1105 b 511 1115 494 1105 504 1109 l 442 1354 l 323 1354 b 321 1322 321 1343 321 1333 b 484 1105 321 1211 422 1105 z "},"ó":{"ha":927,"x_min":0,"x_max":0,"o":"m 467 -3 b 934 479 701 -3 934 158 b 488 1008 934 791 717 1008 b 229 901 399 1008 309 975 b 311 910 257 907 285 910 b 733 515 532 910 668 718 b 770 307 759 435 770 366 b 583 61 770 146 687 61 b 174 596 377 61 216 351 b 161 718 165 648 161 688 b 191 794 161 772 174 794 b 327 509 239 794 327 635 b 319 450 327 488 325 469 b 522 646 465 475 522 559 b 290 884 522 762 422 884 b 174 853 253 884 214 875 b 0 479 60 792 0 627 b 467 -3 0 158 233 -3 z m 479 1105 b 642 1322 541 1105 642 1211 b 640 1354 642 1333 642 1343 l 521 1354 l 452 1115 b 479 1105 459 1109 469 1105 z "},"ô":{"ha":927,"x_min":0,"x_max":0,"o":"m 467 -3 b 934 479 701 -3 934 158 b 488 1008 934 791 717 1008 b 229 901 399 1008 309 975 b 311 910 257 907 285 910 b 733 515 532 910 668 718 b 770 307 759 435 770 366 b 583 61 770 146 687 61 b 174 596 377 61 216 351 b 161 718 165 648 161 688 b 191 794 161 772 174 794 b 327 509 239 794 327 635 b 319 450 327 488 325 469 b 522 646 465 475 522 559 b 290 884 522 762 422 884 b 174 853 253 884 214 875 b 0 479 60 792 0 627 b 467 -3 0 158 233 -3 z m 591 1152 b 620 1197 610 1159 620 1175 b 569 1298 620 1227 602 1265 b 463 1354 532 1335 497 1354 b 308 1196 395 1354 308 1263 b 336 1152 308 1175 317 1159 b 464 1230 412 1204 438 1230 b 591 1152 490 1230 515 1204 z "},"õ":{"ha":927,"x_min":0,"x_max":0,"o":"m 467 -3 b 934 479 701 -3 934 158 b 488 1008 934 791 717 1008 b 229 901 399 1008 309 975 b 311 910 257 907 285 910 b 733 515 532 910 668 718 b 770 307 759 435 770 366 b 583 61 770 146 687 61 b 174 596 377 61 216 351 b 161 718 165 648 161 688 b 191 794 161 772 174 794 b 327 509 239 794 327 635 b 319 450 327 488 325 469 b 522 646 465 475 522 559 b 290 884 522 762 422 884 b 174 853 253 884 214 875 b 0 479 60 792 0 627 b 467 -3 0 158 233 -3 z m 591 1209 b 682 1275 634 1209 668 1225 b 684 1289 683 1280 684 1285 b 661 1307 684 1301 677 1307 b 605 1301 648 1307 627 1301 b 351 1347 526 1301 425 1347 b 262 1286 309 1347 277 1333 b 258 1262 259 1276 258 1267 b 274 1250 258 1253 263 1250 b 338 1255 290 1250 306 1253 b 591 1209 416 1255 517 1209 z "},"ö":{"ha":927,"x_min":0,"x_max":0,"o":"m 467 -3 b 934 479 701 -3 934 158 b 488 1008 934 791 717 1008 b 229 901 399 1008 309 975 b 311 910 257 907 285 910 b 733 515 532 910 668 718 b 770 307 759 435 770 366 b 583 61 770 146 687 61 b 174 596 377 61 216 351 b 161 718 165 648 161 688 b 191 794 161 772 174 794 b 327 509 239 794 327 635 b 319 450 327 488 325 469 b 522 646 465 475 522 559 b 290 884 522 762 422 884 b 174 853 253 884 214 875 b 0 479 60 792 0 627 b 467 -3 0 158 233 -3 z m 340 1185 b 427 1272 387 1185 427 1225 b 340 1359 427 1320 387 1359 b 254 1272 292 1359 254 1320 b 340 1185 254 1225 292 1185 z m 573 1185 b 660 1272 621 1185 660 1225 b 573 1359 660 1320 621 1359 b 487 1272 526 1359 487 1320 b 573 1185 487 1225 526 1185 z "},"ŕ":{"ha":791,"x_min":0,"x_max":0,"o":"m 559 -39 b 764 186 701 -39 764 71 b 540 461 764 321 675 461 b 467 447 516 461 491 456 b 707 805 576 568 707 700 b 398 991 707 937 524 991 b 104 979 300 991 205 979 b 6 984 72 979 39 981 b 54 435 33 905 54 663 b 0 -1 54 244 39 63 l 188 0 l 282 -1 b 275 81 277 28 275 55 b 476 372 275 260 392 372 b 562 245 539 372 562 318 b 469 -25 562 146 517 19 b 559 -39 503 -34 532 -39 z m 254 193 b 243 481 248 280 243 381 b 282 825 243 610 252 736 b 405 964 311 910 363 964 b 471 826 441 964 471 923 b 254 193 467 477 299 466 z m 348 1105 b 511 1322 410 1105 511 1211 b 509 1354 511 1333 511 1343 l 390 1354 l 321 1115 b 348 1105 328 1109 338 1105 z "},"ř":{"ha":791,"x_min":0,"x_max":0,"o":"m 559 -39 b 764 186 701 -39 764 71 b 540 461 764 321 675 461 b 467 447 516 461 491 456 b 707 805 576 568 707 700 b 398 991 707 937 524 991 b 104 979 300 991 205 979 b 6 984 72 979 39 981 b 54 435 33 905 54 663 b 0 -1 54 244 39 63 l 188 0 l 282 -1 b 275 81 277 28 275 55 b 476 372 275 260 392 372 b 562 245 539 372 562 318 b 469 -25 562 146 517 19 b 559 -39 503 -34 532 -39 z m 254 193 b 243 481 248 280 243 381 b 282 825 243 610 252 736 b 405 964 311 910 363 964 b 471 826 441 964 471 923 b 254 193 467 477 299 466 z m 481 1354 b 354 1276 406 1303 380 1276 b 226 1354 328 1276 302 1303 b 198 1310 207 1348 198 1331 b 353 1152 198 1243 285 1152 b 459 1208 387 1153 422 1171 b 510 1310 492 1241 510 1280 b 481 1354 510 1331 500 1348 z "},"ś":{"ha":725,"x_min":0,"x_max":0,"o":"m 347 -14 b 725 319 572 -14 725 149 b 340 642 725 502 540 590 b 83 775 153 690 83 740 b 201 824 83 804 132 824 b 621 592 324 824 513 764 b 721 760 692 648 721 706 b 416 1000 721 886 568 991 b 389 1001 407 1001 397 1001 b 0 709 172 1001 0 854 b 168 498 0 631 50 553 b 442 376 250 459 356 422 b 567 205 533 327 567 263 b 418 48 567 121 494 48 b 261 269 340 48 261 141 b 292 400 261 311 271 356 b 201 423 262 416 231 423 b 16 239 101 423 16 344 b 45 132 16 205 24 170 b 347 -14 102 29 233 -14 z m 373 1105 b 536 1322 435 1105 536 1211 b 534 1354 536 1333 536 1343 l 415 1354 l 346 1115 b 373 1105 353 1109 363 1105 z "},"ŝ":{"ha":725,"x_min":0,"x_max":0,"o":"m 347 -14 b 725 319 572 -14 725 149 b 340 642 725 502 540 590 b 83 775 153 690 83 740 b 201 824 83 804 132 824 b 621 592 324 824 513 764 b 721 760 692 648 721 706 b 416 1000 721 886 568 991 b 389 1001 407 1001 397 1001 b 0 709 172 1001 0 854 b 168 498 0 631 50 553 b 442 376 250 459 356 422 b 567 205 533 327 567 263 b 418 48 567 121 494 48 b 261 269 340 48 261 141 b 292 400 261 311 271 356 b 201 423 262 416 231 423 b 16 239 101 423 16 344 b 45 132 16 205 24 170 b 347 -14 102 29 233 -14 z m 511 1152 b 540 1197 530 1159 540 1175 b 489 1298 540 1227 522 1265 b 383 1354 452 1335 417 1354 b 228 1196 315 1354 228 1263 b 256 1152 228 1175 237 1159 b 384 1230 332 1204 358 1230 b 511 1152 410 1230 435 1204 z "},"ş":{"ha":725,"x_min":0,"x_max":0,"o":"m 299 -11 l 299 -68 b 300 -77 299 -72 299 -75 b 302 -81 300 -79 301 -81 b 307 -85 303 -83 305 -84 b 315 -90 309 -86 312 -88 b 371 -142 341 -107 359 -125 b 387 -190 382 -159 387 -176 b 373 -225 387 -204 382 -216 b 337 -239 363 -235 351 -239 b 284 -219 321 -239 303 -233 b 227 -153 264 -206 245 -184 b 202 -176 216 -159 207 -167 b 194 -203 197 -184 194 -193 b 210 -245 194 -218 199 -233 b 248 -273 220 -257 232 -267 b 294 -283 263 -280 278 -283 b 388 -241 329 -283 360 -269 b 429 -146 416 -214 429 -182 b 414 -90 429 -127 425 -109 b 369 -50 404 -71 389 -58 l 369 -13 b 545 34 435 -10 494 5 b 677 158 602 66 646 107 b 725 319 709 209 725 262 b 693 439 725 365 714 405 b 608 530 672 474 644 504 b 485 595 572 555 530 577 b 340 642 439 614 391 629 b 191 690 278 658 228 674 b 109 736 153 705 125 721 b 83 775 92 750 83 764 b 116 810 83 789 94 802 b 201 824 138 819 166 824 b 340 802 242 824 288 817 b 492 728 392 787 442 762 b 621 592 541 694 584 649 b 697 677 656 620 682 648 b 721 760 713 705 721 733 b 677 876 721 802 706 841 b 563 962 647 911 609 940 b 416 1000 517 985 468 997 b 389 1001 407 1001 397 1001 b 191 958 315 1000 250 985 b 52 849 133 930 87 893 b 0 709 18 804 0 758 b 40 595 0 670 14 632 b 168 498 66 558 109 526 b 273 452 201 483 236 468 b 442 376 332 429 389 404 b 538 294 487 351 519 323 b 567 205 557 264 567 235 b 522 96 567 163 552 127 b 418 48 491 64 456 48 b 344 77 393 48 368 58 b 284 155 319 96 300 122 b 261 269 269 189 261 226 b 292 400 261 311 271 355 b 201 423 261 416 231 423 b 109 399 168 423 137 415 b 41 334 81 383 58 361 b 16 239 24 306 16 274 b 45 132 16 206 26 170 b 123 49 65 98 91 71 b 231 1 156 27 192 12 b 299 -11 254 -5 277 -9 z "},"š":{"ha":725,"x_min":0,"x_max":0,"o":"m 347 -14 b 725 319 572 -14 725 149 b 340 642 725 502 540 590 b 83 775 153 690 83 740 b 201 824 83 804 132 824 b 621 592 324 824 513 764 b 721 760 692 648 721 706 b 416 1000 721 886 568 991 b 389 1001 407 1001 397 1001 b 0 709 172 1001 0 854 b 168 498 0 631 50 553 b 442 376 250 459 356 422 b 567 205 533 327 567 263 b 418 48 567 121 494 48 b 261 269 340 48 261 141 b 292 400 261 311 271 356 b 201 423 262 416 231 423 b 16 239 101 423 16 344 b 45 132 16 205 24 170 b 347 -14 102 29 233 -14 z m 511 1354 b 384 1276 435 1303 410 1276 b 256 1354 358 1276 332 1303 b 228 1310 237 1348 228 1331 b 383 1152 228 1243 315 1152 b 489 1208 417 1153 452 1171 b 540 1310 522 1241 540 1280 b 511 1354 540 1331 530 1348 z "},"÷":{"ha":438,"x_min":0,"x_max":0,"o":"m 185 593 b 286 694 241 593 286 639 b 185 796 286 751 241 796 b 83 694 130 796 83 751 b 185 593 83 639 130 593 z m 332 451 b 370 494 357 451 370 472 b 334 536 370 515 358 536 l 328 535 b 185 520 238 526 212 520 b 43 535 159 520 132 526 b 37 536 41 536 39 536 b 0 494 12 536 0 515 b 37 451 0 473 13 451 l 43 451 b 185 467 132 462 159 467 b 328 451 212 467 238 462 z m 185 190 b 286 292 241 190 286 235 b 185 393 286 348 241 393 b 83 292 130 393 83 348 b 185 190 83 235 130 190 z "},"ø":{"ha":1189,"x_min":0,"x_max":0,"o":"m 252 -243 l 371 24 b 560 -1 433 7 498 -1 b 1074 273 766 -1 991 90 b 1121 493 1105 340 1121 416 b 1074 713 1121 569 1105 646 b 787 951 1022 829 912 907 l 905 1216 l 869 1216 l 755 960 b 560 987 691 979 625 987 b 65 748 372 987 155 907 b 0 493 22 671 0 582 b 65 238 0 404 22 314 b 339 34 121 140 224 71 l 215 -243 z m 368 98 b 279 295 326 141 298 206 b 259 493 266 357 259 425 b 279 690 259 561 266 629 b 560 957 319 878 399 957 b 731 907 632 957 688 941 z m 560 30 b 393 75 490 30 437 44 l 757 883 b 843 687 797 839 825 775 b 862 493 855 626 862 559 b 843 298 862 426 855 359 b 560 30 803 111 722 30 z "},"ù":{"ha":759,"x_min":0,"x_max":0,"o":"m 362 -4 b 418 1 381 -4 400 -3 b 627 57 498 13 555 57 b 718 34 655 57 684 51 b 692 397 698 63 692 220 b 705 983 692 665 705 981 b 555 972 671 977 614 972 b 410 983 505 972 453 975 b 530 470 472 915 530 673 b 467 208 530 358 512 258 b 293 131 422 156 357 131 b 96 317 193 131 96 195 b 261 653 96 402 142 514 b 327 810 306 705 327 760 b 102 991 327 910 244 991 b 0 979 70 991 35 987 b 92 717 70 896 92 806 b 31 363 92 595 52 473 b 24 300 26 341 24 320 b 362 -4 24 112 193 -4 z m 370 1105 b 397 1115 380 1105 390 1109 l 328 1354 l 210 1354 b 207 1322 208 1343 207 1333 b 370 1105 207 1211 308 1105 z "},"ú":{"ha":759,"x_min":0,"x_max":0,"o":"m 362 -4 b 418 1 381 -4 400 -3 b 627 57 498 13 555 57 b 718 34 655 57 684 51 b 692 397 698 63 692 220 b 705 983 692 665 705 981 b 555 972 671 977 614 972 b 410 983 505 972 453 975 b 530 470 472 915 530 673 b 467 208 530 358 512 258 b 293 131 422 156 357 131 b 96 317 193 131 96 195 b 261 653 96 402 142 514 b 327 810 306 705 327 760 b 102 991 327 910 244 991 b 0 979 70 991 35 987 b 92 717 70 896 92 806 b 31 363 92 595 52 473 b 24 300 26 341 24 320 b 362 -4 24 112 193 -4 z m 386 1105 b 549 1322 448 1105 549 1211 b 547 1354 549 1333 549 1343 l 428 1354 l 359 1115 b 386 1105 366 1109 376 1105 z "},"û":{"ha":759,"x_min":0,"x_max":0,"o":"m 362 -4 b 418 1 381 -4 400 -3 b 627 57 498 13 555 57 b 718 34 655 57 684 51 b 692 397 698 63 692 220 b 705 983 692 665 705 981 b 555 972 671 977 614 972 b 410 983 505 972 453 975 b 530 470 472 915 530 673 b 467 208 530 358 512 258 b 293 131 422 156 357 131 b 96 317 193 131 96 195 b 261 653 96 402 142 514 b 327 810 306 705 327 760 b 102 991 327 910 244 991 b 0 979 70 991 35 987 b 92 717 70 896 92 806 b 31 363 92 595 52 473 b 24 300 26 341 24 320 b 362 -4 24 112 193 -4 z m 511 1152 b 540 1197 530 1159 540 1175 b 489 1298 540 1227 522 1265 b 383 1354 452 1335 417 1354 b 228 1196 315 1354 228 1263 b 256 1152 228 1175 237 1159 b 384 1230 332 1204 358 1230 b 511 1152 410 1230 435 1204 z "},"ü":{"ha":759,"x_min":0,"x_max":0,"o":"m 362 -4 b 418 1 381 -4 400 -3 b 627 57 498 13 555 57 b 718 34 655 57 684 51 b 692 397 698 63 692 220 b 705 983 692 665 705 981 b 555 972 671 977 614 972 b 410 983 505 972 453 975 b 530 470 472 915 530 673 b 467 208 530 358 512 258 b 293 131 422 156 357 131 b 96 317 193 131 96 195 b 261 653 96 402 142 514 b 327 810 306 705 327 760 b 102 991 327 910 244 991 b 0 979 70 991 35 987 b 92 717 70 896 92 806 b 31 363 92 595 52 473 b 24 300 26 341 24 320 b 362 -4 24 112 193 -4 z m 239 1185 b 326 1272 286 1185 326 1225 b 239 1359 326 1320 286 1359 b 153 1272 191 1359 153 1320 b 239 1185 153 1225 191 1185 z m 472 1185 b 559 1272 519 1185 559 1225 b 472 1359 559 1320 519 1359 b 386 1272 425 1359 386 1320 b 472 1185 386 1225 425 1185 z "},"ų":{"ha":759,"x_min":0,"x_max":0,"o":"m 791 -191 b 824 -178 806 -191 817 -186 b 834 -149 831 -169 834 -159 b 825 -121 834 -139 831 -130 b 798 -108 819 -112 809 -108 b 783 -110 793 -108 788 -109 b 740 -117 768 -115 753 -117 b 650 -67 701 -117 671 -100 b 617 57 629 -34 618 7 l 627 57 b 718 34 655 57 685 50 b 692 397 701 64 692 184 b 705 976 692 590 696 783 l 705 983 b 555 972 665 975 615 972 b 410 983 505 972 457 976 b 494 774 442 945 470 875 b 530 470 517 673 530 571 b 467 208 530 345 509 257 b 387 150 444 182 418 163 b 293 131 357 137 325 131 b 198 152 260 131 228 138 b 125 215 168 166 143 187 b 96 317 106 243 96 277 b 261 653 96 412 151 524 b 327 810 305 705 327 758 b 300 901 327 844 318 874 b 223 966 282 928 256 950 b 102 991 190 983 149 991 b 0 979 70 991 36 987 b 92 717 62 904 92 817 b 80 590 92 674 88 632 b 53 465 72 547 63 506 b 31 363 45 430 37 396 b 24 300 26 341 24 320 b 54 174 24 253 34 211 b 130 78 73 136 98 104 b 239 17 162 52 199 31 b 362 -4 279 3 320 -4 b 515 29 412 -4 463 7 b 570 48 533 37 551 43 b 657 -146 572 -37 601 -102 b 791 -191 689 -173 734 -187 z "},"ŵ":{"ha":1222,"x_min":0,"x_max":0,"o":"m 775 -3 b 1027 214 865 -3 970 85 b 1188 867 1118 418 1188 739 b 977 1082 1188 1018 1070 1082 b 820 995 913 1082 852 1053 b 852 1002 831 1000 842 1002 b 1016 511 958 1002 1016 747 b 981 233 1016 407 1004 306 b 892 119 960 165 922 119 b 847 229 867 119 848 151 b 819 624 845 370 842 506 b 535 1025 789 789 707 1025 b 412 990 498 1025 457 1015 b 591 462 545 854 591 641 b 494 142 591 285 546 142 b 412 286 467 142 437 184 b 332 759 365 471 348 682 b 0 984 283 995 194 981 b 201 184 159 642 114 442 b 408 -1 242 60 325 -1 b 621 189 492 -1 578 62 b 775 -3 641 54 703 -3 z m 684 1152 b 713 1197 703 1159 713 1175 b 662 1298 713 1227 694 1265 b 556 1354 625 1335 590 1354 b 401 1196 488 1354 401 1263 b 429 1152 401 1175 410 1159 b 557 1230 505 1204 531 1230 b 684 1152 583 1230 608 1204 z "},"ý":{"ha":757,"x_min":0,"x_max":0,"o":"m 321 -15 b 633 207 465 -15 616 47 b 680 713 652 370 627 557 b 726 891 703 777 726 831 b 544 1068 726 1019 635 1068 b 373 986 470 1067 397 1035 b 595 724 539 986 595 857 b 469 441 595 585 532 441 b 393 525 442 441 415 465 b 311 854 348 644 326 805 b 73 984 277 975 210 984 l 0 984 b 267 379 151 722 60 444 b 338 369 290 372 313 369 b 563 468 419 369 504 408 b 123 79 465 238 282 79 b 66 87 104 79 85 82 b 321 -15 96 26 206 -15 z m 348 1105 b 511 1322 410 1105 511 1211 b 509 1354 511 1333 511 1343 l 390 1354 l 321 1115 b 348 1105 328 1109 338 1105 z "},"ŷ":{"ha":757,"x_min":0,"x_max":0,"o":"m 321 -15 b 633 207 465 -15 616 47 b 680 713 652 370 627 557 b 726 891 703 777 726 831 b 544 1068 726 1019 635 1068 b 373 986 470 1067 397 1035 b 595 724 539 986 595 857 b 469 441 595 585 532 441 b 393 525 442 441 415 465 b 311 854 348 644 326 805 b 73 984 277 975 210 984 l 0 984 b 267 379 151 722 60 444 b 338 369 290 372 313 369 b 563 468 419 369 504 408 b 123 79 465 238 282 79 b 66 87 104 79 85 82 b 321 -15 96 26 206 -15 z m 511 1152 b 540 1197 530 1159 540 1175 b 489 1298 540 1227 522 1265 b 383 1354 452 1335 417 1354 b 228 1196 315 1354 228 1263 b 256 1152 228 1175 237 1159 b 384 1230 332 1204 358 1230 b 511 1152 410 1230 435 1204 z "},"þ":{"ha":770,"x_min":0,"x_max":0,"o":"m 329 -2 b 284 126 311 22 296 68 b 703 493 564 138 703 315 b 284 859 703 671 564 848 b 329 988 296 918 311 964 l 0 988 b 74 493 49 923 74 708 b 0 -2 74 278 49 63 z m 280 151 b 256 493 264 246 256 370 b 280 834 256 616 264 739 b 503 493 429 819 503 656 b 280 151 503 330 429 168 z "},"ÿ":{"ha":757,"x_min":0,"x_max":0,"o":"m 321 -15 b 633 207 465 -15 616 47 b 680 713 652 370 627 557 b 726 891 703 777 726 831 b 544 1068 726 1019 635 1068 b 373 986 470 1067 397 1035 b 595 724 539 986 595 857 b 469 441 595 585 532 441 b 393 525 442 441 415 465 b 311 854 348 644 326 805 b 73 984 277 975 210 984 l 0 984 b 267 379 151 722 60 444 b 338 369 290 372 313 369 b 563 468 419 369 504 408 b 123 79 465 238 282 79 b 66 87 104 79 85 82 b 321 -15 96 26 206 -15 z m 243 1185 b 330 1272 290 1185 330 1225 b 243 1359 330 1320 290 1359 b 157 1272 195 1359 157 1320 b 243 1185 157 1225 195 1185 z m 476 1185 b 563 1272 524 1185 563 1225 b 476 1359 563 1320 524 1359 b 390 1272 429 1359 390 1320 b 476 1185 390 1225 429 1185 z "},"ź":{"ha":1023,"x_min":0,"x_max":0,"o":"m -10 -14 b 195 33 31 22 104 33 b 789 -12 368 33 606 -12 b 989 65 873 -12 989 -4 b 958 140 989 85 981 109 b 848 374 916 199 848 275 b 941 573 848 432 872 498 b 841 585 905 582 872 585 b 606 407 697 585 606 501 b 682 266 606 359 630 309 b 812 174 726 229 772 206 b 859 109 845 148 859 127 b 658 42 859 60 750 42 b 547 53 612 42 570 46 b 389 303 439 85 389 186 b 728 777 389 490 515 720 b 884 924 825 802 884 866 b 677 1034 884 983 823 1034 b 216 962 528 1034 323 962 b 105 1034 159 962 117 980 b 53 868 68 969 53 913 b 204 726 53 778 115 726 b 514 888 292 726 406 776 b 721 1000 594 970 667 1000 b 812 931 777 1000 812 968 b 621 831 812 886 758 835 b -10 -14 199 819 138 185 z m 479 1105 b 642 1322 541 1105 642 1211 b 640 1354 642 1333 642 1343 l 521 1354 l 452 1115 b 479 1105 459 1109 469 1105 z "},"ž":{"ha":1023,"x_min":0,"x_max":0,"o":"m -10 -14 b 195 33 31 22 104 33 b 789 -12 368 33 606 -12 b 989 65 873 -12 989 -4 b 958 140 989 85 981 109 b 848 374 916 199 848 275 b 941 573 848 432 872 498 b 841 585 905 582 872 585 b 606 407 697 585 606 501 b 682 266 606 359 630 309 b 812 174 726 229 772 206 b 859 109 845 148 859 127 b 658 42 859 60 750 42 b 547 53 612 42 570 46 b 389 303 439 85 389 186 b 728 777 389 490 515 720 b 884 924 825 802 884 866 b 677 1034 884 983 823 1034 b 216 962 528 1034 323 962 b 105 1034 159 962 117 980 b 53 868 68 969 53 913 b 204 726 53 778 115 726 b 514 888 292 726 406 776 b 721 1000 594 970 667 1000 b 812 931 777 1000 812 968 b 621 831 812 886 758 835 b -10 -14 199 819 138 185 z m 591 1354 b 464 1276 515 1303 490 1276 b 336 1354 438 1276 412 1303 b 308 1310 317 1348 308 1331 b 463 1152 308 1243 395 1152 b 569 1208 497 1153 532 1171 b 620 1310 602 1241 620 1280 b 591 1354 620 1331 610 1348 z "},"ı":{"ha":94,"x_min":0,"x_max":0,"o":"m 0 945 l 0 29 l 26 29 l 26 945 z "},"ˆ":{"ha":380,"x_min":0,"x_max":0,"o":"m 283 789 b 312 834 302 796 312 812 b 261 935 312 864 294 903 b 155 991 224 972 189 991 b 0 833 87 991 0 901 b 28 789 0 812 9 796 b 156 867 104 842 130 867 b 283 789 182 867 208 842 z "},"ˇ":{"ha":380,"x_min":0,"x_max":0,"o":"m 283 991 b 156 913 208 940 182 913 b 28 991 130 913 104 940 b 0 947 9 985 0 968 b 155 789 0 880 87 789 b 261 846 189 790 224 808 b 312 947 294 878 312 917 b 283 991 312 968 302 985 z "},"˘":{"ha":302,"x_min":0,"x_max":0,"o":"m 117 858 b 235 962 174 858 235 897 b 183 1021 235 992 216 1021 b 164 1019 177 1021 171 1021 b 172 960 170 996 172 977 b 119 878 172 905 146 878 b 63 962 91 878 63 906 b 71 1019 63 978 66 997 b 52 1021 64 1021 58 1021 b 0 961 19 1021 0 991 b 117 858 0 897 62 858 z "},"˚":{"ha":363,"x_min":0,"x_max":0,"o":"m 148 740 b 296 888 230 740 296 806 b 148 1037 296 971 230 1037 b 0 888 66 1037 0 971 b 148 740 0 806 66 740 z m 148 783 b 88 888 115 783 88 831 b 148 994 88 947 115 994 b 208 888 181 994 208 947 b 148 783 208 831 181 783 z "},"˛":{"ha":332,"x_min":0,"x_max":0,"o":"m 221 -191 b 264 -149 251 -191 264 -170 b 228 -108 264 -128 251 -108 b 214 -110 223 -108 218 -109 b 170 -117 198 -115 184 -117 b 48 56 94 -117 48 -43 l 0 56 b 221 -191 0 -48 49 -183 z "},"˜":{"ha":494,"x_min":0,"x_max":0,"o":"m 333 876 b 424 941 376 876 410 891 b 426 956 425 947 426 951 b 404 973 426 967 419 973 b 347 967 390 973 370 967 b 94 1013 269 967 167 1013 b 5 952 52 1013 19 999 b 0 928 1 942 0 934 b 16 916 0 919 5 916 b 80 921 33 916 48 920 b 333 876 158 921 260 876 z "},"˝":{"ha":452,"x_min":0,"x_max":0,"o":"m 27 755 b 191 972 89 755 191 861 b 188 1004 191 983 190 994 l 69 1004 l 0 765 b 27 755 7 759 17 755 z m 221 755 b 385 972 283 755 385 861 b 382 1004 385 983 384 994 l 263 1004 l 194 765 b 221 755 201 759 211 755 z "},"–":{"ha":984,"x_min":0,"x_max":0,"o":"m 916 500 l 0 500 l 0 474 l 916 474 z "},"—":{"ha":1527,"x_min":0,"x_max":0,"o":"m 1459 500 l 0 500 l 0 474 l 1459 474 z "},"‘":{"ha":206,"x_min":0,"x_max":0,"o":"m 121 823 b 138 827 127 823 133 824 l 134 1027 b 68 1080 133 1063 101 1080 b 0 1025 30 1080 0 1061 b 121 823 0 923 68 823 z "},"’":{"ha":206,"x_min":0,"x_max":0,"o":"m 17 823 b 138 1025 70 823 138 923 b 70 1080 138 1061 109 1080 b 5 1027 37 1080 5 1063 l 0 827 b 17 823 5 824 11 823 z "},"‚":{"ha":205,"x_min":0,"x_max":0,"o":"m 16 -190 b 138 12 69 -190 138 -90 b 70 66 138 47 108 66 b 4 14 37 66 5 50 l 0 -186 b 16 -190 5 -189 11 -190 z "},"“":{"ha":371,"x_min":0,"x_max":0,"o":"m 121 823 b 138 827 127 823 132 824 l 134 1027 b 68 1080 132 1063 100 1080 b 0 1025 30 1080 0 1061 b 121 823 0 923 68 823 z m 287 823 b 303 827 292 823 298 824 l 299 1027 b 233 1080 298 1063 266 1080 b 165 1025 195 1080 165 1061 b 287 823 165 923 234 823 z "},"”":{"ha":371,"x_min":0,"x_max":0,"o":"m 182 823 b 303 1025 235 823 303 923 b 235 1080 303 1061 273 1080 b 170 1027 203 1080 171 1063 l 165 827 b 182 823 171 824 176 823 z m 16 823 b 138 1025 69 823 138 923 b 70 1080 138 1061 108 1080 b 4 1027 37 1080 5 1063 l 0 827 b 16 823 5 824 11 823 z "},"„":{"ha":371,"x_min":0,"x_max":0,"o":"m 182 -190 b 303 12 235 -190 303 -90 b 235 66 303 47 273 66 b 170 14 203 66 171 50 l 165 -186 b 182 -190 171 -189 176 -190 z m 16 -190 b 138 12 69 -190 138 -90 b 70 66 138 47 108 66 b 4 14 37 66 5 50 l 0 -186 b 16 -190 5 -189 11 -190 z "},"•":{"ha":363,"x_min":0,"x_max":0,"o":"m 148 248 b 296 397 230 248 296 315 b 148 545 296 478 230 545 b 0 397 66 545 0 478 b 148 248 0 315 66 248 z "},"…":{"ha":945,"x_min":0,"x_max":0,"o":"m 101 -5 b 202 97 157 -5 202 41 b 101 198 202 153 157 198 b 0 97 45 198 0 153 b 101 -5 0 41 45 -5 z m 439 -5 b 540 97 494 -5 540 41 b 439 198 540 153 494 198 b 338 97 383 198 338 153 b 439 -5 338 41 383 -5 z m 777 -5 b 878 97 832 -5 878 41 b 777 198 878 153 832 198 b 675 97 721 198 675 153 b 777 -5 675 41 721 -5 z "},"‹":{"ha":345,"x_min":0,"x_max":0,"o":"m 229 108 b 277 151 252 108 277 127 b 269 173 277 157 275 165 b 106 481 161 320 106 401 b 269 790 106 563 161 644 b 277 812 274 798 277 805 b 229 855 277 836 252 854 b 196 832 216 855 203 848 b 7 504 124 666 115 650 b 0 481 3 497 0 490 b 7 459 0 474 3 467 b 196 131 115 313 124 297 b 229 108 203 115 216 108 z "},"›":{"ha":345,"x_min":0,"x_max":0,"o":"m 47 108 b 81 131 60 108 73 115 b 269 459 153 297 161 313 b 277 481 274 467 277 474 b 269 504 277 490 274 497 b 81 832 161 650 153 666 b 47 855 74 848 61 855 b 0 812 24 854 0 836 b 8 790 0 805 2 798 b 170 481 116 644 170 563 b 8 173 170 401 116 320 b 0 151 2 165 0 157 b 47 108 0 127 24 108 z "},"⁄":{"ha":896,"x_min":0,"x_max":0,"o":"m 785 1347 l 0 -401 l 43 -401 l 828 1347 z "},"∕":{"ha":896,"x_min":0,"x_max":0,"o":"m 785 1347 l 0 -401 l 43 -401 l 828 1347 z "},"₧":{"ha":1712,"x_min":0,"x_max":0,"o":"m 951 -13 b 885 381 921 94 885 256 b 977 557 885 481 908 557 b 1140 663 1078 557 1140 611 b 964 758 1140 711 1087 758 l 958 758 b 767 735 905 758 837 747 b 783 804 778 760 783 783 b 479 991 783 935 597 991 l 476 991 b 159 972 370 991 269 972 b 0 988 108 972 56 977 b 133 423 96 932 133 667 b 74 -2 133 228 109 47 l 357 -2 b 345 85 349 28 345 57 b 623 535 345 256 490 386 b 868 651 709 538 802 574 b 1008 730 919 709 969 730 b 1086 673 1055 730 1086 702 b 953 606 1086 640 1048 606 b 690 -13 642 606 784 134 z m 329 192 b 318 484 323 280 318 382 b 357 825 318 611 327 736 b 479 964 385 909 437 964 b 547 823 517 964 547 922 l 547 815 b 538 710 546 777 543 741 b 421 764 478 711 433 726 b 403 688 408 736 403 711 b 495 558 403 628 439 584 b 329 192 441 439 359 374 z m 1367 -13 b 1645 233 1533 -13 1645 107 l 1645 245 b 1362 470 1636 375 1491 436 b 1172 568 1223 505 1172 542 b 1259 604 1172 589 1207 604 b 1568 433 1349 604 1489 559 b 1642 557 1620 474 1642 517 b 1417 734 1642 650 1529 728 b 1397 734 1410 734 1404 734 l 1396 734 b 1110 519 1236 734 1110 627 b 1234 363 1110 461 1147 404 b 1436 274 1294 336 1373 309 b 1528 149 1503 238 1528 191 b 1419 33 1528 86 1474 33 b 1363 55 1400 33 1380 39 b 1303 195 1328 84 1303 136 b 1326 292 1303 227 1310 260 b 1259 309 1303 304 1280 309 b 1122 174 1185 309 1122 251 b 1144 94 1122 149 1129 122 b 1315 -9 1176 37 1243 2 b 1367 -13 1333 -12 1350 -13 z "},"€":{"ha":874,"x_min":0,"x_max":0,"o":"m 551 1 b 806 220 682 1 806 81 b 793 300 806 245 802 272 b 499 219 678 243 580 219 b 233 378 361 219 272 288 b 327 366 253 375 283 371 l 332 366 b 370 409 357 366 370 387 b 333 451 370 430 357 451 l 327 450 b 214 437 267 444 236 439 b 208 494 210 456 208 475 b 212 540 208 509 209 524 b 327 526 234 537 266 532 l 332 526 b 370 568 357 526 370 547 b 332 611 370 589 357 611 l 327 610 b 227 598 278 605 248 601 b 503 773 264 695 357 773 b 793 692 583 773 680 749 b 806 773 802 721 806 748 b 553 991 806 912 684 991 b 491 986 532 991 511 989 b 129 600 281 946 161 783 b 42 610 109 603 81 606 l 37 611 b 0 568 12 611 0 589 b 37 526 0 547 12 526 l 42 526 b 120 535 76 530 101 532 l 119 498 b 121 441 119 479 120 460 b 42 450 102 444 77 446 l 37 451 b 0 409 12 451 0 430 b 37 366 0 387 12 366 l 42 366 l 132 377 b 491 7 168 201 288 45 b 551 1 511 3 531 1 z "},"₤":{"ha":865,"x_min":0,"x_max":0,"o":"m 756 -53 b 788 47 778 -22 788 12 b 566 250 788 148 705 250 b 416 214 522 250 471 239 b 313 183 376 197 341 183 b 237 293 271 183 242 212 l 236 315 l 236 330 l 328 319 l 332 319 b 370 362 357 319 370 340 b 333 404 370 383 357 404 l 244 394 b 262 463 248 416 254 439 l 328 454 l 332 454 b 370 497 357 454 370 476 b 333 539 370 518 357 539 l 290 534 b 586 758 347 654 448 758 b 785 692 646 758 712 739 b 798 773 793 721 798 748 b 545 991 798 912 675 991 b 484 986 525 991 504 989 b 110 531 262 944 124 742 b 43 539 93 533 71 536 l 37 539 b 0 497 12 539 0 518 b 37 454 0 476 12 454 l 43 454 l 110 463 l 111 458 b 121 395 112 436 116 414 b 43 404 102 397 77 400 l 37 404 b 0 362 12 404 0 383 b 37 319 0 340 12 319 l 43 319 b 143 332 92 325 121 329 b 237 88 180 243 237 179 b 214 -18 237 56 231 22 b 497 30 243 4 375 30 b 603 22 534 30 570 28 b 756 -53 603 22 706 8 z "},"№":{"ha":1384,"x_min":0,"x_max":0,"o":"m 134 -88 b 338 125 236 -88 338 -15 b 295 300 338 175 326 233 b 157 711 239 425 176 576 b 151 786 153 738 151 764 b 243 959 151 903 198 959 b 326 819 285 959 326 910 b 313 656 326 776 313 722 b 443 122 313 479 362 252 b 659 -29 500 30 584 -29 b 819 258 745 -29 819 52 b 798 643 819 346 798 500 b 905 962 798 790 820 925 b 770 1008 867 993 819 1008 b 568 814 669 1008 568 941 b 613 651 568 768 582 713 b 755 193 694 493 755 330 b 664 20 755 75 709 20 b 581 159 622 20 581 68 b 593 325 581 203 593 258 b 463 857 593 501 544 726 b 249 1008 406 949 323 1008 b 88 720 161 1008 88 927 b 110 304 88 629 110 460 b 0 -38 110 147 88 3 b 134 -88 37 -72 85 -88 z m 1095 212 b 1316 441 1205 212 1316 288 b 1105 692 1316 589 1213 692 b 981 641 1063 692 1019 676 b 1021 645 995 644 1008 645 b 1221 458 1126 645 1190 554 b 1238 359 1233 420 1238 387 b 1149 243 1238 283 1199 243 b 956 496 1052 243 975 380 b 949 554 951 521 949 540 b 964 590 949 580 956 590 b 1028 455 987 590 1028 515 b 1025 427 1028 445 1027 436 b 1121 520 1094 439 1121 479 b 1010 633 1121 575 1074 633 b 956 618 994 633 975 629 b 873 441 901 589 873 511 b 1095 212 873 288 984 212 z m 1267 31 b 1312 81 1297 31 1312 56 b 1267 131 1312 106 1297 131 l 1262 131 b 1094 112 1156 118 1125 112 b 927 131 1063 112 1032 118 b 878 81 893 131 878 112 b 921 31 878 56 892 31 l 927 31 b 1094 50 1032 43 1063 50 b 1262 31 1125 50 1156 43 z "},"™":{"ha":1083,"x_min":0,"x_max":0,"o":"m 348 389 b 292 719 322 477 292 614 b 370 867 292 804 311 867 b 507 957 454 867 507 913 b 358 1037 507 998 462 1037 l 353 1037 b 96 996 261 1036 163 996 b 22 1042 61 996 34 1008 b 0 953 7 1008 0 979 b 102 849 0 887 43 849 b 278 947 155 849 220 880 b 396 1014 321 996 363 1014 b 461 964 435 1014 461 989 b 349 909 461 937 429 909 b 128 389 87 909 206 511 z m 389 269 b 518 423 450 269 513 322 l 518 439 b 427 684 518 576 429 625 l 427 699 b 496 838 427 794 464 838 b 539 769 519 838 539 814 b 532 718 539 754 536 737 b 523 646 526 695 523 671 b 676 426 523 547 573 444 b 701 424 684 425 693 424 b 804 519 757 424 804 458 b 802 545 804 528 803 536 b 754 680 793 592 768 643 b 715 842 734 728 718 788 l 715 850 b 772 947 715 910 742 947 b 842 854 798 947 827 919 b 865 637 856 792 865 713 b 811 379 865 530 848 428 l 1015 379 b 969 686 985 419 969 552 b 1015 992 969 819 985 951 b 971 989 1002 990 987 989 b 837 996 928 989 880 996 b 688 848 758 996 692 974 l 688 841 b 729 673 688 787 704 726 b 772 528 760 606 772 558 b 752 491 772 503 764 491 b 700 562 736 491 713 515 b 625 775 661 690 675 678 b 502 869 596 832 548 869 b 384 686 448 869 396 817 b 378 542 379 633 378 585 l 378 516 b 306 308 378 415 376 346 b 389 269 329 282 359 269 z "},"≈":{"ha":494,"x_min":0,"x_max":0,"o":"m 333 458 b 424 524 376 458 410 473 b 426 538 425 529 426 534 b 404 555 426 549 419 555 b 347 549 390 555 370 549 b 94 595 269 549 167 595 b 5 534 52 595 19 581 b 0 511 1 524 0 516 b 16 498 0 501 5 498 b 80 503 33 498 48 502 b 333 458 158 503 260 458 z m 333 264 b 424 330 376 264 410 279 b 426 344 425 335 426 340 b 404 361 426 355 419 361 b 347 355 390 361 370 355 b 94 401 269 355 167 401 b 5 340 52 401 19 387 b 0 317 1 330 0 322 b 16 304 0 307 5 304 b 80 309 33 304 48 308 b 333 264 158 309 260 264 z "},"≤":{"ha":354,"x_min":0,"x_max":0,"o":"m 227 298 b 259 335 245 298 259 317 b 242 361 259 345 254 355 b 101 446 148 402 101 424 b 242 530 101 468 148 490 b 260 556 254 536 260 546 b 226 593 260 574 244 593 b 210 588 220 593 215 592 b 18 477 98 504 146 532 b 0 446 6 472 0 459 b 18 414 0 433 6 420 b 210 304 146 359 98 387 b 227 298 216 300 221 298 z m 257 180 b 286 214 276 180 286 197 b 257 246 286 230 276 246 l 253 246 b 142 234 184 238 163 234 b 33 246 122 234 102 238 b 0 213 11 246 0 234 b 28 180 0 197 9 180 l 33 180 b 142 193 102 189 122 193 b 253 180 163 193 184 189 z "},"≥":{"ha":354,"x_min":0,"x_max":0,"o":"m 59 298 b 77 304 64 298 71 300 b 268 414 189 387 140 359 b 286 446 280 420 286 433 b 268 477 286 459 280 472 b 77 588 140 532 189 504 b 60 593 71 592 66 593 b 26 556 41 593 26 574 b 44 530 26 546 31 536 b 185 446 138 490 185 468 b 44 361 185 424 138 402 b 26 335 32 355 26 345 b 59 298 26 317 41 298 z m 29 180 l 33 180 b 144 193 102 189 123 193 b 254 180 164 193 184 189 l 258 180 b 286 213 277 180 286 197 b 254 246 286 234 275 246 b 144 234 184 238 164 234 b 33 246 123 234 102 238 l 29 246 b 0 214 9 246 0 230 b 29 180 0 197 9 180 z "},"":{"ha":1440,"x_min":0,"x_max":0,"o":"m 764 -181 b 981 -76 850 -181 930 -144 b 1040 136 1021 -25 1040 51 b 977 412 1040 224 1020 321 b 853 675 930 509 853 585 b 970 871 853 731 883 793 b 1286 -2 1062 598 1006 -2 l 1400 -2 b 1213 876 1293 277 1284 724 b 895 988 1166 972 1072 988 b 957 905 920 971 941 943 b 564 271 721 806 754 271 b 515 281 549 271 533 273 b 739 155 595 191 673 155 b 912 368 841 155 912 245 b 893 481 912 403 906 441 b 992 210 940 408 992 299 b 869 60 992 140 960 81 b 795 52 844 55 819 52 b 439 424 588 52 456 259 b 669 690 516 509 605 591 b 708 804 696 733 708 771 b 405 991 708 935 522 991 b 107 979 305 991 210 979 b 5 984 74 979 40 981 b 54 433 33 905 54 661 b 0 -2 54 241 39 61 l 283 -2 b 275 80 277 26 275 54 b 373 345 275 184 315 268 l 372 341 b 368 269 369 317 368 293 b 713 -177 368 56 493 -142 b 764 -181 730 -180 747 -181 z m 254 192 b 243 479 249 279 243 380 b 283 825 243 608 252 735 b 406 964 311 909 363 964 b 471 826 442 964 471 922 l 471 816 b 254 192 466 473 300 469 z "},"":{"ha":1729,"x_min":0,"x_max":0,"o":"m 673 -140 b 1208 75 838 -140 1040 -60 b 1729 689 1453 271 1729 498 b 1311 994 1729 811 1616 918 b 1190 1008 1272 1003 1231 1008 b 724 526 957 1007 724 847 b 898 153 724 378 784 213 b 1015 121 939 131 978 121 b 1246 359 1147 121 1246 243 b 1043 555 1246 446 1188 531 b 1050 496 1048 536 1050 517 b 915 212 1050 370 962 212 b 885 287 897 212 885 233 b 898 409 885 317 889 357 b 1289 944 936 636 1085 926 b 1311 945 1296 945 1303 945 b 1493 713 1437 945 1493 845 b 1181 136 1493 517 1372 252 b 859 43 1081 74 967 43 b 422 404 643 43 449 165 b 670 690 503 496 601 583 b 709 804 697 733 709 771 b 406 991 709 935 524 991 b 109 979 307 991 210 979 b 7 984 75 979 41 981 b 55 436 34 905 55 663 b 0 -2 55 243 39 62 l 283 -2 b 275 79 277 26 275 53 b 354 317 275 171 307 248 b 343 197 347 274 343 234 b 673 -140 343 -39 486 -140 z m 255 192 b 244 484 250 280 244 383 b 283 825 244 612 253 736 b 406 964 312 909 364 964 b 473 823 444 964 473 922 l 473 816 b 255 192 467 473 301 469 z "},"":{"ha":1469,"x_min":0,"x_max":0,"o":"m 1036 -255 b 1390 127 1227 -255 1390 -139 l 1390 147 b 1068 -45 1276 8 1165 -45 b 734 337 873 -45 734 171 b 743 403 734 360 737 382 b 1070 88 785 256 899 129 b 1150 79 1097 82 1124 79 b 1398 280 1278 79 1398 149 b 1390 341 1398 299 1395 319 b 1203 290 1321 306 1259 290 b 901 524 1053 290 951 402 l 915 525 b 1056 499 954 525 1002 517 b 1220 468 1118 479 1173 468 b 1362 586 1308 468 1362 505 b 1333 707 1362 619 1353 659 b 885 565 1265 565 1043 616 b 863 699 871 612 863 658 b 943 836 863 792 895 836 b 1050 801 972 836 1009 821 b 1215 759 1110 772 1166 759 b 1432 943 1348 759 1432 851 b 1405 1027 1432 972 1423 1001 b 1249 967 1351 974 1249 967 b 1192 964 1230 965 1211 964 b 862 1025 1058 964 894 1000 b 880 939 874 993 880 965 b 730 594 880 813 753 751 b 725 528 727 572 725 550 b 732 446 725 500 728 473 b 685 283 700 396 685 340 b 774 44 685 199 718 113 b 474 461 608 130 480 290 b 669 690 542 532 614 604 b 709 804 697 733 709 771 b 399 991 709 939 521 991 b 104 979 300 991 205 979 b 6 983 72 979 39 981 b 54 435 33 904 54 662 b 0 -2 54 243 39 61 l 141 -2 b 282 -3 189 -2 235 -2 b 275 78 277 26 275 52 b 422 405 275 212 340 311 l 421 368 b 1036 -255 421 -14 760 -255 z m 254 192 b 243 482 249 279 243 382 b 282 825 243 610 252 736 b 405 963 311 909 363 963 b 472 823 442 963 472 924 b 254 192 470 475 301 473 z "},"":{"ha":1575,"x_min":0,"x_max":0,"o":"m 1178 -5 b 1234 -1 1197 -5 1216 -4 b 1444 55 1314 10 1371 55 b 1534 32 1471 55 1500 49 b 1508 397 1514 61 1508 218 b 1522 983 1508 646 1520 935 l 1128 983 b 1354 472 1284 883 1354 660 b 1337 323 1354 418 1348 368 b 1074 109 1303 182 1178 109 b 920 250 991 109 920 156 b 1084 570 920 326 965 432 b 1154 728 1133 626 1154 680 b 915 906 1154 832 1051 906 b 822 895 885 906 854 903 b 858 755 847 862 858 812 b 726 299 858 598 782 385 b 584 205 682 233 631 205 b 457 351 515 205 457 267 b 538 528 457 404 480 466 b 669 690 585 578 632 631 b 709 804 697 733 709 771 b 406 991 709 936 523 991 l 399 991 b 103 979 301 991 205 979 b 6 983 72 979 39 981 b 54 435 33 904 54 662 b 0 -2 54 243 39 61 l 142 -2 b 283 -3 189 -2 236 -2 b 275 79 277 26 275 53 b 357 322 275 174 309 251 b 346 231 350 290 346 260 b 530 -3 346 92 431 -3 b 597 11 553 -3 575 1 b 899 763 780 89 891 564 b 909 673 906 730 909 701 b 846 361 909 574 871 493 b 840 298 842 339 840 318 b 1178 -5 840 111 1008 -5 z m 255 192 b 244 484 250 280 244 383 b 283 825 244 612 253 736 b 406 963 312 909 363 963 l 406 963 b 473 823 444 963 473 922 l 473 816 b 255 192 466 473 301 469 z "},"":{"ha":1227,"x_min":0,"x_max":0,"o":"m 903 924 b 1008 1029 961 924 1008 970 b 903 1134 1008 1086 961 1134 b 799 1029 846 1134 799 1086 b 903 924 799 970 846 924 z m 803 -186 b 1225 373 996 -186 1190 -28 b 1227 414 1227 386 1227 399 b 969 863 1227 580 1152 811 b 921 871 951 868 935 871 b 660 205 703 871 796 342 l 990 205 b 927 420 947 251 927 319 b 932 517 927 450 928 481 b 1029 781 950 708 989 781 b 1160 425 1093 781 1160 604 b 1082 150 1160 323 1139 220 b 871 49 1025 79 949 49 b 458 444 679 49 468 232 b 669 690 530 522 610 598 b 709 804 696 733 709 771 b 406 991 709 936 523 991 l 399 991 b 103 979 300 991 205 979 b 6 983 71 979 39 981 b 54 435 33 904 54 662 b 0 -2 54 243 39 61 l 141 -2 b 282 -3 189 -2 235 -2 b 275 79 277 26 275 53 b 394 372 275 197 325 288 b 389 341 392 362 390 351 b 383 267 385 316 383 291 b 803 -186 383 1 592 -186 z m 254 192 b 243 482 249 279 243 382 b 282 825 243 610 252 736 b 405 963 311 909 363 963 l 406 963 b 472 823 443 963 472 922 l 472 816 b 254 192 466 473 300 469 z "},"":{"ha":1462,"x_min":0,"x_max":0,"o":"m 896 -180 b 1459 318 1170 -180 1459 75 l 1458 336 b 1387 490 1455 398 1428 448 b 1392 511 1389 497 1390 504 b 1403 638 1399 551 1403 594 b 1149 1000 1403 808 1340 990 b 1125 1001 1141 1001 1133 1001 l 1123 1001 b 759 722 913 1001 759 863 b 937 497 759 639 811 555 b 1176 376 1018 459 1090 422 b 1261 322 1210 357 1238 340 b 817 85 1156 168 979 85 b 444 428 629 85 461 195 b 669 690 519 512 606 592 b 708 804 696 733 708 771 b 406 991 708 936 523 991 l 399 991 b 104 979 301 991 205 979 b 7 983 73 979 40 981 b 55 436 34 905 55 663 b 0 -2 55 243 39 62 l 142 -2 b 283 -3 189 -2 236 -2 b 275 79 277 26 275 54 b 346 305 275 167 303 239 b 345 273 345 294 345 284 b 847 -178 345 59 534 -142 b 896 -180 863 -180 880 -180 z m 254 192 b 244 482 250 279 244 382 b 283 825 244 610 253 736 b 406 963 311 909 363 963 l 406 963 b 473 823 444 963 473 922 l 473 816 b 254 192 466 473 301 469 z m 1345 526 b 1109 642 1270 581 1204 617 b 836 770 909 693 836 739 b 966 813 836 797 892 813 b 1348 564 1118 813 1348 746 b 1345 526 1348 552 1347 540 z m 1009 41 b 954 43 991 41 972 42 b 1299 290 1093 79 1217 172 b 1350 195 1334 256 1350 223 b 1009 41 1350 102 1192 41 z "},"":{"ha":1709,"x_min":0,"x_max":0,"o":"m 1261 -224 b 1626 98 1406 -224 1571 -105 b 1651 351 1646 171 1651 257 b 1646 649 1651 444 1646 545 b 1678 1013 1646 768 1652 892 b 1485 1023 1615 1015 1548 1023 b 1243 785 1357 1023 1249 987 l 1243 774 b 1309 515 1243 687 1268 600 b 1378 283 1359 408 1378 330 b 1346 222 1378 241 1364 222 b 1261 336 1320 222 1284 261 b 1142 857 1200 544 1223 700 b 943 1008 1095 949 1017 1008 b 751 713 854 1008 772 924 b 585 183 722 396 752 276 b 718 121 621 142 669 121 b 926 389 821 121 926 214 b 888 592 926 448 915 515 b 840 821 854 688 840 764 b 918 962 840 918 879 962 b 1000 836 959 962 1000 916 b 990 765 1000 814 997 791 b 964 572 973 699 964 636 b 1001 336 964 496 977 419 b 1263 113 1046 182 1163 113 b 1430 269 1354 113 1430 168 b 1427 308 1430 281 1430 294 b 1349 526 1413 384 1373 467 b 1287 774 1318 604 1291 689 l 1287 788 b 1375 943 1287 884 1328 943 b 1491 794 1417 943 1463 899 b 1549 408 1532 642 1549 515 b 1291 -5 1549 123 1424 -5 b 1029 193 1192 -5 1089 66 b 1021 85 1024 154 1021 118 b 1261 -224 1021 -130 1133 -224 z m 680 -184 b 898 -79 766 -184 846 -147 b 958 133 937 -28 958 47 b 955 187 958 151 957 169 b 738 47 893 90 815 47 b 418 399 590 47 444 200 b 670 690 500 493 600 581 b 709 804 697 733 709 770 b 406 991 709 936 524 991 l 399 991 b 104 979 301 991 205 979 b 7 983 72 979 40 981 b 55 436 34 905 55 663 b 0 -2 55 243 39 62 l 142 -2 b 283 -3 189 -2 236 -2 b 275 79 277 26 275 53 b 345 304 275 165 303 238 b 342 235 343 281 342 258 b 630 -180 342 35 422 -146 b 680 -184 647 -183 663 -184 z m 255 192 b 244 484 250 280 244 383 b 283 825 244 612 253 736 b 406 963 312 909 363 963 l 406 963 b 473 823 444 963 473 922 l 473 816 b 255 192 466 473 301 469 z "},"":{"ha":1431,"x_min":0,"x_max":0,"o":"m 772 -225 b 1091 101 934 -225 1040 -83 l 1119 100 b 1366 300 1246 100 1366 170 b 1358 362 1366 320 1363 340 b 1163 309 1286 326 1220 309 b 1124 312 1149 309 1137 311 b 1125 368 1124 330 1125 349 b 1020 800 1125 530 1090 690 b 1183 759 1080 771 1135 759 b 1400 943 1316 759 1400 851 b 1373 1027 1400 972 1392 1002 b 1217 967 1319 974 1217 967 b 1159 964 1198 965 1179 964 b 831 1025 1025 964 862 1000 b 848 940 843 994 848 965 b 698 594 848 813 721 751 b 693 530 694 572 693 551 b 1002 119 693 349 805 180 b 809 2 958 48 894 2 b 748 9 789 2 769 5 b 418 399 593 45 442 208 b 669 690 500 493 600 581 b 709 804 697 733 709 771 b 406 991 709 936 523 991 l 399 991 b 104 979 301 991 205 979 b 6 983 73 979 39 981 b 55 433 33 904 55 661 b 1 -2 55 241 39 61 l 142 -2 b 283 -3 189 -2 236 -2 b 275 79 277 26 275 53 b 347 305 275 166 304 239 b 345 269 346 293 345 281 b 690 -214 345 56 471 -155 b 772 -225 719 -221 747 -225 z m 255 192 b 243 481 250 279 243 381 b 283 825 243 610 253 736 b 406 963 312 909 363 963 l 406 963 b 472 826 443 963 472 922 l 472 816 b 255 192 467 473 301 469 z m 1067 326 b 831 699 911 382 831 566 b 834 739 831 713 832 726 b 890 838 844 808 864 838 b 1070 390 962 838 1070 604 b 1067 326 1070 368 1069 347 z "},"":{"ha":1566,"x_min":0,"x_max":0,"o":"m 996 -336 b 1048 -332 1014 -336 1031 -334 b 1543 202 1355 -293 1543 -12 b 1295 447 1543 338 1466 447 b 1257 446 1283 447 1270 447 b 1497 804 1367 567 1497 700 b 1191 991 1497 938 1311 991 b 876 972 1086 991 985 972 b 716 988 825 972 772 977 b 848 372 812 932 848 634 b 842 188 848 307 846 244 b 841 163 841 180 841 172 b 1115 -77 841 -1 971 -77 b 1384 20 1211 -77 1312 -43 b 1076 -127 1309 -84 1197 -127 b 425 408 781 -127 433 130 b 669 690 505 498 602 584 b 708 804 696 733 708 771 b 405 991 708 936 522 991 b 103 979 302 991 200 979 b 6 983 71 979 39 981 b 54 434 33 904 54 661 b 0 -2 54 242 39 61 l 141 -2 b 283 -3 189 -2 236 -2 b 275 80 277 26 275 54 b 374 345 275 184 315 269 b 373 309 373 333 373 321 b 996 -336 373 -81 720 -336 z m 254 192 b 243 479 249 279 243 380 b 283 825 243 608 252 735 b 405 963 311 909 363 963 b 471 826 442 963 471 924 l 471 816 b 254 192 466 473 300 469 z m 1044 192 b 1034 484 1039 280 1034 383 b 1072 825 1034 612 1042 736 b 1195 963 1101 909 1152 963 b 1262 823 1232 963 1262 924 b 1044 192 1260 475 1092 476 z m 1137 -16 b 1074 68 1100 -16 1074 8 b 1080 125 1074 85 1076 103 b 1316 404 1119 330 1228 404 b 1438 296 1383 404 1438 359 b 1137 -16 1438 170 1237 -16 z "},"":{"ha":1447,"x_min":0,"x_max":0,"o":"m 780 -182 b 998 -77 866 -182 946 -144 b 1057 136 1036 -26 1057 50 b 993 412 1057 223 1036 321 b 869 675 947 509 869 585 b 979 864 869 730 898 790 b 1293 -3 1068 588 1015 -3 l 1407 -3 b 1219 875 1300 276 1291 723 b 901 987 1174 972 1079 987 b 966 901 928 970 949 941 b 581 270 739 794 769 270 b 531 280 566 270 549 273 b 755 154 611 191 689 154 b 928 367 857 154 928 244 b 909 481 928 402 922 441 b 1008 209 956 407 1008 298 b 885 60 1008 139 977 80 b 812 52 860 54 836 52 b 454 439 598 52 464 272 b 521 505 476 464 499 485 b 754 831 638 618 754 711 b 751 865 754 842 753 853 b 551 1008 736 949 641 990 b 558 956 556 991 558 974 b 260 230 558 769 311 500 b 250 486 255 313 250 401 b 372 987 250 680 274 867 b 201 960 311 967 254 960 b 12 983 131 960 68 972 b 55 555 41 922 55 745 b 0 -3 55 327 35 81 l 286 -3 b 277 65 280 20 277 43 b 392 363 277 168 328 274 b 384 269 387 334 384 298 b 729 -178 384 56 510 -142 b 780 -182 746 -180 763 -182 z "},"":{"ha":1770,"x_min":0,"x_max":0,"o":"m 709 -140 b 1250 74 878 -140 1081 -61 b 1770 688 1495 271 1770 497 b 1352 993 1770 810 1657 918 b 1232 1007 1312 1002 1272 1007 b 765 526 999 1007 765 846 b 939 152 765 378 825 212 b 1055 121 979 130 1019 121 b 1287 358 1187 121 1287 243 b 1084 554 1287 446 1230 530 b 1091 495 1089 536 1091 516 b 956 211 1091 369 1004 211 b 926 286 938 211 926 233 b 939 408 926 316 930 357 b 1330 943 977 635 1126 925 b 1352 944 1337 944 1345 944 b 1533 712 1478 944 1533 844 b 1223 135 1533 517 1413 252 b 897 43 1122 73 1007 43 b 447 431 669 43 463 174 b 521 505 471 458 496 483 b 754 832 639 618 754 711 b 751 865 754 843 753 854 b 551 1008 736 949 641 990 b 558 956 556 991 558 974 b 260 230 558 769 310 500 b 250 485 255 313 250 399 b 372 987 250 680 274 867 b 201 960 310 967 253 960 b 12 983 130 960 68 972 b 56 557 42 923 56 746 b 0 -3 56 328 35 82 l 285 -3 b 277 65 279 20 277 42 b 389 359 277 165 326 271 b 371 200 377 300 371 248 b 709 -140 371 -39 517 -140 z "},"":{"ha":1475,"x_min":0,"x_max":0,"o":"m 1049 -260 b 1402 119 1240 -260 1402 -144 l 1402 140 b 1090 -46 1335 24 1213 -46 b 867 47 1012 -46 932 -18 b 740 338 788 125 740 240 b 748 403 740 361 743 382 b 1076 88 789 256 904 129 b 1155 79 1102 82 1128 79 b 1403 279 1283 79 1403 149 b 1395 341 1403 299 1400 319 b 1208 291 1326 306 1264 291 b 906 524 1058 291 957 402 l 923 525 b 1062 499 962 525 1008 517 b 1226 468 1124 479 1180 468 b 1368 585 1313 468 1368 505 b 1338 707 1368 618 1358 659 b 891 566 1272 565 1048 616 b 869 700 876 612 869 659 b 948 836 869 794 902 836 b 1056 801 978 836 1015 821 b 1220 759 1116 772 1171 759 b 1438 943 1353 759 1438 852 b 1411 1027 1438 972 1429 1001 b 1254 967 1357 974 1254 967 b 1196 964 1236 965 1216 964 b 868 1026 1062 964 899 1002 b 886 940 880 994 886 966 b 735 594 886 814 758 751 b 730 530 732 573 730 551 b 739 446 730 502 733 474 b 691 282 706 396 691 340 b 779 43 691 198 723 113 b 479 467 612 131 484 293 b 521 505 493 480 508 494 b 754 831 639 618 754 711 b 751 865 754 842 753 854 b 551 1009 736 949 640 991 b 558 956 556 992 558 975 b 259 231 558 770 310 501 b 250 484 255 313 250 399 b 372 987 250 679 273 867 b 201 961 311 968 254 961 b 12 984 131 961 68 973 b 56 557 41 924 56 747 b 0 -2 56 329 35 82 l 286 -2 b 277 65 280 20 277 43 b 429 410 277 186 348 313 b 427 368 428 396 427 382 b 1049 -260 427 -16 770 -260 z "},"":{"ha":1581,"x_min":0,"x_max":0,"o":"m 1185 -6 b 1240 -2 1203 -6 1222 -5 b 1450 55 1319 9 1377 55 b 1541 31 1477 55 1507 48 b 1514 406 1520 61 1514 223 b 1528 983 1514 651 1525 935 l 1134 983 b 1360 471 1291 882 1360 659 b 1343 323 1360 418 1354 367 b 1080 109 1309 181 1184 109 b 926 250 997 109 926 155 b 1089 569 926 326 971 432 b 1159 727 1138 625 1159 680 b 920 906 1159 832 1057 906 b 827 895 890 906 859 903 b 863 753 853 862 863 812 b 732 298 863 597 787 384 b 590 205 688 233 637 205 b 463 350 521 205 463 266 b 543 526 463 403 486 465 b 753 831 652 630 753 720 b 751 865 753 842 753 853 b 551 1008 735 949 640 990 b 558 956 556 991 558 974 b 259 230 558 769 310 500 b 250 484 254 313 250 399 b 372 987 250 679 273 866 b 201 960 311 967 254 960 b 12 983 130 960 68 972 b 55 555 41 922 55 745 b 0 -3 55 328 35 81 l 285 -3 b 277 65 279 20 277 42 b 363 321 277 152 313 241 b 352 231 356 290 352 259 b 537 -3 352 92 437 -3 b 604 11 559 -3 581 1 b 905 763 786 89 898 563 b 915 675 912 731 915 702 b 852 361 915 574 877 493 b 846 298 848 339 846 318 b 1185 -6 846 110 1015 -6 z "},"":{"ha":1236,"x_min":0,"x_max":0,"o":"m 912 923 b 1017 1028 970 923 1017 970 b 912 1133 1017 1086 970 1133 b 808 1028 854 1133 808 1086 b 912 923 808 970 854 923 z m 812 -186 b 1234 373 1005 -186 1200 -28 b 1236 415 1236 387 1236 400 b 979 863 1236 581 1160 810 b 930 870 961 868 945 870 b 669 204 712 870 806 342 l 999 204 b 936 420 956 250 936 319 b 941 516 936 450 937 481 b 1038 780 959 707 998 780 b 1169 424 1102 780 1169 603 b 1090 149 1169 322 1147 220 b 881 48 1034 79 959 48 b 467 452 686 48 471 237 b 521 505 484 472 503 490 b 754 831 638 618 754 711 b 751 865 754 842 753 853 b 551 1008 736 949 640 990 b 558 956 556 991 558 974 b 259 230 558 769 310 500 b 250 484 254 313 250 399 b 372 987 250 679 273 866 b 201 960 311 967 254 960 b 12 983 130 960 67 972 b 55 553 41 922 55 744 b 0 -3 55 326 35 81 l 285 -3 b 277 65 279 20 277 43 b 406 381 277 174 334 289 b 392 267 397 347 392 307 b 812 -186 392 1 602 -186 z "},"":{"ha":1489,"x_min":0,"x_max":0,"o":"m 922 -180 b 1485 317 1196 -180 1485 74 b 1414 490 1483 391 1463 439 b 1430 637 1424 542 1430 581 b 1177 1000 1430 808 1367 989 l 1149 1000 b 785 722 939 1000 785 863 b 962 497 785 639 838 555 b 1287 321 1069 446 1212 378 b 854 92 1185 170 1014 92 b 468 454 659 92 481 209 b 521 505 486 473 503 490 b 754 831 638 618 754 711 b 751 865 754 842 753 853 b 551 1008 736 949 640 990 b 558 956 556 991 558 974 b 259 230 558 769 310 500 b 250 484 254 313 250 399 b 372 987 250 679 273 866 b 201 960 311 967 254 960 b 12 983 131 960 68 972 b 56 556 41 923 56 746 b 0 -3 56 328 35 81 l 286 -3 b 277 66 280 20 277 43 b 378 343 277 160 320 258 l 378 340 b 371 272 374 317 371 294 b 873 -178 371 58 561 -142 b 922 -180 889 -180 906 -180 z m 1371 526 b 1135 641 1297 581 1230 616 b 863 769 935 692 863 738 b 992 812 863 796 918 812 b 1375 564 1144 812 1375 745 b 1371 526 1375 551 1373 538 z m 1034 40 b 981 42 1017 40 999 41 b 1325 290 1120 79 1244 172 b 1376 194 1360 256 1376 223 b 1034 40 1376 101 1218 40 z "},"":{"ha":1772,"x_min":0,"x_max":0,"o":"m 1314 -224 b 1679 98 1458 -224 1624 -106 b 1704 351 1699 170 1704 256 b 1699 646 1704 443 1699 543 b 1731 1012 1699 766 1705 890 b 1536 1023 1668 1014 1599 1023 b 1297 768 1396 1023 1300 981 b 1361 515 1297 683 1322 598 b 1430 281 1412 407 1430 330 b 1399 221 1430 241 1417 221 b 1314 336 1373 221 1337 260 b 1195 857 1253 543 1276 699 b 996 1008 1147 949 1069 1008 b 805 712 907 1008 825 924 b 637 182 774 396 806 275 b 770 121 674 141 722 121 b 979 389 873 121 979 213 b 941 591 979 447 968 515 b 893 820 907 688 893 763 b 971 961 893 918 932 961 b 1053 836 1012 961 1053 915 b 1043 764 1053 814 1050 790 b 1017 571 1025 699 1017 635 b 1053 335 1017 495 1029 418 b 1316 112 1098 182 1215 112 b 1482 269 1406 112 1482 168 b 1402 526 1482 349 1428 461 b 1339 786 1368 611 1341 693 b 1428 943 1339 884 1381 943 b 1544 793 1470 943 1516 898 b 1601 408 1584 642 1601 513 b 1344 -5 1601 122 1476 -5 b 1082 193 1245 -5 1142 65 b 1074 85 1077 154 1074 118 b 1314 -224 1074 -130 1185 -224 z m 730 -185 b 951 -79 819 -185 899 -148 b 1010 134 990 -28 1010 48 b 1008 186 1010 151 1010 168 b 791 47 946 89 868 47 b 467 453 629 47 471 228 b 521 505 484 472 503 490 b 753 831 638 618 753 711 b 751 865 753 842 753 853 b 551 1008 736 949 640 990 b 558 956 556 991 558 974 b 259 230 558 769 310 500 b 250 484 254 313 250 399 b 372 987 250 679 273 866 b 201 960 311 967 254 960 b 12 983 130 960 68 972 b 55 553 41 922 55 744 b 0 -3 55 326 35 81 l 286 -3 b 277 66 280 20 277 43 b 412 389 277 178 338 296 b 395 233 399 342 395 282 b 682 -181 395 34 475 -147 b 730 -185 699 -184 715 -185 z "},"":{"ha":1478,"x_min":0,"x_max":0,"o":"m 817 -226 b 1135 101 979 -226 1085 -84 l 1164 100 b 1411 300 1292 100 1411 170 b 1402 361 1411 319 1408 339 b 1208 309 1330 325 1265 309 b 1168 311 1194 309 1181 310 b 1170 366 1169 330 1170 348 b 1064 800 1170 528 1135 689 b 1227 758 1124 770 1179 758 b 1444 942 1360 758 1444 850 b 1417 1026 1444 971 1436 1000 b 1261 966 1364 973 1261 966 b 1202 964 1242 964 1223 964 b 876 1025 1069 964 906 1001 b 892 940 888 994 892 966 b 742 593 892 813 765 751 b 737 529 739 572 737 551 b 1046 119 737 348 849 180 b 854 1 1003 47 939 1 b 458 444 683 1 464 192 b 521 505 479 467 501 487 b 754 831 639 618 754 711 b 751 865 754 842 753 853 b 551 1008 736 949 641 990 b 559 956 557 991 559 974 b 259 230 559 770 310 500 b 250 484 254 313 250 399 b 372 987 250 679 273 866 b 201 960 311 967 254 960 b 12 983 130 960 68 972 b 56 555 42 922 56 745 b 0 -3 56 327 36 81 l 285 -3 b 277 64 279 20 277 42 b 400 374 277 171 332 282 b 389 269 392 344 389 302 b 734 -214 389 56 515 -156 b 817 -226 764 -222 791 -226 z m 1112 326 b 876 698 956 382 876 565 b 879 739 876 712 877 726 b 934 838 888 808 909 838 b 1115 389 1006 838 1115 604 b 1112 326 1115 368 1114 347 z "},"":{"ha":1583,"x_min":0,"x_max":0,"o":"m 1016 -336 b 1068 -333 1034 -336 1051 -335 b 1562 201 1375 -294 1562 -12 b 1314 447 1562 338 1485 447 b 1276 446 1302 447 1289 447 b 1518 804 1385 566 1518 699 b 1215 991 1518 935 1332 990 b 895 972 1107 991 1006 972 b 735 987 844 972 791 976 b 867 370 831 932 867 631 b 861 187 867 305 865 243 b 861 163 861 179 861 171 b 1134 -77 861 -2 991 -77 b 1403 19 1230 -77 1331 -44 b 1090 -128 1328 -85 1215 -128 b 424 404 791 -128 434 127 b 521 505 456 442 489 477 b 754 831 638 618 754 711 b 751 865 754 842 753 853 b 551 1008 736 949 641 990 b 558 956 556 991 558 974 b 260 230 558 769 311 500 b 250 484 255 313 250 399 b 372 987 250 679 274 866 b 201 960 311 967 254 960 b 12 983 131 960 68 972 b 56 558 42 923 56 747 b 0 -3 56 330 36 82 l 286 -3 b 277 66 280 20 277 43 b 372 333 277 157 317 251 l 371 312 b 1016 -336 371 -80 736 -336 z m 1064 191 b 1053 482 1059 279 1053 382 b 1092 824 1053 610 1062 736 b 1215 963 1120 909 1173 963 b 1281 825 1251 963 1281 922 b 1064 191 1278 475 1109 467 z m 1157 -16 b 1094 68 1120 -16 1094 8 b 1100 124 1094 84 1096 102 b 1334 404 1138 329 1247 404 b 1457 297 1402 404 1457 361 b 1157 -16 1457 170 1257 -16 z "},"":{"ha":1600,"x_min":0,"x_max":0,"o":"m 555 -38 b 687 -7 606 -38 652 -30 b 728 62 716 13 728 36 b 530 437 728 151 588 279 b 498 602 508 495 498 551 b 878 957 498 819 678 957 b 1055 920 937 957 997 945 b 1396 515 1211 852 1337 702 b 1433 307 1422 436 1433 366 b 1246 62 1433 146 1350 62 b 1228 62 1240 62 1234 62 b 837 597 1024 80 876 370 b 825 719 828 648 825 689 b 854 795 825 773 837 795 b 990 509 902 795 990 636 b 983 452 990 489 987 469 b 1185 648 1128 475 1185 559 b 953 886 1185 763 1085 886 b 836 854 916 886 877 876 b 664 480 723 793 664 627 b 1131 -2 664 159 897 -2 b 1597 480 1364 -2 1597 159 b 1058 1031 1597 821 1348 1017 b 1023 1032 1046 1032 1035 1032 l 1020 1032 b 317 519 638 1032 317 736 b 389 370 317 462 340 410 b 531 273 438 332 486 308 b 624 123 597 221 624 168 b 486 3 624 54 561 3 b 244 387 382 3 255 102 b 242 465 243 413 242 439 b 330 989 242 690 278 922 l 0 989 b 75 494 50 924 75 709 b 0 -1 75 279 50 64 b 113 7 37 5 76 7 b 555 -38 275 7 434 -38 z "},"":{"ha":1594,"x_min":0,"x_max":0,"o":"m 426 -3 b 673 214 554 -3 673 73 b 665 281 673 235 671 258 b 479 227 597 243 534 227 b 138 671 254 227 138 495 b 218 819 138 772 172 819 b 398 751 267 819 336 770 b 308 573 336 696 308 633 b 571 356 308 458 410 356 b 724 383 617 356 669 364 b 824 410 758 395 792 404 b 759 -2 817 264 796 120 l 1069 -2 b 1004 414 1031 122 1010 266 b 1263 123 1162 387 1263 275 b 1249 22 1263 91 1259 57 l 1250 22 l 1243 -2 l 1553 -2 b 1486 509 1508 149 1486 330 b 1541 988 1486 678 1505 846 l 1255 988 b 1310 513 1291 847 1310 680 b 1305 365 1310 463 1308 414 b 1086 551 1280 494 1208 551 b 1002 544 1060 551 1032 549 b 1058 988 1004 701 1024 856 l 770 988 b 827 506 807 845 827 675 l 827 497 b 707 452 789 484 749 469 b 520 406 627 419 566 406 b 422 483 454 406 422 435 b 629 782 422 556 496 671 b 707 936 682 821 707 882 b 681 1027 707 967 699 999 b 524 962 627 969 524 962 b 463 959 505 960 484 959 b 138 1025 330 959 169 999 b 155 932 150 991 155 960 b 5 556 155 794 28 727 b 0 486 1 533 0 509 b 345 7 0 273 126 63 b 426 -3 372 0 399 -3 z "},"":{"ha":1567,"x_min":0,"x_max":0,"o":"m 532 -39 b 703 58 627 -39 703 -1 b 516 432 703 155 536 295 b 514 458 515 441 514 450 b 790 646 514 579 642 646 l 798 646 b 802 508 801 601 802 554 b 736 -2 802 328 781 147 l 1046 -2 b 978 511 1000 149 978 330 b 980 610 978 544 979 577 b 1251 205 1126 551 1251 421 b 1217 -2 1251 143 1240 75 l 1527 -2 b 1459 509 1481 149 1459 330 b 1516 988 1459 678 1478 846 l 1228 988 b 1284 511 1265 847 1284 680 b 1280 381 1284 468 1283 425 b 985 679 1227 510 1118 616 b 1034 988 994 789 1010 894 l 747 988 b 791 736 767 911 781 825 b 714 741 766 740 740 741 b 414 660 614 741 510 716 b 324 519 349 622 324 572 b 507 251 324 418 414 309 b 611 116 583 205 611 157 b 463 1 611 51 539 1 b 220 387 353 5 231 103 b 219 460 220 412 219 436 b 307 988 219 686 254 920 l 17 988 b 54 572 40 909 54 751 b 0 -1 54 380 37 165 b 102 6 34 4 68 6 b 532 -39 261 6 414 -39 z "},"":{"ha":1629,"x_min":0,"x_max":0,"o":"m 439 -3 b 694 215 571 -3 694 73 b 686 281 694 235 691 258 b 497 230 620 246 556 230 b 163 502 338 230 212 345 b 448 429 232 446 334 429 b 847 461 574 429 715 450 b 773 -2 845 256 820 59 l 1103 -2 b 1029 468 1055 59 1030 260 b 1313 221 1194 460 1313 408 b 1258 -2 1313 140 1290 38 l 1588 -2 b 1514 493 1539 62 1514 277 b 1588 988 1514 708 1539 924 l 1258 988 b 1333 508 1307 924 1332 718 b 1090 640 1286 606 1198 640 b 1032 637 1071 640 1052 639 b 1103 988 1041 798 1065 938 l 773 988 b 845 603 814 934 838 777 b 351 497 736 577 516 497 b 142 669 233 497 142 538 b 146 714 142 683 144 698 b 225 819 156 791 184 819 b 335 782 256 819 293 804 b 505 736 397 750 454 736 b 729 936 642 736 729 836 b 702 1027 729 968 720 999 b 540 962 646 969 540 962 b 477 959 520 960 499 959 b 142 1025 340 959 174 999 b 159 932 155 990 159 960 b 5 556 159 794 28 727 b 0 486 1 532 0 509 b 356 7 0 273 130 63 b 439 -3 383 0 412 -3 z "},"":{"ha":1756,"x_min":0,"x_max":0,"o":"m 88 -87 b 292 126 190 -87 292 -14 b 249 300 292 176 279 234 b 111 711 193 425 130 577 b 105 787 107 739 105 764 b 197 960 105 904 152 960 b 279 821 239 960 279 911 b 275 766 279 804 277 785 b 267 657 270 733 267 696 b 397 123 267 480 316 254 b 612 -28 454 31 538 -28 b 773 260 699 -28 773 53 l 773 267 b 743 652 772 387 743 528 b 953 951 743 798 783 920 b 1034 959 980 956 1007 959 b 1558 515 1271 959 1476 770 b 1595 308 1584 436 1595 367 b 1407 62 1595 146 1512 62 b 1390 62 1401 62 1395 62 b 998 597 1186 80 1038 370 b 985 719 989 648 985 688 b 1016 795 985 772 998 795 b 1152 511 1063 795 1152 637 b 1143 452 1152 490 1149 469 b 1347 648 1289 475 1347 559 b 1114 886 1347 763 1246 886 b 998 854 1078 886 1038 876 b 825 480 885 793 825 627 b 1292 -2 825 159 1059 -2 b 1759 480 1525 -2 1759 159 b 1219 1031 1759 821 1510 1017 b 1172 1032 1205 1032 1190 1032 b 540 755 960 1032 540 972 b 568 652 540 724 549 690 b 703 269 629 530 684 405 b 709 193 707 241 709 216 b 618 21 709 76 663 21 b 536 159 576 21 536 68 b 541 215 536 176 537 195 b 547 322 545 247 547 283 b 417 858 547 499 498 727 b 203 1009 360 950 277 1009 b 42 721 115 1009 42 927 l 42 713 b 64 304 43 623 64 457 b -46 -37 64 148 42 3 b 88 -87 -9 -71 39 -87 z "},"":{"ha":2014,"x_min":0,"x_max":0,"o":"m 45 -205 b 254 62 148 -205 254 -114 b 215 265 254 120 242 188 b 106 711 157 427 111 581 l 105 734 b 217 960 105 888 165 960 b 287 848 254 960 287 921 b 275 766 287 825 283 797 b 250 545 258 701 250 623 b 286 267 250 449 262 351 b 549 43 332 113 448 43 b 715 200 639 43 715 99 b 712 239 715 212 714 225 b 634 458 699 315 658 398 b 572 720 604 536 576 634 l 572 733 b 664 890 572 830 616 890 b 777 739 706 890 752 844 b 805 555 789 684 799 621 b 1406 -48 845 136 1125 -48 b 2011 527 1708 -48 2011 165 b 1543 1009 2011 848 1777 1009 b 1076 527 1310 1009 1076 848 b 1249 153 1076 380 1136 214 b 1365 121 1289 131 1329 121 b 1598 359 1498 121 1598 243 b 1394 555 1598 447 1540 532 b 1402 496 1400 537 1402 517 b 1267 212 1402 370 1315 212 b 1237 288 1249 212 1237 234 b 1250 410 1237 318 1241 358 b 1641 944 1288 637 1437 927 b 1659 945 1647 945 1653 945 b 1845 700 1763 945 1845 861 b 1809 492 1845 641 1834 571 b 1329 46 1714 198 1511 46 b 983 524 1145 46 983 202 l 983 555 b 1057 962 989 739 1014 906 b 989 957 1036 958 1013 957 b 770 968 919 957 841 968 b 529 730 642 968 535 932 l 529 718 b 594 446 529 631 554 531 b 663 214 644 338 663 261 b 631 153 663 172 650 153 b 547 268 605 153 569 192 b 427 858 485 475 508 701 b 228 1009 380 949 302 1009 b 37 713 140 1009 57 925 b 28 458 29 634 28 547 l 28 357 b -88 -144 28 129 22 -83 b 45 -205 -52 -185 -4 -205 z "},"":{"ha":1516,"x_min":0,"x_max":0,"o":"m 25 -155 b 281 165 141 -155 281 -45 b 273 258 281 195 279 225 l 256 355 b 498 180 332 270 447 255 b 705 -3 541 57 623 -3 b 918 186 789 -3 875 61 b 1072 -5 938 52 1000 -5 b 1325 212 1162 -5 1268 83 b 1486 867 1416 417 1486 739 b 1274 1082 1483 1008 1382 1082 b 1118 994 1211 1081 1150 1053 b 1149 1002 1128 999 1139 1002 b 1314 509 1256 1002 1314 746 b 1279 231 1314 405 1302 304 b 1190 117 1258 164 1221 117 b 1144 228 1165 117 1145 149 b 1117 623 1143 368 1139 505 b 831 1025 1086 787 1005 1025 b 708 989 795 1025 753 1014 b 889 460 842 853 889 640 b 791 140 889 283 843 140 b 708 283 763 140 733 182 b 629 758 663 469 645 681 b 297 983 580 994 491 981 b 338 886 313 949 327 917 b -106 -79 131 699 111 -79 b 25 -155 -79 -130 -30 -155 z m 472 269 b 244 471 390 325 280 345 l 243 507 b 356 838 243 617 268 735 b 472 269 433 614 427 451 z "},"":{"ha":1500,"x_min":0,"x_max":0,"o":"m 1156 -21 b 1500 320 1331 -21 1500 140 l 1499 337 b 1114 642 1488 513 1291 597 b 857 776 927 690 857 741 b 975 825 857 806 905 825 b 1395 593 1099 825 1288 764 b 1495 762 1466 648 1495 707 b 1190 1002 1495 886 1342 993 b 1164 1002 1181 1002 1173 1002 b 774 709 947 1002 774 856 b 800 616 774 677 782 646 b 1217 376 870 494 1092 444 b 1357 189 1317 322 1357 252 b 1203 45 1357 111 1292 45 b 981 176 1137 45 1057 81 b 384 1004 774 429 750 1004 l 382 1004 b 251 981 343 1003 300 996 b 0 709 104 937 0 823 b 168 498 0 631 50 553 b 442 376 250 460 357 423 b 567 206 533 328 567 264 b 419 48 567 121 494 48 b 342 78 393 48 366 58 b 261 270 296 118 261 189 b 292 401 261 312 271 357 b 201 425 262 417 231 425 b 16 241 102 425 16 345 b 45 133 16 207 25 170 b 277 -7 89 54 180 7 b 348 -13 302 -12 325 -13 b 726 320 572 -13 726 149 l 725 337 b 283 644 711 571 473 633 b 62 719 126 652 62 685 b 317 809 62 763 167 809 l 325 809 b 830 281 711 804 764 481 b 1156 -21 901 62 1030 -21 z "},"":{"ha":1452,"x_min":0,"x_max":0,"o":"m 363 -54 b 416 -49 380 -54 398 -52 b 717 89 567 -18 602 89 b 810 71 743 89 773 83 b 761 361 766 152 761 262 l 762 426 b 510 615 762 555 635 615 b 332 567 445 615 379 598 b 265 447 285 535 265 491 b 414 279 265 363 336 279 l 418 279 b 591 476 458 425 528 476 b 711 357 656 476 711 420 b 570 211 711 304 673 246 b 490 198 545 202 519 198 b 142 596 334 198 142 327 b 151 701 142 629 144 664 b 255 838 165 788 209 838 b 269 836 260 838 264 837 b 674 760 408 803 544 760 b 1000 896 789 760 898 793 b 1205 994 1072 968 1145 994 b 1339 907 1284 994 1339 949 b 1168 828 1339 867 1291 828 b 813 -13 747 828 939 186 l 1167 -13 b 1077 522 1126 132 1077 353 b 1202 761 1077 659 1109 761 b 1423 905 1340 761 1423 834 b 1184 1034 1423 971 1352 1034 l 1175 1034 b 510 937 950 1031 738 937 b 161 1027 398 937 283 960 b 170 987 163 1013 167 1000 b 174 939 173 970 174 954 b 7 536 174 788 39 718 b 0 454 3 509 0 482 b 363 -54 0 222 147 -54 z "},"":{"ha":1911,"x_min":0,"x_max":0,"o":"m 1312 -54 b 1459 -38 1363 -54 1413 -50 b 1918 524 1713 24 1918 220 b 1432 1025 1918 831 1681 1025 b 1108 896 1319 1025 1204 984 b 606 1040 962 989 780 1040 l 604 1040 b 0 477 288 1040 0 870 b 467 -5 0 155 233 -5 b 784 112 582 -5 696 34 b 1312 -54 941 8 1137 -54 z m 1168 46 b 831 161 1046 46 927 90 b 934 477 895 239 934 345 b 761 850 934 624 874 790 b 665 878 726 869 693 878 b 496 606 555 878 496 754 b 626 246 496 484 537 344 b 369 59 559 144 471 68 b 352 58 363 58 357 58 b 165 304 248 58 165 143 b 201 512 165 363 176 433 b 742 954 286 778 503 954 l 745 954 b 1061 846 849 954 958 920 b 958 527 998 766 958 659 b 1133 157 958 380 1018 215 b 1224 133 1166 140 1196 133 b 1397 409 1336 133 1397 260 b 1267 766 1397 532 1356 670 b 1554 939 1338 877 1453 939 b 1755 699 1663 939 1755 865 b 1717 488 1755 640 1744 570 b 1394 100 1663 317 1541 176 b 1168 46 1321 63 1244 46 z m 677 337 b 633 522 646 397 633 462 b 741 781 633 662 700 781 l 741 781 b 772 703 759 781 772 758 b 760 594 772 675 768 639 b 677 337 747 512 718 420 z m 1152 228 b 1121 305 1134 228 1121 251 b 1133 414 1121 333 1124 369 b 1215 673 1146 497 1175 589 b 1260 490 1247 614 1260 550 b 1152 228 1260 349 1192 228 z "},"":{"ha":1423,"x_min":0,"x_max":0,"o":"m 1092 -13 b 1027 442 1057 110 1027 288 b 1176 761 1027 616 1065 761 b 1397 905 1314 761 1397 835 b 1158 1034 1397 971 1325 1034 l 1149 1034 b 918 965 1072 1033 993 1015 b 762 909 857 924 807 909 b 393 1002 649 909 565 1002 b 348 1000 378 1002 363 1002 b 0 710 151 983 0 846 b 168 498 0 631 50 553 b 442 376 250 460 356 423 b 568 206 533 328 568 264 b 419 48 568 121 494 48 b 342 78 393 48 366 58 b 261 270 295 118 261 189 b 292 401 261 312 271 357 b 201 425 262 417 231 425 b 16 240 102 425 16 345 b 45 133 16 206 25 170 b 277 -7 89 54 180 7 b 348 -13 301 -12 325 -13 b 725 320 572 -13 725 149 l 724 337 b 340 642 713 513 517 597 b 83 783 153 691 83 744 b 210 842 83 817 136 841 l 216 842 b 658 741 382 842 513 741 b 918 867 738 741 822 772 b 1154 972 994 945 1082 972 b 1316 890 1246 972 1316 929 b 1142 828 1316 858 1267 828 b 739 -13 721 828 865 186 z "},"":{"ha":1495,"x_min":0,"x_max":0,"o":"m 26 -155 b 264 47 117 -155 224 -86 b 438 361 302 172 326 269 l 454 258 b 662 -2 484 127 492 -2 l 775 -2 b 671 469 724 132 694 307 b 758 488 700 476 729 481 l 758 486 b 1103 7 758 273 884 62 b 1184 -3 1130 0 1157 -3 b 1431 215 1312 -3 1431 73 b 1423 281 1431 236 1428 258 b 1236 227 1354 243 1292 227 b 922 513 1074 227 968 368 b 1341 679 1081 537 1233 568 b 1461 942 1396 738 1461 847 b 1438 1027 1461 972 1455 1002 b 1196 958 1392 977 1295 958 b 895 1025 1069 958 938 989 b 913 932 907 990 913 960 b 763 556 913 794 786 727 b 762 542 762 551 762 547 b 663 523 728 537 695 530 b 589 876 641 673 621 806 b 270 987 543 972 448 987 b 331 878 292 974 312 934 b -106 -79 131 679 109 -79 b 26 -155 -79 -130 -30 -155 z m 276 237 b 243 525 262 338 243 433 b 346 827 243 628 267 728 b 428 425 380 711 408 553 b 276 237 368 381 315 322 z m 909 566 b 897 670 901 602 897 637 b 899 714 897 686 897 701 b 976 819 909 791 937 819 b 1083 782 1006 819 1042 804 b 1247 736 1143 749 1199 736 l 1272 737 b 909 566 1183 625 1050 590 z "},"":{"ha":4357,"x_min":0,"x_max":0,"o":"m 555 -38 b 687 -7 606 -38 652 -30 b 728 62 716 13 728 36 b 530 437 728 151 588 279 b 498 602 508 495 498 551 b 878 957 498 819 678 957 b 1055 920 937 957 997 945 b 1396 515 1211 852 1337 702 b 1433 307 1422 436 1433 366 b 1246 62 1433 146 1350 62 b 1228 62 1240 62 1234 62 b 837 597 1024 80 876 370 b 825 719 828 648 825 689 b 854 795 825 773 837 795 b 990 509 902 795 990 636 b 983 452 990 489 987 469 b 1185 648 1128 475 1185 559 b 953 886 1185 763 1085 886 b 836 854 916 886 877 876 b 664 480 723 793 664 627 b 1131 -2 664 159 897 -2 b 1597 480 1364 -2 1597 159 b 1058 1031 1597 821 1348 1017 b 1023 1032 1046 1032 1035 1032 l 1020 1032 b 317 519 638 1032 317 736 b 389 370 317 462 340 410 b 531 273 438 332 486 308 b 624 123 597 221 624 168 b 486 3 624 54 561 3 b 244 387 382 3 255 102 b 242 465 243 413 242 439 b 330 989 242 690 278 922 l 0 989 b 75 494 50 924 75 709 b 0 -1 75 279 50 64 b 113 7 37 5 76 7 b 555 -38 275 7 434 -38 z m 3215 264 b 3181 288 3202 269 3192 281 b 3086 353 3149 309 3116 329 b 3006 492 3038 392 3011 428 b 3006 515 3006 500 3006 507 b 3032 684 3006 570 3016 635 b 3109 823 3041 709 3086 817 b 3215 264 3132 763 3212 323 z m 2788 -156 b 3042 124 2893 -156 3020 -69 b 3044 164 3044 138 3044 151 b 3021 345 3044 227 3029 282 b 3078 296 3030 340 3063 307 b 3240 133 3149 241 3190 222 b 3337 13 3269 81 3276 40 b 3483 -5 3367 0 3432 -5 b 3538 -3 3505 -5 3524 -4 b 3515 67 3533 20 3522 44 b 3412 619 3461 254 3442 429 b 3330 911 3401 690 3377 859 b 3209 977 3294 951 3263 966 b 3067 990 3179 983 3113 990 b 3035 988 3054 990 3043 989 b 3071 932 3048 966 3059 960 b 3090 883 3084 904 3090 892 b 3007 743 3090 863 3059 865 b 2911 448 2967 648 2937 547 b 2723 -49 2883 336 2814 29 b 2657 -81 2680 -85 2681 -68 b 2788 -156 2681 -130 2731 -156 z m 3835 208 b 3824 441 3827 235 3824 404 b 3884 873 3825 574 3824 753 b 3986 964 3911 926 3952 964 b 4051 820 4022 964 4051 924 b 4045 730 4051 794 4049 764 b 3990 539 4038 665 4020 600 b 3861 298 3949 455 3895 393 b 3835 208 3857 287 3836 208 z m 4131 -41 b 4273 3 4177 -41 4233 -31 b 4346 182 4323 45 4346 113 b 4262 401 4346 264 4316 348 b 4127 460 4220 443 4175 460 b 4054 450 4104 460 4080 456 b 4098 500 4068 468 4084 483 b 4226 653 4148 560 4171 579 b 4289 808 4260 699 4289 754 b 4237 911 4289 845 4274 881 b 3975 992 4163 971 4069 992 b 3946 991 3965 992 3955 992 b 3766 983 3885 989 3826 985 b 3688 980 3740 982 3714 980 l 3676 980 b 3602 984 3655 981 3625 984 b 3587 983 3597 984 3592 984 b 3608 869 3593 945 3603 909 b 3633 433 3623 756 3633 591 b 3611 102 3633 308 3626 188 b 3581 -3 3604 58 3594 38 l 3862 -3 b 3855 83 3862 33 3855 52 b 3860 134 3855 97 3857 113 b 3895 244 3866 174 3876 208 b 4055 370 3923 301 3986 370 l 4057 370 b 4143 250 4123 370 4143 315 b 4104 61 4143 182 4121 102 b 4053 -25 4080 2 4062 -7 b 4131 -41 4062 -34 4093 -41 z m 1945 -16 b 2262 127 2065 -16 2186 33 b 2330 317 2304 180 2330 249 b 2308 418 2330 352 2323 386 b 2101 590 2270 502 2184 555 b 1814 684 2007 631 1908 647 b 1687 785 1725 719 1687 755 b 1784 840 1687 813 1724 834 b 1819 842 1796 841 1808 842 b 2262 741 1979 842 2115 741 b 2407 778 2308 741 2357 751 b 2625 941 2494 825 2539 900 b 2761 972 2672 963 2719 972 b 2921 891 2852 972 2921 930 b 2825 833 2921 866 2893 843 b 2652 815 2766 825 2711 833 b 2469 618 2555 786 2501 710 b 2344 -16 2395 414 2432 178 l 2696 -16 b 2644 267 2674 100 2660 134 b 2633 442 2639 314 2633 377 b 2686 705 2633 539 2645 642 b 2797 761 2715 751 2745 758 b 3002 886 2874 765 2985 799 b 3004 907 3003 894 3004 901 b 2821 1033 3004 993 2891 1025 b 2761 1036 2799 1035 2780 1036 b 2367 910 2552 1036 2497 910 b 2295 922 2346 910 2322 913 b 2043 1000 2205 949 2142 991 b 1999 1002 2028 1002 2014 1002 b 1612 772 1844 1002 1663 926 b 1602 710 1605 751 1602 730 b 1697 541 1602 642 1640 585 b 2129 309 1807 455 2032 419 b 2170 205 2158 276 2170 240 b 2024 47 2170 121 2100 47 b 1900 135 1980 47 1934 72 b 1865 259 1874 179 1865 219 b 1895 402 1865 305 1878 351 b 1799 423 1861 416 1829 423 b 1619 235 1691 423 1619 334 b 1716 55 1619 172 1648 105 b 1945 -16 1782 7 1863 -16 z "}}}
